
<svg width="33px" height="33px" viewBox="0 0 33 33" version="1.1" xmlns="http://www.w3.org/2000/svg" xmlns:xlink="http://www.w3.org/1999/xlink">
    <g id="页面-1" stroke="none" stroke-width="1" fill="none" fill-rule="evenodd">
        <g id="share_副本" fill="#898282">
            <path d="M29.9282,12.527 L31.8769,10.4241 C31.1898,8.6946 30.2163,7.0933 28.9973,5.6872 L26.2192,6.4234 C25.2982,5.5349 24.2557,4.7714 23.119,4.1604 L23.0078,1.3102 C21.2979,0.5782 19.4781,0.1354 17.623,0 L16.2129,2.5029 C14.9392,2.5285 13.7072,2.7242 12.5388,3.0683 L10.4241,1.1086 C8.6885,1.7923 7.0819,2.7661 5.6728,3.9882 L6.4206,6.7837 C5.5351,7.7021 4.774,8.7411 4.1643,9.8738 L1.3102,9.9921 C0.5649,11.6977 0.1216,13.5197 0,15.377 L2.5029,16.7871 C2.5285,18.0608 2.7242,19.2928 3.0683,20.4612 L1.1086,22.5759 C1.7949,24.3058 2.7685,25.9072 3.9882,27.3129 L6.7777,26.5736 C7.6976,27.4616 8.7387,28.2247 9.8738,28.8357 L9.9921,31.6898 C11.6965,32.4236 13.5118,32.8665 15.3625,33 L16.7725,30.4974 C18.0474,30.4731 19.2806,30.2783 20.4502,29.935 L22.5615,31.8914 C24.2909,31.2043 25.8923,30.2308 27.2984,29.0118 L26.5675,26.2287 C27.4425,25.3234 28.1965,24.3004 28.8035,23.1858 L31.7041,23.0655 C32.4382,21.357 32.8764,19.5361 33,17.6807 L30.4978,16.2468 C30.4749,14.9568 30.2775,13.7093 29.9282,12.527 Z M24,16.5 C24,20.6422 20.6421,24 16.5,24 C12.3579,24 9,20.6422 9,16.5 C9,12.3578 12.3579,9 16.5,9 C20.6421,9 24,12.3578 24,16.5 Z" id="形状"></path>
        </g>
    </g>
</svg>