
<svg width="21px" height="21px" viewBox="0 0 21 21" version="1.1" xmlns="http://www.w3.org/2000/svg" xmlns:xlink="http://www.w3.org/1999/xlink">
    <g id="页面-1" stroke="none" stroke-width="1" fill="none" fill-rule="evenodd">
        <g id="private" fill-rule="nonzero">
            <path d="M9.74420691,20.4112586 C7.73281911,20.4112586 5.97132879,19.705345 5.0729387,19.1014247 C4.17454862,18.4975044 3.04467315,17.2290677 2.81011242,15.6448718 C2.61234252,14.3129594 3.06306523,13.0031255 4.14999916,11.7511877 C4.5422568,11.2610799 5.03184504,10.8403876 5.59414771,10.5103493 C4.47654698,9.66512482 2.94195235,8.37736945 1.79215046,6.93656414 L1.15745358,6.14101642 L2.23060512,6.01556467 C2.29039772,6.01556467 3.49386819,5.87769373 4.90736328,5.81697772 C4.76633732,4.46305269 5.22470505,2.43626589 7.71901004,1.32773674 C8.8081254,0.839548826 10.008247,0.585165544 11.2251129,0.584583582 C13.2365007,0.584583582 14.9995254,1.29050919 15.8963811,1.89579141 C16.7932369,2.50106763 17.9246467,3.76677445 18.1592008,5.35098834 C18.3569973,6.68284081 17.9062346,7.99267473 16.8193207,9.24461246 C16.4265961,9.73442027 15.9370745,10.1549926 15.3751721,10.4855109 C16.4912385,11.3306754 18.0273808,12.6171108 19.1756684,14.0579161 L19.8103519,14.8534639 L18.7371804,14.9789156 C18.6774078,14.9789156 17.475485,15.125066 16.0604222,15.1774426 C16.2015149,16.5314336 15.7430805,18.5582204 13.2487755,19.6667075 C12.1599269,20.1555554 10.9596052,20.4099387 9.74267257,20.4098787 L9.74420691,20.4112586 Z M8.97763674,14.45635 C8.84047999,14.7989874 8.84047999,15.1739628 8.97763674,15.5166603 C9.12459994,15.8724969 9.41298936,16.1667175 9.78710175,16.342506 C10.1101139,15.871477 10.324388,15.3467514 10.4171823,14.7996474 C10.0400679,14.7197326 9.53106691,14.6093999 8.9837741,14.45635 L8.97763674,14.45635 Z M10.5643456,6.20167244 C10.9369236,6.27474763 11.4459246,6.38646029 11.9932174,6.53813032 C12.1303742,6.19543285 12.1303742,5.82045749 11.9932174,5.47782001 C11.8473883,5.12564315 11.5625346,4.83412231 11.1929585,4.65881383 C10.8726815,5.13044284 10.6610091,5.65510835 10.570483,6.20167244 L10.5643456,6.20167244 Z" id="形状" fill="#060627"></path>
            <path d="M11.238922,1.17609071 C13.1982089,1.17609071 14.8017955,1.88615005 15.5208011,2.36872233 C16.6062474,3.10084822 19.0468505,5.74672233 16.3210601,8.89027574 C16.3210601,8.89027574 16.3425409,8.85997774 16.3762297,8.80064164 C15.8795701,9.5010956 15.1114656,10.0057224 14.2591057,10.423475 C15.3797752,11.2190227 17.2961005,12.7026052 18.655927,14.4067332 C17.5364584,14.5293652 16.410719,14.6002805 15.2831784,14.6190593 C15.2831784,14.6190593 16.2612875,17.681318 12.9559832,19.1497215 C11.9569269,19.6013118 10.8546696,19.8373363 9.7365352,19.8390762 C7.77724829,19.8390762 6.17366168,19.1290229 5.45619043,18.6450947 C4.36927652,17.9143427 1.93013443,15.2670767 4.65593147,12.1235233 C4.65593147,12.1235233 4.63291635,12.1552012 4.59922756,12.2130974 C5.09748816,11.5127034 5.86399162,11.0080766 6.71635147,10.590324 C5.59568205,9.7947763 3.67937004,8.3111938 2.31953686,6.60706579 C3.43909222,6.4852138 4.56480495,6.41435846 5.69227883,6.39473975 C5.69227883,6.39473975 4.71416972,3.33248099 8.01947406,1.86408949 C9.0193975,1.41539098 10.1215214,1.18175434 11.238922,1.18160435 L11.238922,1.17609071 Z M12.3305057,7.26612248 C13.2503098,5.97422738 12.6217636,4.4051625 10.9798852,3.95706395 C10.3512723,4.61747655 9.9388681,5.5798733 9.85608039,6.6815209 C10.6964324,6.81813192 11.5237091,7.01311911 12.3305057,7.26474257 L12.3305057,7.26612248 Z M10.0033104,17.0608388 C10.6318566,16.4004622 11.0442608,15.4366855 11.1270485,14.3350379 C10.2866966,14.1984269 9.45941985,14.0034397 8.65262326,13.7518163 C7.73281911,15.0437114 8.36289963,16.6141681 10.0033104,17.0608388 L10.0033104,17.0608388 Z M11.238922,0.0096533656 C9.92199035,0.00949737585 8.62300381,0.284681291 7.44456311,0.81347454 C5.23851412,1.79239421 4.53178326,3.35592145 4.33245233,4.49477861 C4.28688907,4.7520477 4.26180593,5.01189063 4.25733633,5.27239351 C3.1060001,5.33580934 2.21221304,5.43786263 2.16162648,5.44476218 L0,5.69566569 L1.26936709,7.28814103 C2.2388572,8.45782416 3.34717184,9.52899377 4.5746781,10.4827511 C4.22831727,10.7520734 3.91944773,11.0580533 3.65483392,11.3941512 L3.65483392,11.3941512 C2.4743719,12.7549818 1.9684596,14.2523034 2.18308724,15.7248466 C2.4452461,17.4896306 3.70388614,18.8959982 4.70189499,19.5729937 C5.72603434,20.2623484 7.59326078,21 9.76101795,21 C11.0780163,21 12.3770029,20.724978 13.5553768,20.1961727 C15.7614925,19.2158972 16.4682234,17.6523399 16.6675543,16.5148747 C16.7130509,16.2576116 16.738134,15.9977087 16.7426703,15.7372658 C17.8940266,15.67247 18.7878136,15.5704167 18.8383802,15.5648971 L21,15.3139936 L19.7137552,13.7228382 C18.7481876,12.5482353 17.6417942,11.472806 16.4145882,10.5158689 C16.7617495,10.2472666 17.0706858,9.94116668 17.3343923,9.60446881 L17.3343923,9.60446881 C18.5164354,8.24363824 19.0207667,6.74631664 18.806159,5.27377342 C18.5439868,3.5089594 17.2853601,2.10262182 16.2889056,1.42702422 C15.2632319,0.737639523 13.3960055,0 11.229716,0 L11.238922,0.0096533656 Z M11.3523965,5.77840025 C11.3631369,5.74534242 11.3753449,5.71360451 11.3876197,5.68192659 L11.3876197,5.69152596 C11.4014955,5.72542373 11.4132365,5.75992147 11.4229095,5.79495916 L11.3493279,5.77840025 L11.3523965,5.77840025 Z M9.59704358,15.3346322 L9.59704358,15.3249729 C9.58276754,15.2912551 9.57095978,15.2566974 9.56175374,15.2215997 L9.6353354,15.2395385 C9.62459501,15.2712164 9.61238699,15.3029543 9.60164661,15.3346322 L9.59704358,15.3346322 Z" id="形状" fill="#060627"></path>
            <path d="M9.40078134,13.0045054 C9.74267257,12.7590615 10.9584044,11.8215031 11.3616026,11.6422949 C13.9126115,10.5033897 17.621114,9.72854066 16.8622822,5.92455065 C16.2873713,3.04704975 13.1951402,1.39114658 9.42686514,3.85638456 C12.5988152,3.46205448 13.888062,6.33816347 11.5823476,7.99267473 C11.2404564,8.2381186 10.0247912,9.17567699 9.62159304,9.35626512 C7.07205177,10.4951703 3.36203494,11.2700194 4.12091339,15.0726294 C4.69582434,17.9501603 7.78952302,19.6060515 11.5563305,17.1408135 C8.38438041,17.5323478 7.09506689,14.6590166 9.40078134,13.0045054 Z" id="路径" fill="#FFFFFF"></path>
            <path d="M13.3453722,9.72440093 C13.3453722,9.72440093 16.6245928,11.7787859 18.655927,14.3267585 C17.5363917,14.4486105 16.410719,14.5194658 15.2831784,14.5390845 C15.2831784,14.5390845 16.2612875,17.6013433 12.9559832,19.0696868 C9.65067881,20.5380903 6.54317105,19.2902923 5.45772477,18.5595403 C4.3723452,17.8287883 1.93168211,15.1815823 4.65746581,12.0379689 C4.65746581,12.0379689 3.93539153,13.0568819 4.19756373,14.835525 C4.41830872,16.2997888 5.4025552,17.5682254 7.50133373,17.8688057 C9.42839948,18.1445476 9.92972876,16.2528719 10.0983729,14.0206586 C10.0983729,14.0206586 9.15241821,13.953103 7.68838993,13.3092253 C7.69906361,13.3092253 11.1086364,10.894984 13.3453722,9.72440093 Z" id="路径" fill="#A51EE1"></path>
            <path d="M7.64082535,11.1969442 C7.64082535,11.1969442 4.36160481,9.14255916 2.33026391,6.59464661 C3.44981926,6.47279462 4.57547862,6.40193927 5.70301922,6.38232056 C5.70301922,6.38232056 4.72491011,3.32005581 8.03021445,1.85167031 C11.3355188,0.383284811 14.4430265,1.63107081 15.5300072,2.36181678 C16.6169211,3.09256276 19.0560565,5.73976279 16.3302639,8.8833762 C16.3302639,8.8833762 17.0523404,7.86446316 16.7901682,6.08588005 C16.5694232,4.62161627 15.5851767,3.35314364 13.4879325,3.05257539 C11.5593325,2.77682151 11.1653403,4.42307132 10.9966962,6.65668253 C10.9966962,6.65668253 11.8353137,6.96830205 13.29634,7.61217974 C13.2840653,7.60941992 9.87449248,10.0249812 7.64082535,11.1969442 Z" id="路径" fill="#A51EE1"></path>
            <path d="M14.1885928,16.6182479 C13.2687219,16.6182479 13.1890029,16.2763303 12.7597209,16.2763303 C12.3305057,16.2763303 12.2400462,16.6182479 11.3324501,16.6182479 C10.3696844,16.6182479 9.58783754,15.8048213 9.58783754,14.8024072 C9.58783754,13.8593292 10.2486049,12.9080317 11.6206394,13.010025 C12.3120936,13.0637815 12.4945467,13.3230244 12.7597209,13.3230244 C13.0249618,13.3230244 13.207415,13.0637815 13.8988024,13.010025 C15.2785754,12.903892 15.931671,13.8552495 15.931671,14.8024072 C15.931671,15.8048213 15.1528928,16.6182479 14.1885928,16.6182479 Z" id="路径" fill="#060627"></path>
            <path d="M13.9525044,13.5132719 C13.7070098,13.5166917 13.4679861,13.5843673 13.2645859,13.7080191 C13.0611856,13.831731 12.9022812,14.0059595 12.8072855,14.2095862 C12.7123565,14.0061995 12.5537189,13.832031 12.3505855,13.7084391 C12.1475188,13.5847872 11.9088287,13.5169917 11.6636009,13.5132719 C10.9630074,13.5132719 10.3942339,14.0648157 10.3942339,14.7376115 C10.3942339,15.4104672 10.9630074,15.9605711 11.6636009,15.9605711 C11.9079615,15.9575113 12.1460512,15.8906757 12.3490512,15.7683437 C12.5520512,15.6459518 12.7112224,15.4732831 12.8072855,15.2712164 C12.9036154,15.4734031 13.0630535,15.6461318 13.2663203,15.7684637 C13.4695872,15.8908557 13.7079437,15.9575713 13.9525044,15.9605711 C14.6530979,15.9605711 15.2203371,15.4090873 15.2203371,14.7376115 C15.2203371,14.0661956 14.6530979,13.5132719 13.9525044,13.5132719 Z" id="路径" fill="#FFFFFF"></path>
            <path d="M11.7601977,14.9789156 C12.1750702,14.9789156 12.5113578,14.6936944 12.5113578,14.3418775 C12.5113578,13.9901206 12.1750702,13.7048993 11.7601977,13.7048993 C11.3453252,13.7048993 11.008971,13.9901206 11.008971,14.3418775 C11.008971,14.6936944 11.3453252,14.9789156 11.7601977,14.9789156 Z" id="路径" fill="#A51EE1"></path>
            <path d="M11.7601977,15.2394785 C11.4901537,15.2439182 11.2291823,15.1520042 11.0343877,14.9837753 C10.8395931,14.8155463 10.7267856,14.5847415 10.7207817,14.3419375 C10.7267856,14.0990734 10.8395931,13.8683286 11.0343877,13.7000997 C11.2291823,13.5318707 11.4901537,13.4398968 11.7601977,13.4443365 C12.0302418,13.4398968 12.2912132,13.5318707 12.4860078,13.7000997 C12.6808024,13.8683286 12.7936098,14.0990734 12.7996138,14.3419375 C12.7936098,14.5847415 12.6808024,14.8155463 12.4860078,14.9837753 C12.2912132,15.1520042 12.0302418,15.2439182 11.7601977,15.2394785 L11.7601977,15.2394785 Z M11.7601977,13.9641423 C11.6436545,13.9600026 11.5300466,13.9973801 11.44399,14.0680555 C11.3578668,14.1387908 11.3062329,14.2371844 11.3002957,14.3419375 C11.3062329,14.4466306 11.3578668,14.5450241 11.44399,14.6157595 C11.5300466,14.6864948 11.6436545,14.7238124 11.7601977,14.7196726 C11.8766742,14.7238124 11.9903489,14.6864948 12.0764054,14.6157595 C12.1625287,14.5450241 12.2141626,14.4466306 12.2200998,14.3419375 C12.2145628,14.2369444 12.1630623,14.1381909 12.0769391,14.0671555 C11.9908159,13.9961802 11.8769411,13.9586227 11.7601977,13.9627624 L11.7601977,13.9641423 Z" id="形状" fill="#060627"></path>
            <path d="M13.8543732,14.9789156 C13.6607794,14.9833553 13.4730561,14.9187396 13.332297,14.7991074 C13.1915379,14.6794753 13.1091504,14.5146061 13.1031465,14.3405576 C13.1091504,14.166569 13.1916046,14.0018798 13.3324304,13.8824277 C13.4731895,13.7630355 13.6609128,13.6987197 13.8543732,13.7035794 C14.0478336,13.6987197 14.2354902,13.7630355 14.3763161,13.8824277 C14.5170752,14.0018798 14.5995293,14.166569 14.6056,14.3405576 C14.5995293,14.5146061 14.5171419,14.6794753 14.3763828,14.7991074 C14.2356237,14.9187396 14.0479671,14.9833553 13.8543732,14.9789156 L13.8543732,14.9789156 Z" id="路径" fill="#A51EE1"></path>
            <path d="M13.8543732,15.2394785 C13.5843292,15.2439182 13.3233578,15.1520042 13.1285632,14.9837753 C12.9337686,14.8155463 12.8209611,14.5847415 12.8149572,14.3419375 C12.8209611,14.0990734 12.9337686,13.8683286 13.1285632,13.7000997 C13.3233578,13.5318707 13.5843292,13.4398968 13.8543732,13.4443365 C14.1244173,13.4398968 14.3853887,13.5318707 14.5801833,13.7000997 C14.7749779,13.8683286 14.8877186,14.0990734 14.8937893,14.3419375 C14.8877186,14.5847415 14.7749779,14.8155463 14.5801833,14.9837753 C14.3853887,15.1520042 14.1244173,15.2439182 13.8543732,15.2394785 L13.8543732,15.2394785 Z M13.8543732,13.9641423 C13.73783,13.9600026 13.6242221,13.9973801 13.5380988,14.0680555 C13.4520423,14.1387908 13.4004084,14.2371844 13.3944712,14.3419375 C13.4004084,14.4466306 13.4520423,14.5450241 13.5380988,14.6157595 C13.6242221,14.6864948 13.73783,14.7238124 13.8543732,14.7196726 C13.9708497,14.7238124 14.0845244,14.6864948 14.1705809,14.6157595 C14.2567042,14.5450241 14.3083381,14.4466306 14.3142753,14.3419375 C14.3087383,14.2369444 14.2572378,14.1381909 14.1711146,14.0671555 C14.0849914,13.9961802 13.9711166,13.9586227 13.8543732,13.9627624 L13.8543732,13.9641423 Z" id="形状" fill="#060627"></path>
            <path d="M6.43583389,4.37758231 C7.35570475,4.37758231 7.43542378,4.71814993 7.86463903,4.71814993 C8.29392099,4.71814993 8.37824304,4.37758231 9.29197654,4.37758231 C10.2547422,4.37758231 11.0365891,5.18965894 11.0365891,6.19201307 C11.0365891,7.136471 10.3758218,8.08644857 9.00372054,7.98445527 C8.31233308,7.93063881 8.12987991,7.67145584 7.86463903,7.67145584 C7.59939814,7.67145584 7.41701168,7.93063881 6.72555752,7.98445527 C5.34585129,8.0905883 4.69275565,7.14061073 4.69275565,6.19201307 C4.69275565,5.18965894 5.47306818,4.37758231 6.43583389,4.37758231 Z" id="路径" fill="#060627"></path>
            <path d="M6.67192229,7.48114835 C6.91648292,7.47814855 7.15483948,7.41143293 7.35810632,7.28904098 C7.56137317,7.16670901 7.72081122,6.99398037 7.81714116,6.79179365 C7.91320426,6.99386037 8.07237547,7.16652903 8.27537548,7.28892098 C8.47837548,7.41125294 8.7164652,7.47808855 8.9608257,7.48114835 C9.6614192,7.48114835 10.2301928,6.92966459 10.2301928,6.25818872 C10.2301928,5.58677285 9.6614192,5.03384918 8.9608257,5.03384918 C8.7164652,5.03696898 8.47837548,5.10374459 8.27537548,5.22613655 C8.07237547,5.34846851 7.91320426,5.52113716 7.81714116,5.72326388 C7.72081122,5.52107716 7.56137317,5.34828852 7.35810632,5.22595656 C7.15483948,5.1036246 6.91648292,5.03690898 6.67192229,5.03384918 C5.97132879,5.03384918 5.40408954,5.58539294 5.40408954,6.25818872 C5.40408954,6.9310445 5.97132879,7.48114835 6.67192229,7.48114835 Z" id="路径" fill="#FFFFFF"></path>
            <path d="M8.86422892,7.29228076 C9.27910142,7.29228076 9.61545568,7.0071195 9.61545568,6.65530262 C9.61545568,6.30348574 9.27910142,6.01832448 8.86422892,6.01832448 C8.44935642,6.01832448 8.11300216,6.30348574 8.11300216,6.65530262 C8.11300216,7.0071195 8.44935642,7.29228076 8.86422892,7.29228076 Z" id="路径" fill="#A51EE1"></path>
            <path d="M8.8672976,7.55152373 C8.59725356,7.55596343 8.33628215,7.46398948 8.14148754,7.29576053 C7.94662621,7.12753159 7.83388549,6.89678675 7.82788155,6.65392271 C7.83388549,6.41111867 7.94662621,6.18031384 8.14148754,6.01208489 C8.33628215,5.84385595 8.59725356,5.75194199 8.8672976,5.7563817 C9.13727493,5.75194199 9.39831305,5.84385595 9.59310766,6.01208489 C9.78790228,6.18031384 9.90064299,6.41111867 9.90671365,6.65392271 C9.90064299,6.89678675 9.78790228,7.12753159 9.59310766,7.29576053 C9.39831305,7.46398948 9.13727493,7.55596343 8.8672976,7.55152373 L8.8672976,7.55152373 Z M8.8672976,6.27612754 C8.75075438,6.27204781 8.63714643,6.30936536 8.5510232,6.38010071 C8.46496667,6.45083606 8.41333276,6.54922959 8.40732881,6.65392271 C8.41333276,6.75867583 8.46496667,6.85706936 8.5510232,6.92780472 C8.63714643,6.99848007 8.75075438,7.03585761 8.8672976,7.03171789 C8.9837741,7.03585761 9.09744877,6.99848007 9.18350529,6.92780472 C9.26962853,6.85706936 9.32126244,6.75867583 9.32719967,6.65392271 C9.32086218,6.54946958 9.26909484,6.45137603 9.18303832,6.38100065 C9.0969818,6.31056528 8.98357397,6.27336772 8.8672976,6.27750745 L8.8672976,6.27612754 Z" id="形状" fill="#060627"></path>
            <path d="M6.77005341,6.01694458 C6.96351381,6.01208489 7.1511704,6.07646066 7.29199623,6.19585282 C7.43282207,6.31524497 7.51520951,6.47993415 7.52121346,6.65392271 C7.51560978,6.82815126 7.43335575,6.99320042 7.29252992,7.11289255 C7.15163738,7.23258469 6.96371394,7.29708045 6.77005341,7.29228076 C6.57632616,7.29708045 6.38840273,7.23258469 6.2475769,7.11289255 C6.10675107,6.99320042 6.02443033,6.82815126 6.01882665,6.65392271 C6.0248306,6.47993415 6.10728475,6.31524497 6.24811058,6.19585282 C6.38886971,6.07646066 6.57659301,6.01208489 6.77005341,6.01694458 Z" id="路径" fill="#A51EE1"></path>
            <path d="M6.77005341,7.55152373 C6.50000937,7.55596343 6.23903796,7.46398948 6.04424335,7.29576053 C5.84944873,7.12753159 5.73664131,6.89678675 5.73063736,6.65392271 C5.73664131,6.41111867 5.84944873,6.18031384 6.04424335,6.01208489 C6.23903796,5.84385595 6.50000937,5.75194199 6.77005341,5.7563817 C7.04003074,5.75194199 7.30106886,5.84385595 7.49586347,6.01208489 C7.69065809,6.18031384 7.8033988,6.41111867 7.80946946,6.65392271 C7.8033988,6.89678675 7.69065809,7.12753159 7.49586347,7.29576053 C7.30106886,7.46398948 7.04003074,7.55596343 6.77005341,7.55152373 L6.77005341,7.55152373 Z M6.77005341,6.27612754 C6.65351019,6.27204781 6.53990224,6.30936536 6.45377901,6.38010071 C6.36772248,6.45083606 6.31608857,6.54922959 6.31008462,6.65392271 C6.31608857,6.75867583 6.36772248,6.85706936 6.45377901,6.92780472 C6.53990224,6.99848007 6.65351019,7.03585761 6.77005341,7.03171789 C6.88652991,7.03585761 7.00020458,6.99848007 7.0862611,6.92780472 C7.17238434,6.85706936 7.22401825,6.75867583 7.22995549,6.65392271 C7.22361799,6.54946958 7.17185065,6.45137603 7.08579413,6.38100065 C6.99973761,6.31056528 6.88632978,6.27336772 6.77005341,6.27750745 L6.77005341,6.27612754 Z" id="形状" fill="#060627"></path>
        </g>
    </g>
</svg>