
<svg width="31.1467001px" height="11.9999718px" viewBox="0 0 31.1467001 11.9999718" version="1.1" xmlns="http://www.w3.org/2000/svg" xmlns:xlink="http://www.w3.org/1999/xlink">
    <g id="页面-1" stroke="none" stroke-width="1" fill="none" fill-rule="evenodd">
        <g id="help_squid" fill-rule="nonzero">
            <path d="M24.3486001,7.43721988 C22.6086001,7.29984988 21.1250001,8.11489988 21.0426001,9.26879988 C20.9602001,10.4226999 22.2973001,11.4300999 24.0373001,11.5582999 C25.7773001,11.6864999 27.2700001,10.8805999 27.3524001,9.72668988 C27.4348001,8.57279988 26.0886001,7.56542988 24.3486001,7.43721988 Z M24.1380001,10.2852999 C23.2222001,10.2211999 22.5079001,9.79993988 22.5445001,9.36951988 C22.5811001,8.93909988 23.3412001,8.61857988 24.2570001,8.69183988 C25.1728001,8.76510988 25.8871001,9.17720988 25.8505001,9.60762988 C25.8139001,10.0380999 25.0446001,10.3585999 24.1380001,10.2852999 L24.1380001,10.2852999 Z" id="形状" fill="#848484"></path>
            <polygon id="路径" fill="#848484" points="31.1467001 3.95128988 27.8773001 3.17238988 27.1196001 6.35281988 30.3890001 7.13170988"></polygon>
            <polygon id="路径" fill="#848484" points="27.8738001 3.18112988 27.4017001 3.06864988 25.7845001 9.85697988 26.2566001 9.96946988"></polygon>
            <path d="M4.11884008,7.84009988 C3.58768008,7.47378988 3.20304008,7.84015988 2.02167008,7.09836988 C1.78955008,6.92584988 1.58830008,6.71524988 1.42642008,6.47558988 C1.34621008,6.63953988 1.23413008,6.78594988 1.09673008,6.90608988 C0.858626081,7.10756988 -0.478426919,7.48302988 0.180942081,9.07650988 C0.492584081,9.07548988 0.799861081,9.00309988 1.07924008,8.86499988 C1.35861008,8.72689988 1.60267008,8.52675988 1.79273008,8.27977988 C1.72862008,8.36219988 0.876938081,9.49774988 1.43557008,10.3127999 C1.43557008,10.3127999 2.19568008,10.6241999 3.11147008,9.30545988 C2.19568008,10.6241999 2.76346008,11.2193999 2.76346008,11.2285999 C3.72504008,11.4666999 4.47600008,10.2577999 4.53094008,10.1661999 C4.36135008,10.4368999 4.25729008,10.7434999 4.22708008,11.0614999 C4.19687008,11.3793999 4.24135008,11.7000999 4.35694008,11.9977999 C6.09694008,12.0618999 5.96873008,10.6881999 6.06946008,10.3859999 C6.13510008,10.2144999 6.23128008,10.0561999 6.35336008,9.91895988 C6.07248008,9.85942988 5.80531008,9.74759988 5.56578008,9.58928988 C4.38441008,8.75591988 4.65000008,8.20641988 4.11884008,7.84009988 Z" id="路径" fill="#FF4B1F"></path>
            <path d="M9.42125008,0.110916876 C8.61536008,-0.447715124 1.06924008,1.20982988 0.528928081,2.71172988 C0.409875081,3.05056988 0.757887081,3.53591988 1.14252008,3.94801988 C1.23968008,3.63899988 1.38160008,3.34592988 1.56377008,3.07806988 C1.76236008,2.71655988 2.03980008,2.40437988 2.37550008,2.16473988 C2.71120008,1.92508988 3.09657008,1.76413988 3.50298008,1.69375988 C3.90939008,1.62338988 4.32643008,1.64544988 4.72316008,1.75825988 C5.11990008,1.87107988 5.48614008,2.07169988 5.79472008,2.34538988 C6.60977008,3.00475988 6.59147008,3.52678988 6.92115008,3.75573988 C7.25083008,3.98468988 7.72704008,3.75570988 8.63367008,4.29602988 C9.00137008,4.48566988 9.32150008,4.75593988 9.57016008,5.08660988 C9.81881008,5.41727988 9.98956008,5.79984988 10.0697001,6.20574988 C10.1498001,6.61163988 10.1372001,7.03039988 10.0329001,7.43074988 C9.92852008,7.83109988 9.73510008,8.20265988 9.46704008,8.51779988 C9.27867008,8.78037988 9.05703008,9.01742988 8.80767008,9.22297988 C9.32967008,9.43360988 9.90662008,9.58013988 10.1814001,9.34202988 C11.3810001,8.31634988 10.2363001,0.669547876 9.42125008,0.110916876 Z" id="路径" fill="#FF4B1F"></path>
            <path d="M8.79852008,7.76688988 C9.12310008,7.32367988 9.25994008,6.77038988 9.17937008,6.22697988 C9.09880008,5.68355988 8.80732008,5.19376988 8.36810008,4.86379988 C8.04388008,4.65256988 7.66527008,4.54016988 7.27831008,4.54016988 C6.89136008,4.54016988 6.51274008,4.65256988 6.18852008,4.86379988 C6.26444008,4.48554988 6.22966008,4.09345988 6.08834008,3.73448988 C5.94702008,3.37551988 5.70518008,3.06492988 5.39179008,2.83993988 C4.92283008,2.56438988 4.36693008,2.47664988 3.83590008,2.59433988 C3.30486008,2.71201988 2.83808008,3.02636988 2.52944008,3.47423988 C2.22080008,3.92210988 2.09320008,4.47031988 2.17230008,5.00845988 C2.25139008,5.54658988 2.53133008,6.03474988 2.95578008,6.37487988 C3.28000008,6.58609988 3.65862008,6.69861988 4.04557008,6.69861988 C4.43253008,6.69861988 4.81115008,6.58609988 5.13537008,6.37487988 C5.05638008,6.75451988 5.08966008,7.14895988 5.23114008,7.50999988 C5.37263008,7.87103988 5.61620008,8.18300988 5.93210008,8.40789988 C6.39736008,8.70248988 6.96049008,8.80051988 7.49790008,8.68033988 C8.03530008,8.56014988 8.50308008,8.23160988 8.79852008,7.76688988 L8.79852008,7.76688988 Z M5.55662008,5.01951988 C5.43308008,5.22376988 5.25100008,5.38611988 5.03401008,5.48557988 C4.81702008,5.58503988 4.57515008,5.61697988 4.33978008,5.57724988 C4.10441008,5.53751988 3.88642008,5.42795988 3.71410008,5.26277988 C3.54178008,5.09759988 3.42309008,4.88442988 3.37345008,4.65094988 C3.32380008,4.41746988 3.34549008,4.17448988 3.43569008,3.95348988 C3.52589008,3.73248988 3.68043008,3.54369988 3.87927008,3.41163988 C4.07811008,3.27957988 4.31206008,3.21030988 4.55074008,3.21286988 C4.78943008,3.21543988 5.02183008,3.28974988 5.21778008,3.42605988 C5.47361008,3.59277988 5.65293008,3.85412988 5.71644008,4.15280988 C5.77995008,4.45148988 5.72248008,4.76313988 5.55662008,5.01951988 L5.55662008,5.01951988 Z M6.66473008,7.14410988 C6.48960008,7.01028988 6.35757008,6.82803988 6.28501008,6.61991988 C6.21244008,6.41179988 6.20253008,6.18701988 6.25649008,5.97331988 C6.31045008,5.75962988 6.42592008,5.56643988 6.58859008,5.41771988 C6.75126008,5.26900988 6.95398008,5.17130988 7.17165008,5.13667988 C7.38931008,5.10204988 7.61236008,5.13208988 7.81315008,5.22297988 C8.01394008,5.31386988 8.18365008,5.46160988 8.30127008,5.64800988 C8.41888008,5.83440988 8.47922008,6.05121988 8.47482008,6.27157988 C8.47042008,6.49193988 8.40148008,6.70620988 8.27652008,6.88776988 C8.08857008,7.12640988 7.81473008,7.28204988 7.51353008,7.32140988 C7.21233008,7.36076988 6.90769008,7.28070988 6.66473008,7.09837988 L6.66473008,7.14410988 Z" id="形状" fill="#FF4B1F"></path>
            <path d="M20.5572001,2.50109988 C20.7331001,2.31565988 20.8311001,2.06982988 20.8311001,1.81425988 C20.8311001,1.55869988 20.7331001,1.31286988 20.5572001,1.12741988 C20.4866001,1.01752988 20.3932001,0.924023876 20.2834001,0.853196876 C20.1736001,0.782369876 20.0500001,0.735895876 19.9207001,0.716811876 C19.7915001,0.697728876 19.6596001,0.706447876 19.5341001,0.742523876 C19.4085001,0.778600876 19.2921001,0.841195876 19.1927001,0.925972876 C18.9838001,1.10812988 18.8559001,1.36581988 18.8370001,1.64232988 C18.8181001,1.91883988 18.9098001,2.19149988 19.0920001,2.40037988 C19.2741001,2.60925988 19.5318001,2.73720988 19.8083001,2.75609988 C20.0848001,2.77498988 20.3575001,2.68326988 20.5664001,2.50109988 L20.5572001,2.50109988 Z" id="路径" fill="#FF4B1F"></path>
            <path d="M15.4380001,1.44791988 C15.4598001,1.56667988 15.4348001,1.68936988 15.3682001,1.79010988 C15.3016001,1.89084988 15.1986001,1.96178988 15.0808001,1.98819988 C15.0187001,2.00910988 14.9527001,2.01585988 14.8877001,2.00798988 C14.8227001,2.00011988 14.7602001,1.97781988 14.7049001,1.94270988 C14.6496001,1.90758988 14.6029001,1.86059988 14.5681001,1.80508988 C14.5333001,1.74958988 14.5113001,1.68705988 14.5038001,1.62197988 C14.4581001,1.33807988 14.6504001,0.962523876 14.9617001,0.962523876 C15.0867001,0.971307876 15.2041001,1.02558988 15.2918001,1.11500988 C15.3796001,1.20441988 15.4316001,1.32281988 15.4380001,1.44791988 Z" id="路径" fill="#FF4B1F"></path>
            <path d="M20.3100001,9.59841988 C20.1754001,9.72662988 19.9967001,9.79818988 19.8109001,9.79818988 C19.6250001,9.79818988 19.4463001,9.72662988 19.3118001,9.59841988 C19.2382001,9.53067988 19.1809001,9.44705988 19.1444001,9.35393988 C19.1079001,9.26080988 19.0931001,9.16063988 19.1010001,9.06092988 C19.1090001,8.96122988 19.1395001,8.86459988 19.1903001,8.77843988 C19.2411001,8.69226988 19.3108001,8.61880988 19.3942001,8.56357988 C19.7422001,8.27967988 20.3924001,8.22468988 20.6213001,8.63679988 C20.6869001,8.80854988 20.6918001,8.99759988 20.6351001,9.17249988 C20.5785001,9.34739988 20.4638001,9.49769988 20.3100001,9.59841988 L20.3100001,9.59841988 Z" id="路径" fill="#FF4B1F"></path>
            <path d="M11.1246001,7.54708988 C12.5074001,6.89687988 12.8738001,5.90781988 12.4891001,5.02866988 C11.8572001,3.59087988 12.0587001,1.96988988 13.5423001,2.01567988 C14.1742001,2.01567988 14.5222001,2.65677988 14.2658001,3.43519988 C13.8994001,4.53414988 15.3464001,4.24108988 15.3830001,3.19708988 C15.3751001,2.82544988 15.5105001,2.46502988 15.7611001,2.19051988 C16.0117001,1.91600988 16.3584001,1.74846988 16.7292001,1.72267988 C17.3062001,1.66772988 17.9198001,2.18058988 17.6450001,3.11469988 C17.5260001,3.55427988 16.9032001,3.81978988 17.3703001,4.19526988 C17.8373001,4.57073988 18.2036001,3.51756988 19.2019001,3.49925988 C19.3492001,3.49240988 19.4960001,3.52126988 19.6297001,3.58331988 C19.7635001,3.64537988 19.8803001,3.73886988 19.9702001,3.85575988 C20.0602001,3.97263988 20.1205001,4.10951988 20.1462001,4.25473988 C20.1718001,4.39995988 20.1620001,4.54919988 20.1176001,4.68982988 C19.8795001,5.35834988 19.3026001,5.42243988 18.7531001,5.46822988 C18.2037001,5.51401988 18.0571001,6.47558988 18.8172001,6.26495988 C19.5773001,6.05432988 20.4840001,5.82533988 20.3832001,7.02501988 C20.3832001,7.49207988 19.7513001,7.81266988 18.7165001,7.55624988 C18.3593001,7.46466988 18.1212001,7.41886988 17.8648001,7.76686988 C17.6084001,8.11486988 17.8190001,8.32549988 18.2952001,8.91159988 C18.3842001,9.02942988 18.4433001,9.16698988 18.4676001,9.31259988 C18.4919001,9.45820988 18.4806001,9.60759988 18.4347001,9.74790988 C18.3889001,9.88821988 18.3097001,10.0153999 18.2041001,10.1184999 C18.0985001,10.2215999 17.9695001,10.2976999 17.8282001,10.3402999 C17.6627001,10.4037999 17.4852001,10.4296999 17.3084001,10.4163999 C17.1316001,10.4030999 16.9600001,10.3506999 16.8059001,10.2631999 C16.6518001,10.1755999 16.5190001,10.0549999 16.4170001,9.91000988 C16.3151001,9.76497988 16.2466001,9.59916988 16.2164001,9.42449988 C16.0332001,8.81091988 15.6028001,8.34376988 15.3006001,8.74670988 C14.9984001,9.14965988 15.8684001,9.73580988 15.7676001,10.2852999 C15.7067001,10.4349999 15.6100001,10.5673999 15.4859001,10.6710999 C15.3619001,10.7746999 15.2144001,10.8464999 15.0562001,10.8798999 C14.8981001,10.9132999 14.7342001,10.9074999 14.5788001,10.8628999 C14.4234001,10.8182999 14.2814001,10.7362999 14.1650001,10.6240999 C13.2492001,9.94643988 13.8720001,9.22292988 13.2950001,8.29798988 C12.7181001,7.37303988 11.7015001,7.97750988 11.2620001,8.00497988 C10.8224001,8.03245988 10.7949001,7.76687988 11.1246001,7.54708988 Z" id="路径" fill="#FF4B1F"></path>
        </g>
    </g>
</svg>