
<svg width="22px" height="21px" viewBox="0 0 22 21" version="1.1" xmlns="http://www.w3.org/2000/svg" xmlns:xlink="http://www.w3.org/1999/xlink">
    <g id="页面-1" stroke="none" stroke-width="1" fill="none" fill-rule="evenodd">
        <g id="league" fill-rule="nonzero">
            <path d="M9.92333026,19.4536094 C9.58286031,19.1459814 9.20076688,18.885101 8.78780167,18.6783205 C8.35817449,18.8573465 7.89635514,18.9513933 7.42906564,18.9549468 C6.33207964,18.9549468 5.39397961,18.3857645 4.85891049,17.3907675 C4.40444756,16.5529237 3.88573231,16.1135076 3.607685,16.1135076 C3.58135281,16.1135076 3.55524068,16.118164 3.53058726,16.1271704 C3.25020098,16.233042 3.08430441,16.3799021 2.95346083,16.8842013 L2.73148574,17.7448369 L2.10996932,17.0959445 C1.83654334,16.7998962 1.68256164,16.4172757 1.67654447,16.0190319 C1.63682612,15.1811268 1.94991386,14.5128736 2.6345194,13.9789818 C2.95011586,13.7276592 3.30512259,13.5273732 3.6859585,13.3858435 L3.6859585,13.3858435 C3.43924826,13.2876304 3.18639509,13.2047344 2.92892687,13.1377069 C0.371585719,12.444395 -0.0700192105,10.9747526 0.00825429644,9.86818612 C0.037560491,9.31952862 0.249739603,8.7950721 0.612586885,8.37452658 C0.975440455,7.95398107 1.46916275,7.66026091 2.0188441,7.53784687 C2.22869053,7.49293722 2.44304513,7.47118698 2.65788387,7.47296376 C3.02143536,7.47088063 3.38276734,7.52822775 3.72685262,7.64261564 C3.71984202,7.40127986 3.70699031,7.15534896 3.68712799,6.90151446 L3.6146956,5.97709856 L4.55868076,6.03518089 C4.7105247,6.04430987 4.86004225,6.04884372 5.00258064,6.04884372 L5.16731402,6.04884372 C5.12996607,5.77056317 5.12569055,5.4890354 5.15448745,5.20983582 C5.25496224,4.13059496 6.19306227,3.2290015 7.06577194,2.89659042 C7.57160403,2.70419575 7.72696899,2.42756331 7.80524878,2.07237881 L8.03895641,1 L8.69317429,1.8925135 C8.73869603,1.95285051 9.13242139,2.50838843 9.1102264,3.14475761 C9.08337863,3.91660322 8.60785246,4.55524545 8.19664775,4.88082512 C8.21224084,4.93400599 8.23588196,4.98467487 8.26675375,5.03111623 C8.86073706,4.63127939 9.41536041,4.17850676 9.92333026,3.67867396 L10.4992683,3.1242695 L11.0752693,3.67867396 C11.5839308,4.1786293 12.1388685,4.63170827 12.7330404,5.03221906 C12.7641637,4.98541009 12.7881821,4.9343736 12.8042782,4.88082512 C12.3930735,4.55524545 11.9176102,3.91660322 11.8906995,3.14475761 C11.8685046,2.51294679 12.2622299,1.95740274 12.3066199,1.8925135 L12.9608378,1 L13.1944825,2.07237881 C13.2727623,2.42756331 13.4281273,2.70419575 13.9340222,2.89659042 C14.8067319,3.2290015 15.744832,4.13059496 15.8453067,5.20983582 C15.8741036,5.4890354 15.8697652,5.77056317 15.8324173,6.04884372 L15.9924979,6.04884372 C16.136168,6.04884372 16.2868802,6.04884372 16.4399188,6.03518089 L17.3839291,5.97709856 L17.3103021,6.90151446 C17.2908107,7.15498135 17.2776069,7.40201508 17.2705649,7.64261564 C17.6154361,7.52816648 17.977598,7.47088063 18.3418977,7.47296376 C18.5567428,7.47124824 18.7710848,7.49299849 18.9808998,7.53784687 C19.5304302,7.66056725 20.0239388,7.95440995 20.3867295,8.37489419 C20.7495201,8.79537844 20.9618502,9.31958989 20.9915273,9.86818612 C21.0709389,10.9770196 20.6293654,12.444395 18.0708422,13.1377069 C17.8120473,13.2055309 17.5580309,13.289591 17.3103021,13.3892745 C17.6910123,13.5310493 18.0460064,13.7312741 18.3617664,13.9824128 C19.046353,14.5163046 19.3594722,15.1845578 19.319735,16.0224016 C19.3133846,16.4206455 19.1594658,16.8031434 18.8862724,17.0993755 L18.2647497,17.748268 L18.0427998,16.8876324 C17.9119562,16.3832718 17.7460911,16.236473 17.465667,16.1306014 C17.4406427,16.1214724 17.4141093,16.116816 17.3873873,16.1169386 C17.1105471,16.1169386 16.5918256,16.5563547 16.1373627,17.3941985 C15.5987725,18.3880314 14.6606725,18.9583779 13.5671447,18.9583779 C13.0996037,18.9543342 12.6374699,18.8603486 12.2072769,18.6817516 C11.7943117,18.888532 11.4122182,19.1493511 11.0717483,19.4569792 L10.4992683,20 L9.92333026,19.4536094 Z M17.2740859,8.7525519 C17.2881071,9.14644571 17.3138231,9.52097874 17.3394762,9.87841792 C17.5531895,9.87455802 17.7565912,9.78816974 17.9049142,9.63824624 C17.9426394,9.59646127 17.9701159,9.54689523 17.9852688,9.49322421 C18.0004847,9.43961446 18.0029368,9.38330891 17.9925624,9.32859633 C17.9318248,9.01778231 17.532252,8.80493629 17.2740859,8.753716 L17.2740859,8.7525519 Z M3.7151641,8.7525519 C3.44879902,8.80493629 3.05977045,9.01778231 2.9990203,9.32743223 C2.98862701,9.38214481 2.99112316,9.43845036 3.00629498,9.49212138 C3.02147308,9.54573113 3.04894332,9.59529718 3.08663708,9.63708215 C3.15983655,9.71133931 3.2473653,9.77083081 3.34419961,9.8120031 C3.44103392,9.85323666 3.54526236,9.87541578 3.65091179,9.87731509 C3.67661523,9.52324567 3.70114919,9.15324649 3.7151641,8.75481883 L3.7151641,8.7525519 Z" id="形状" fill="#060627"></path>
            <path d="M13.2074183,2.36440753 C13.3148412,2.85951935 13.5729326,3.28701499 14.250344,3.54718494 C14.9277554,3.80734872 15.7686582,4.54197924 15.8480468,5.46573399 C15.8992754,5.8848655 15.8517554,6.30991852 15.7090697,6.70813972 C15.9682925,6.73953603 16.2292754,6.75520335 16.4904468,6.75514166 C16.6434411,6.75514166 16.8046068,6.75514166 16.9669668,6.74021454 L17.3418467,6.71726871 L17.312681,7.08976837 C17.2407725,8.19727482 17.2576182,9.30854389 17.3629039,10.4134597 C17.3629039,10.4753887 17.3710753,10.5372561 17.3757267,10.5980132 C17.485601,10.6131871 17.5964182,10.6208974 17.7074239,10.6208974 C18.6417324,10.6208974 19.0855667,10.0226404 18.9792753,9.48396847 C18.8624867,8.86393757 18.1220296,8.49717436 17.6653725,8.49717436 L17.650161,8.49717436 C17.8627439,8.29319086 18.3731439,8.18888602 18.8379724,8.18888602 C19.0142238,8.18740564 19.1900981,8.20504679 19.3623895,8.24162442 C19.8101838,8.33939093 20.2128466,8.57890346 20.5082752,8.92333766 C20.8037666,9.26771018 20.975618,9.69788283 20.9974923,10.1475471 C21.1049152,11.6604299 20.0164181,12.5062798 18.4397096,12.9371927 C18.0691039,13.0313816 17.7091839,13.1619015 17.3652296,13.32684 C17.3309096,13.5540778 17.284521,13.7794034 17.2262525,14.0018916 C17.7149667,14.1035441 18.1709324,14.3211594 18.5541724,14.6357393 C19.1381153,15.0941625 19.3588695,15.6190792 19.3273152,16.2872224 C19.325681,16.5728733 19.2190752,16.8483466 19.0271724,17.0631245 C18.8846753,16.507305 18.6604638,16.1600334 18.1477381,15.9651788 C18.0655839,15.9348311 17.9785267,15.9192872 17.8907782,15.9193489 C17.2857782,15.9193489 16.6399211,16.6517033 16.2019325,17.4643065 C15.7347782,18.338777 14.9511383,18.7799908 14.068184,18.7799908 C13.6168069,18.7735759 13.1722183,18.6715533 12.7647784,18.4808932 L12.6899784,18.4453641 C12.156447,18.6983851 11.6633955,19.0265968 11.2266013,19.4195134 L11.0011956,19.6350315 L10.7757899,19.4195134 C10.3395613,19.0263501 9.84688704,18.6981384 9.31348135,18.4453641 L9.23993849,18.4808932 C8.83249851,18.6715533 8.3878471,18.7735759 7.93653283,18.7799908 C7.05357858,18.7799908 6.27220147,18.338777 5.80272149,17.4643065 C5.36473293,16.6517033 4.71887581,15.9193489 4.11389469,15.9193489 C4.02612098,15.9192255 3.93905756,15.9347695 3.85694728,15.9651788 C3.34422787,16.1600334 3.11997873,16.507305 2.97749417,17.0631245 C2.78558503,16.8483466 2.67902332,16.5728733 2.67733875,16.2872224 C2.64580332,15.6190792 2.87004617,15.0918803 3.44933758,14.6357393 C3.83257128,14.3218379 4.2879524,14.1042843 4.77607581,14.0018916 C4.71780724,13.7790333 4.67141239,13.5533376 4.63712382,13.3257298 C4.29355926,13.1620865 3.93445013,13.0319368 3.56496329,12.9371927 C1.98826106,12.5062798 0.899745106,11.6604299 1.0071931,10.1475471 C1.0288411,9.69782114 1.20065481,9.26758681 1.49614623,8.92315261 C1.79163764,8.57871842 2.19438848,8.33920588 2.6422959,8.24162442 C2.81457475,8.20504679 2.99044902,8.18740564 3.16669416,8.18888602 C3.63386729,8.18888602 4.14192269,8.29319086 4.35448669,8.49717436 L4.3393004,8.49717436 C3.88147413,8.49717436 3.14568102,8.86393757 3.02537874,9.48396847 C2.91909988,10.0226404 3.35940787,10.6208974 4.29725526,10.6208974 C4.4074564,10.6208974 4.51750668,10.6131871 4.62660782,10.5980132 C4.62660782,10.5384281 4.63595467,10.477671 4.6394621,10.4169139 C4.74445867,9.3119981 4.76161867,8.20072903 4.69084782,7.09322258 L4.66165067,6.72072292 L5.03536152,6.74366875 C5.19772151,6.7539697 5.35775579,6.75853419 5.51075007,6.75853419 C5.77311577,6.7588426 6.03529291,6.74274351 6.29558432,6.71042197 C6.15227004,6.31275591 6.10468719,5.88788794 6.15660719,5.4691882 C6.24184147,4.54543345 7.07689858,3.80963713 7.75430998,3.55062064 C8.43172138,3.29160415 8.68868137,2.86296122 8.79729851,2.36784323 C8.79729851,2.36784323 9.1382985,2.83659819 9.12082421,3.3248386 C9.09863564,3.9712387 8.67466423,4.4949773 8.36748139,4.72998702 C8.06029854,4.96493506 8.21216139,5.44396012 8.67579566,5.87604493 C9.44089277,5.40843109 10.1465899,4.85329002 10.7781156,4.22223648 L11.0046527,4.00218473 L11.2382927,4.22223648 C11.8692527,4.85384516 12.5750126,5.4091096 13.3405498,5.87604493 C13.807704,5.44167788 13.966544,4.9672173 13.6500583,4.72998702 C13.4295555,4.56079235 13.2474583,4.34829669 13.1153326,4.10619349 C12.9832069,3.86405946 12.9040069,3.59755474 12.8826984,3.32369131 C12.8663555,2.8354509 13.2074183,2.36669594 13.2074183,2.36669594 L13.2074183,2.36440753 Z M13.7107783,0 L12.4026584,1.79708419 C12.3127727,1.91972102 11.867807,2.5729987 11.894647,3.35234275 C11.894647,3.40506882 11.894647,3.45778872 11.9051441,3.50936132 L11.6949498,3.30650044 L10.9941556,2.63259618 L10.2934242,3.30764773 L10.090207,3.50936132 C10.090207,3.45893601 10.0983785,3.40735723 10.0995099,3.35463734 C10.1264127,2.57528712 9.68138419,1.92200943 9.59149848,1.79937877 L8.28689853,0 L7.81974426,2.16039935 C7.76832712,2.38962327 7.69358998,2.5202788 7.38527571,2.63832647 C6.40068146,3.01539063 5.28295579,4.03198347 5.16032151,5.37518431 C5.14749865,5.51162565 5.14165294,5.64226885 5.14052151,5.76945784 L5.08910437,5.76945784 L4.71535581,5.74657369 L3.57664214,5.67662592 L3.66423357,6.79178097 L3.69343071,7.16428064 C3.69343071,7.19407321 3.69343071,7.2227555 3.69343071,7.2513761 C3.51415586,7.22806018 3.3335233,7.21621717 3.1526833,7.21584707 C2.89932503,7.2139966 2.64658904,7.24052001 2.3993719,7.29492384 C1.7464685,7.44215959 1.16028167,7.79424239 0.729691399,8.29787871 C0.29910113,8.80151504 0.0475908538,9.42913286 0.0132834266,10.0856797 C-0.0296354289,10.5520599 0.0317445687,11.021956 0.193130277,11.4626146 C0.354515985,11.9032733 0.61201026,12.3040235 0.947629676,12.636923 C1.43699137,13.1240285 2.11555934,13.5079394 2.96347703,13.782981 L2.82917017,13.8838933 C2.4460119,14.1668302 2.14050106,14.5387747 1.94010621,14.966295 C1.73971136,15.3938153 1.65070565,15.8634647 1.68109079,16.333114 C1.69198393,16.8493335 1.89275592,17.3443343 2.24637134,17.7267648 L3.48904443,19.0333202 L3.93519813,17.306153 C4.00060099,17.0505413 4.05199298,16.9622739 4.11972784,16.9210084 C4.27389755,17.0161843 4.59974896,17.3279268 4.92089866,17.9250119 C5.54695578,19.0906231 6.6448186,19.7587662 7.9318814,19.7587662 C8.38149853,19.756669 8.82740708,19.6791343 9.25043564,19.5295547 C9.55001277,19.6932596 9.82809276,19.8922468 10.0785156,20.1220752 L10.3039213,20.3375933 L10.9964813,21 L11.6891041,20.3375933 L11.9145098,20.1220752 C12.1654984,19.8921235 12.4439555,19.6928278 12.7437212,19.5284444 C13.1670012,19.6785792 13.6134126,19.7561139 14.0634697,19.757656 C15.3482068,19.757656 16.4483954,19.0894511 17.0743896,17.9239016 C17.3955896,17.3267549 17.7202467,17.0150123 17.8756296,16.9198981 C17.9433267,16.9646178 17.9924182,17.0493694 18.0601153,17.304981 L18.5051438,19.0378847 L19.7466352,17.7313293 C20.1006466,17.3490839 20.3018523,16.8540831 20.3131038,16.3376785 C20.3456009,15.8671039 20.2580409,15.3960359 20.0584066,14.9669735 C19.8587724,14.5379728 19.5533495,14.1644862 19.1696695,13.8804391 C19.1264867,13.8460203 19.0820467,13.8128352 19.0365381,13.7795884 C19.8868066,13.5068291 20.5630238,13.1228565 21.0523666,12.6334688 C21.3879609,12.3006309 21.6454866,11.8998807 21.8069037,11.4592221 C21.968258,11.0185634 22.0296066,10.5486057 21.986738,10.0822255 C21.9507209,9.42617211 21.6979094,8.79941784 21.2665209,8.2968918 C20.8351952,7.79442744 20.2487381,7.44345492 19.5959667,7.29720608 C19.3487495,7.24286394 19.096001,7.21634053 18.8426238,7.21812932 C18.6610296,7.21849942 18.4796238,7.23034243 18.2995381,7.25365835 C18.2995381,7.22503774 18.2995381,7.19635545 18.2995381,7.16656288 L18.3287667,6.79406322 L18.4163896,5.67890816 L17.2776068,5.74885594 L16.9038582,5.77174009 L16.8548296,5.77174009 C16.8548296,5.6445511 16.8466582,5.5139079 16.8349668,5.37752824 C16.7100068,4.03427805 15.5934754,3.01768521 14.6159211,2.64061488 C14.3076069,2.52600909 14.2328069,2.39764197 14.1814526,2.16269393 L13.7107783,0 Z" id="形状" fill="#060627"></path>
            <path d="M18.4372393,12.409198 C20.0125526,11.9849527 21.1000865,11.1521906 20.9926959,9.66271673 C20.9709038,9.22001014 20.7992045,8.79649357 20.5039745,8.45744955 C20.2088074,8.1183448 19.8065008,7.88253826 19.35904,7.78628449 C18.8421207,7.673452 17.9482666,7.75355214 17.6483894,8.0378803 C18.103512,8.02998566 18.854995,8.39222775 18.9763275,9.00940568 C19.0930128,9.59955969 18.5375961,10.2607654 17.374198,10.1062128 C17.374198,10.0463958 17.3648405,9.98548567 17.3613236,9.92451483 C17.2561311,8.83669546 17.2393631,7.74262111 17.3111452,6.65225117 L17.3403479,6.28551521 L16.9657369,6.308106 C16.8035833,6.31824756 16.6425602,6.32280216 16.4897013,6.32280216 C16.2286982,6.32286289 15.9680091,6.30737726 15.7090156,6.27652748 C15.8515751,5.88446798 15.899053,5.46599182 15.8478698,5.05334556 C15.7615177,4.14388411 14.9283928,3.41948495 14.2515808,3.16447623 C13.5747688,2.90946752 13.3180362,2.487457 13.2095151,2 C13.2095151,2 12.8688169,2.46150189 12.8851453,2.94218773 C12.9049906,3.21065375 12.9822364,3.47222108 13.1119844,3.71034136 C13.2417323,3.94846164 13.4211563,4.15797299 13.6389519,4.32558207 C13.9551576,4.56254244 13.7941345,5.02966166 13.3297173,5.45390697 C12.5648575,4.99419655 11.8597221,4.44758448 11.2293204,3.82570013 L10.99595,3.60905325 L10.7695505,3.82570013 C10.1385836,4.4469772 9.43351094,4.99352855 8.66915364,5.45390697 C8.20234994,5.0251678 8.04484373,4.55914168 8.36104939,4.32558207 C8.67731784,4.09202246 9.09155667,3.57858605 9.1137256,2.94218773 C9.13124723,2.46150189 8.79048618,2 8.79048618,2 C8.68315838,2.487457 8.42523254,2.90833798 7.74848336,3.16447623 C7.07167137,3.42061449 6.23735318,4.14388411 6.15213152,5.05334556 C6.10032026,5.46562746 6.14779821,5.8838607 6.29098568,6.27537365 C6.03092458,6.30719508 5.76897944,6.32304507 5.5068459,6.32280216 C5.353987,6.32280216 5.19409433,6.32280216 5.0319408,6.308106 L4.65851668,6.28551521 L4.68768799,6.65225117 C4.75837738,7.74262111 4.74123257,8.83669546 4.63634147,9.92451483 C4.63634147,9.98433184 4.62817727,10.0441488 4.62351112,10.102812 C3.45661491,10.2562715 2.90583302,9.59506582 3.02369263,9.00600492 C3.14037786,8.38882699 3.89653328,8.0265849 4.35161821,8.03447953 C4.0517284,7.75015137 3.15788692,7.66440354 2.64095505,7.78288373 C2.19343769,7.87895531 1.79104323,8.11476185 1.49581329,8.4538666 C1.20058962,8.79297135 1.02892167,9.21654865 1.0072991,9.6593767 C0.899946185,11.1487899 1.98748639,11.9815519 3.56279972,12.4057972 C3.93195334,12.4990753 4.2907447,12.6272113 4.63400525,12.7883224 C4.66826348,13.0124085 4.71461728,13.234612 4.77288453,13.4540827 C4.28514909,13.5548304 3.83016463,13.7690178 3.44727632,14.0780622 C2.86382508,14.5293921 2.64445309,15.0461868 2.67596061,15.7040524 C2.6776437,15.9852228 2.78411739,16.2564944 2.97585043,16.467949 C3.1182152,15.920669 3.34225334,15.5787707 3.85451906,15.3869312 C4.52665233,15.1364285 5.29916127,15.9511544 5.79855896,16.8628628 C6.49056891,18.1322586 7.86045847,18.4741569 9.23273448,17.8637197 L9.30627506,17.8287405 C9.83914596,18.0776035 10.3313843,18.4007368 10.7672268,18.7878773 L10.9924331,19 L11.2176393,18.7878773 C11.6541099,18.4009797 12.1466622,18.0778464 12.6797843,17.8287405 L12.7544553,17.8637197 C14.1267313,18.4741569 15.4966209,18.1322586 16.1886309,16.8628628 C16.6880285,15.9489075 17.46055,15.1364285 18.1326519,15.3869312 C18.6449239,15.5787707 18.8689997,15.920669 19.011308,16.467949 C19.2031038,16.2565551 19.3092384,15.9852228 19.3100548,15.7040524 C19.3427116,15.0461868 19.1186986,14.5271452 18.5387265,14.0780622 C18.1558257,13.7683497 17.7003262,13.5541016 17.2119816,13.4540827 C17.2701986,13.2350371 17.316609,13.013198 17.3508358,12.7894763 C17.6986934,12.6274542 18.062691,12.500047 18.4372393,12.409198 L18.4372393,12.409198 Z" id="路径" fill="#F02D7D"></path>
            <path d="M6.13108738,8.13521054 C6.17167972,9.02701629 6.15147244,9.92054966 6.07052479,10.8094959 C5.97031801,12.1865226 5.89102961,13.274621 6.46690753,14.5486462 C7.074726,15.8935632 8.18126731,16.4303742 9.25041626,16.9550324 C9.85604214,17.2495011 10.4792087,17.5539184 11.0000351,18 C11.5208615,17.5571949 12.144028,17.2495011 12.7496539,16.9550324 C13.8187436,16.4325784 14.9253442,15.8935632 15.5320367,14.5486462 C16.1089813,13.274621 16.0297521,12.1865226 15.9295454,10.8094959 C15.8485977,9.92054966 15.8283904,9.02701629 15.8689828,8.13521054 C15.8117387,8.13521054 15.7588797,8.13521054 15.6983172,8.13521054 C13.9982388,8.13521054 12.5822475,7.49545757 11.0000351,6 C9.41776337,7.49545757 8.00183138,8.13521054 6.30175299,8.13521054 C6.24557556,8.13747431 6.18833147,8.13747431 6.13108738,8.13521054 Z" id="路径" fill="#FFFFFF"></path>
            <path d="M12.0838938,9.70579667 C12.3207941,9.68749887 12.5542069,9.63784243 12.7778545,9.55808926 C12.7778545,9.55808926 12.0968929,9.25560769 11.272117,8 C11.0246906,8.79721624 10.9116303,9.39864601 11.080111,10.5698314 C11.2187256,10.4035738 11.3484628,10.2301864 11.4688787,10.0504894 C11.7905584,11.916865 13.8536078,12.3823232 14.1563913,11.7058725 C14.0944396,11.7186809 14.0311562,11.7241703 13.9678729,11.7222774 C13.7631849,11.7065034 13.5647111,11.6452373 13.3870359,11.5428958 C13.3817094,11.5389208 13.377778,11.5333684 13.3756855,11.5271219 C13.3735295,11.5208123 13.3734027,11.514061 13.3752416,11.5077514 C13.3759391,11.5047228 13.3772073,11.5019466 13.3789828,11.4994859 C13.3808217,11.4970251 13.3831045,11.494943 13.3857677,11.4934287 C13.3884309,11.4918513 13.3914112,11.4909049 13.3944549,11.4905263 C13.3974986,11.4901477 13.4005423,11.4904001 13.4035225,11.4912834 C13.5759981,11.5509721 13.7570341,11.5826462 13.939592,11.585107 C14.0264639,11.5858641 14.1131456,11.5760212 14.1976079,11.5557674 C14.2776315,11.5382267 14.3513141,11.4991704 14.4107294,11.4430151 C14.4700813,11.3867967 14.5129466,11.3155614 14.5345695,11.2368809 C14.4620282,11.2543585 14.3877115,11.2634443 14.3130778,11.2638859 C14.1747802,11.2604788 14.0381314,11.2334737 13.9089649,11.1841328 C13.9031945,11.1810411 13.898629,11.1761196 13.8959024,11.1702517 C13.8931123,11.1643207 13.8923514,11.1576956 13.8936196,11.1513229 C13.8942537,11.1453288 13.8971706,11.1397764 13.9017361,11.1358013 C13.9063651,11.1318894 13.9123256,11.1298703 13.918413,11.1302489 C14.1861941,11.1706933 14.4599991,11.1374418 14.7101522,11.0340908 C14.7882735,10.9988833 14.8559955,10.9442423 14.9067237,10.8754678 C14.9575152,10.8066933 14.9896007,10.7260568 15,10.641319 C13.1784799,11.011818 12.4102659,10.2087338 12.0838938,9.70579667 Z" id="路径" fill="#F02D7D"></path>
            <path d="M13.9167923,9.70281048 C13.6802169,9.68454471 13.4471243,9.63497519 13.2237834,9.55536164 C13.2237834,9.55536164 13.9038111,9.2534096 14.7274557,8 C14.9756825,8.79582062 15.0886511,9.39619752 14.9192616,10.5653326 C14.7805838,10.4016966 14.6506446,10.2309431 14.5297607,10.0538911 C14.2085855,11.9170625 12.149569,12.3816428 11.8459977,11.7063763 C11.9082444,11.7191623 11.9718208,11.724705 12.0353973,11.7227525 C12.2394246,11.7070691 12.4373095,11.6458473 12.6142978,11.543685 C12.6195536,11.5397169 12.623543,11.5342372 12.6256327,11.5279386 C12.6277223,11.5217031 12.6279123,11.5149636 12.6260759,11.5086021 C12.6253794,11.5056418 12.6241129,11.5028074 12.6222765,11.500351 C12.6204402,11.4978946 12.6181605,11.4958161 12.615501,11.4943044 C12.6128414,11.4927928 12.6099285,11.491785 12.606889,11.4914071 C12.6038495,11.4910922 12.6007467,11.4913441 12.5978338,11.4922259 C12.4255947,11.5517471 12.2448071,11.5833658 12.0624996,11.5858222 C11.9756836,11.586641 11.8891841,11.5768153 11.8047743,11.556597 C11.7249238,11.539024 11.6513422,11.5000991 11.5920084,11.4439791 C11.5327379,11.3879221 11.4899314,11.3167485 11.4682749,11.2382687 C11.5410966,11.2557787 11.6157546,11.2647856 11.6906659,11.2651635 C11.8283938,11.2616363 11.9644754,11.2347415 12.0930847,11.1856129 C12.0987838,11.1824637 12.1034064,11.1776138 12.1061293,11.1716932 C12.1089155,11.1658355 12.1096754,11.159222 12.1083456,11.1527975 C12.1083456,11.1399485 12.0965675,11.1294299 12.0836496,11.1317604 C11.8162358,11.172197 11.5428063,11.1390037 11.2929964,11.0357706 C11.2136524,11.0007508 11.1449468,10.9457015 11.0935283,10.8761026 C11.0421732,10.8065038 11.0099417,10.7248117 11,10.6390886 C12.8249107,11.0065454 13.5885249,10.2048672 13.9167923,9.70281048 Z" id="路径" fill="#060627"></path>
            <path d="M13.9154947,13.7058188 C13.6786388,13.6875208 13.4452699,13.6378006 13.2216644,13.5580464 C13.2216644,13.5580464 13.9025614,13.255624 14.7271189,12 C14.9757033,12.7971635 15.0887424,13.3986011 14.9191521,14.5698017 C14.7805636,14.403542 14.6507874,14.2302154 14.5303941,14.0504529 C14.2088383,15.9169159 12.1473179,16.3823171 11.8434501,15.7058575 C11.9057706,15.7186662 11.9694224,15.7242187 12.0330742,15.7222627 C12.2375336,15.7067409 12.4357798,15.6449692 12.6126609,15.5417431 C12.6179864,15.5380203 12.6219805,15.5327833 12.624136,15.5266629 C12.6262281,15.5205426 12.6263549,15.5139174 12.624453,15.5077339 C12.6237556,15.5047684 12.6224876,15.501929 12.6206491,15.4994683 C12.6188105,15.4970075 12.6165282,15.4949253 12.6138655,15.493411 C12.6112028,15.4918967 12.6082864,15.4908871 12.6052433,15.4905085 C12.6022002,15.4901931 12.5990937,15.4904454 12.5961774,15.4913288 C12.4236708,15.5509552 12.2427322,15.5826297 12.0601453,15.5850905 C11.9732897,15.5859107 11.8866243,15.5760676 11.8021779,15.5558136 C11.7222961,15.5379573 11.6487541,15.4989004 11.5894134,15.4427444 C11.5300726,15.3865883 11.4872154,15.3154152 11.4652796,15.236923 C11.5381876,15.2544639 11.6129341,15.2634867 11.6879343,15.2638653 C11.8259522,15.2606473 11.9623218,15.2332634 12.0907666,15.1829753 C12.0965993,15.1801991 12.1012273,15.175593 12.1040169,15.1698512 C12.1068064,15.1641094 12.1075672,15.1575473 12.106109,15.1513639 C12.1059822,15.1482721 12.1052214,15.1452435 12.1038901,15.1424672 C12.1025587,15.1396279 12.1006568,15.1371671 12.0983744,15.1350849 C12.0960921,15.1330027 12.0934294,15.1314253 12.090513,15.1304158 C12.0875967,15.1293431 12.0844902,15.1289015 12.0813837,15.1290276 C11.813653,15.1707346 11.5395824,15.1374195 11.2897933,15.0329314 C11.2117501,14.9979127 11.1441042,14.9435234 11.0933222,14.8749373 C11.0426036,14.8063512 11.0103973,14.7259029 11,14.6413534 C12.8223189,15.0094594 13.5868382,14.2063648 13.9154947,13.7058188 Z" id="路径" fill="#060627"></path>
            <path d="M8.08452588,9.70579667 C8.32138002,9.68749887 8.55468388,9.63784243 8.77835128,9.55808926 C8.77835128,9.55808926 8.09745903,9.25560769 7.27290739,8 C7.02432466,8.79721624 6.911223,9.39864601 7.08087549,10.5698314 C7.21914606,10.4036369 7.34854095,10.2302495 7.46842617,10.0504894 C7.79004315,11.916865 9.85269021,12.3823232 10.1565558,11.7058725 C10.0942358,11.7186178 10.0305844,11.7241072 9.96693303,11.7222774 C9.76266535,11.7065034 9.56454726,11.6451742 9.38735044,11.5428958 C9.38189823,11.5389839 9.37784078,11.5334946 9.37574865,11.527185 C9.37365652,11.5208754 9.37359312,11.514061 9.37555846,11.5077514 C9.37625583,11.5047228 9.37752379,11.5019466 9.37936232,11.4994859 C9.38120086,11.4970251 9.38348318,11.494943 9.38614589,11.4934287 C9.38880859,11.4918513 9.39172489,11.4909049 9.39476799,11.4905263 C9.39781108,11.4901477 9.40091757,11.4904001 9.40383387,11.4912834 C9.57627585,11.5509721 9.75727654,11.5826462 9.93979878,11.585107 C10.0263368,11.5859272 10.1125578,11.5760843 10.1966232,11.5557674 C10.2768214,11.538416 10.3507432,11.4994859 10.4103372,11.4432675 C10.4699311,11.3870491 10.5129148,11.3156876 10.5347236,11.2368809 C10.4618162,11.2544846 10.3870702,11.2635074 10.3120706,11.2638859 C10.1741804,11.2603526 10.0379386,11.2334106 9.90917764,11.1841328 C9.90334505,11.1811673 9.89865361,11.1763089 9.89586411,11.1703779 C9.89307461,11.1644469 9.89237723,11.1576956 9.89389878,11.1513229 C9.89389878,11.1384514 9.90569077,11.1278513 9.91862391,11.1302489 C10.1863528,11.1706933 10.4601044,11.1374418 10.7102087,11.0340908 C10.7879978,10.9990726 10.8555164,10.9448102 10.9062347,10.8764773 C10.9569529,10.8081445 10.9892858,10.7280128 11,10.6437167 C9.17414368,11.011818 8.40962974,10.2087338 8.08452588,9.70579667 Z" id="路径" fill="#F02D7D"></path>
            <path d="M8.91610621,9.70579667 C8.67920587,9.68749887 8.44579309,9.63784243 8.22214547,9.55808926 C8.22214547,9.55808926 8.90310712,9.25560769 9.72788301,8 C9.97530944,8.79721624 10.0883697,9.39864601 9.91988896,10.5698314 C9.78127436,10.4035738 9.65153718,10.2301864 9.5311213,10.0504894 C9.20944158,11.916865 7.14639219,12.3823232 6.8436087,11.7058725 C6.90556042,11.7186809 6.96884376,11.7241703 7.03212709,11.7222774 C7.23681507,11.7065034 7.43528886,11.6452373 7.61296411,11.5428958 C7.61835398,11.5389839 7.6222854,11.5334315 7.62418771,11.5270588 C7.62609001,11.5207492 7.62589978,11.5139348 7.62355361,11.5077514 C7.62304633,11.5047859 7.62190494,11.5020097 7.62019287,11.499549 C7.6184808,11.4970882 7.61632485,11.4950061 7.61372503,11.4934287 C7.61118863,11.4919144 7.60833517,11.4909049 7.60535489,11.4905263 C7.60237462,11.4901477 7.59933093,11.4904001 7.59647747,11.4912834 C7.42393844,11.5507828 7.24296586,11.5823939 7.06040802,11.585107 C6.97353611,11.5858641 6.88685443,11.5760212 6.8023921,11.5557674 C6.66098746,11.5217587 6.55496568,11.4549402 6.46543054,11.2368809 C6.53797175,11.2543585 6.61228846,11.2634443 6.68692221,11.2638859 C6.8248393,11.2606049 6.96117113,11.2335999 7.08983033,11.1841328 C7.09598112,11.1813565 7.10092711,11.1765613 7.10390739,11.1706302 C7.10688767,11.1646361 7.10777541,11.1578218 7.10638038,11.1513229 C7.10574628,11.1453288 7.10282942,11.1397764 7.09826388,11.1358013 C7.09363494,11.1318894 7.08767439,11.1298703 7.08158701,11.1302489 C6.81380593,11.1706933 6.54000088,11.1374418 6.28984782,11.0340908 C6.21172651,10.9988833 6.14400446,10.9442423 6.09327634,10.8754678 C6.0424848,10.8066933 6.01039927,10.7260568 6,10.641319 C7.8227249,11.011818 8.58973414,10.2087338 8.91610621,9.70579667 Z" id="路径" fill="#060627"></path>
            <path d="M8.91610621,13.7058188 C8.67920587,13.6875208 8.44579309,13.6378006 8.22214547,13.5580464 C8.22214547,13.5580464 8.90310712,13.255624 9.72788301,12 C9.97530944,12.7971635 10.0883697,13.3986011 9.91988896,14.5698017 C9.78127436,14.403542 9.65153718,14.2302154 9.5311213,14.0504529 C9.20944158,15.9169159 7.14639219,16.3823171 6.8436087,15.7058575 C6.90556042,15.7186662 6.96884376,15.7242187 7.03212709,15.7222627 C7.2370053,15.7066778 7.43560591,15.6449692 7.61296411,15.5417431 C7.61841739,15.5381465 7.62241223,15.5327833 7.62437794,15.5265998 C7.62628024,15.5204164 7.6260266,15.5137281 7.62355361,15.5077339 C7.62304633,15.5048315 7.62190494,15.5019921 7.62019287,15.4995314 C7.6184808,15.4970706 7.61632485,15.4949884 7.61372503,15.4934741 C7.61118863,15.4918967 7.60833517,15.4909502 7.60535489,15.4905716 C7.60237462,15.4901931 7.59933093,15.4904454 7.59647747,15.4913288 C7.42393844,15.5507659 7.24296586,15.5824404 7.06040802,15.5850905 C6.97353611,15.5859107 6.88685443,15.5760676 6.8023921,15.5558136 C6.66098746,15.5218045 6.55496568,15.4537863 6.46543054,15.236923 C6.53797175,15.2544008 6.61228846,15.2634236 6.68692221,15.2638653 C6.82496612,15.2608366 6.96142477,15.2334527 7.08983033,15.1829753 C7.0958543,15.1803883 7.10080029,15.1758454 7.10378057,15.1701036 C7.10682425,15.1642987 7.107712,15.1576735 7.10638038,15.1513639 C7.10574628,15.1452435 7.10289283,15.1395648 7.09832729,15.1354004 C7.09376176,15.1312991 7.08780121,15.1290276 7.08158701,15.1290276 C6.81386934,15.1707346 6.53968383,15.1374195 6.28984782,15.0329314 C6.21178992,14.9979127 6.14413128,14.9435234 6.09340316,14.8749373 C6.04261162,14.8063512 6.01046268,14.7259029 6,14.6413534 C7.8227249,15.0094594 8.58973414,14.2063648 8.91610621,13.7058188 Z" id="路径" fill="#060627"></path>
            <path d="M12.0838938,13.7058188 C12.3207941,13.6875208 12.5542069,13.6378006 12.7778545,13.5580464 C12.7778545,13.5580464 12.0968929,13.255624 11.272117,12 C11.0246906,12.7971635 10.9116303,13.3986011 11.080111,14.5698017 C11.2187256,14.403542 11.3484628,14.2302154 11.4688787,14.0504529 C11.7905584,15.9169159 13.8536078,16.3823171 14.1563913,15.7058575 C14.0944396,15.7186662 14.0311562,15.7242187 13.9678729,15.7222627 C13.7629947,15.7066778 13.5643941,15.6449692 13.3870359,15.5417431 C13.3817094,15.5380203 13.3776512,15.5327833 13.3755586,15.5266629 C13.3734027,15.5205426 13.3733393,15.5139174 13.3752416,15.5077339 C13.3759391,15.5047684 13.3772073,15.501929 13.3789828,15.4994683 C13.3808217,15.4970075 13.3831045,15.4949253 13.3857677,15.493411 C13.3884309,15.4918967 13.3914112,15.4908871 13.3944549,15.4905085 C13.3974986,15.4901931 13.4005423,15.4904454 13.4035225,15.4913288 C13.5759981,15.5509552 13.7570341,15.5826297 13.939592,15.5850905 C14.0264639,15.5859107 14.1131456,15.5760676 14.1976079,15.5558136 C14.2775047,15.5379573 14.3510605,15.4989004 14.4104124,15.4427444 C14.4697643,15.3865883 14.512693,15.3154152 14.5345695,15.236923 C14.4620282,15.2544008 14.3877115,15.2634236 14.3130778,15.2638653 C14.1746534,15.2607735 14.0378143,15.2333896 13.9089649,15.1829753 C13.9031945,15.1801991 13.8985022,15.175593 13.8957122,15.1698512 C13.8929221,15.1641094 13.8922246,15.1575473 13.8936196,15.1513639 C13.8942537,15.1452435 13.8971072,15.1395648 13.9016727,15.1354004 C13.9062382,15.1312991 13.9121988,15.1290276 13.918413,15.1290276 C14.1859404,15.1714286 14.4600625,15.1389969 14.7101522,15.035266 C14.7882101,15.0002473 14.8558687,14.945858 14.9065968,14.8772719 C14.9573884,14.8086858 14.9895373,14.7282375 15,14.643688 C13.1784799,15.0094594 12.4102659,14.2063648 12.0838938,13.7058188 Z" id="路径" fill="#F02D7D"></path>
            <path d="M8.08579937,13.7058188 C8.32293163,13.6875208 8.55650945,13.6378006 8.78043949,13.5580464 C8.78043949,13.5580464 8.09874771,13.255624 7.27322785,12 C7.02435322,12.7971635 6.91111876,13.3986011 7.08097045,14.5698017 C7.21940339,14.4036051 7.34895022,14.2302785 7.46897621,14.0504529 C7.79097085,15.9169159 9.85603995,16.3823171 10.1602624,15.7058575 C10.0978692,15.7186031 10.034143,15.7240925 9.97041691,15.7222627 C9.76571896,15.7067409 9.56724129,15.6449692 9.39015376,15.5417431 C9.38469515,15.5381465 9.38050598,15.5329095 9.37841139,15.526726 C9.37625334,15.5206057 9.37625334,15.5139174 9.37834792,15.5077339 C9.37904612,15.5047684 9.38031556,15.501929 9.38215626,15.4994683 C9.38399695,15.4970075 9.38628195,15.4949253 9.38894778,15.493411 C9.39161362,15.4918967 9.39453334,15.4908871 9.39758001,15.4905085 C9.40062668,15.4901931 9.40373682,15.4904454 9.40665654,15.4913288 C9.57930101,15.5509552 9.76051424,15.5826297 9.94325079,15.5850905 C10.0298904,15.5859738 10.1162126,15.5761307 10.2003768,15.5558136 C10.2806057,15.5381465 10.3544874,15.4991528 10.4140878,15.4429967 C10.4736882,15.3868407 10.5168494,15.3156045 10.5388742,15.236923 C10.4658812,15.2544639 10.3910474,15.2634867 10.3159597,15.2638653 C10.1777807,15.2606473 10.0412519,15.2332634 9.91259371,15.1829753 C9.90669079,15.1803883 9.9018669,15.1757823 9.89907412,15.1699774 C9.89621787,15.1641725 9.89558315,15.1575473 9.8972969,15.1513639 C9.89742384,15.1482721 9.89818551,15.1452435 9.89951843,15.1424672 C9.90085134,15.1396279 9.90269204,15.1371671 9.90504051,15.1350849 C9.90732551,15.1330027 9.90999134,15.1314253 9.91291107,15.1304158 C9.91583079,15.1293431 9.91894093,15.1289015 9.92205107,15.1290276 C10.1883171,15.1705453 10.4609938,15.1381136 10.7098684,15.035266 C10.7880027,15.0002473 10.8557276,14.945858 10.9065054,14.8772719 C10.9573467,14.8086858 10.9895271,14.7282375 11,14.643688 C9.17669664,15.0094594 8.41128498,14.2063648 8.08579937,13.7058188 Z" id="路径" fill="#F02D7D"></path>
        </g>
    </g>
</svg>