
<svg width="22px" height="20px" viewBox="0 0 22 20" version="1.1" xmlns="http://www.w3.org/2000/svg" xmlns:xlink="http://www.w3.org/1999/xlink">
    <g id="页面-1" stroke="none" stroke-width="1" fill="none" fill-rule="evenodd">
        <g id="event" fill-rule="nonzero">
            <path d="M20.746207,9.15382066 C17.5183402,8.58198308 15.0845814,7.37023889 13.5143577,5.55048494 C13.2129858,5.20014796 12.9763962,4.86282912 12.7864986,4.55015348 L18.0337134,2.44664242 L11.5342212,0 L9.64600228,0 L9.61133767,3.79442862 C9.40638133,4.26202497 9.06129978,4.88742428 8.487158,5.55192606 C6.91693428,7.37172805 4.48317551,8.5834242 1.2553087,9.15526178 L0,9.3782035 L3.46450533,20 L18.5355436,20 L22,9.3782035 L20.7447402,9.15526178 L20.746207,9.15382066 Z" id="路径" fill="#292E35"></path>
            <path d="M11,3 C11,3 10.1086894,8.61257286 2,10.1614753 L4.67397788,19 L11,19" id="路径" fill="#EA4074"></path>
            <path d="M11,19 L17.3260221,19 L20,10.1614753 C11.8913106,8.61257286 11,3 11,3" id="路径" fill="#EA4074"></path>
            <path d="M11,3 C11,3 10.5042667,8.61257286 6,10.1614753 L7.48572029,19 L14.5142797,19 L16,10.1614753 C11.4957333,8.61257286 11,3 11,3 L11,3 Z" id="路径" fill="#FFFFFF"></path>
            <polygon id="路径" fill="#292E35" points="12 4 9 4 9 5 12 5"></polygon>
            <path d="M9.76522945,11.9853479 C9.76522945,11.9853479 10.3739096,11.9440259 10.8952771,11.7264883 C10.8952771,11.7264883 9.78530349,11.1980447 8.44327028,9 C8.03941964,10.395392 7.85605815,11.4492804 8.13105391,13.4972343 C8.3115344,13.3011455 8.76412965,12.5888623 8.76412965,12.5888623 C9.28828513,15.8530446 13.1323708,16.6694714 13.6265082,15.4854671 C13.5205154,15.5038155 13.4174036,15.5222147 13.3185668,15.5145399 C12.9633678,15.4869919 12.6311239,15.3629243 12.3733212,15.2005335 C12.3561281,15.1898091 12.3475316,15.1637859 12.3546876,15.1392875 C12.3618437,15.1162631 12.3819177,15.1024891 12.4005048,15.1101639 C12.7055651,15.2204575 12.9991944,15.2756043 13.2727497,15.2756043 C13.4216786,15.2756043 13.563498,15.2587299 13.6923994,15.2250319 C13.9215315,15.1637859 14.0962965,15.0473423 14.2423444,14.6674647 C14.119205,14.6981131 14.0003407,14.7134119 13.8799894,14.7134119 C13.6250677,14.7134119 13.4059261,14.6429663 13.2240516,14.5725207 C13.205418,14.5648459 13.193987,14.5403475 13.198262,14.5173739 C13.2025835,14.4928755 13.218336,14.4760011 13.2398041,14.4791015 C13.7253449,14.5433971 14.1850962,14.4836759 14.5288177,14.3105607 C14.7493533,14.2003179 14.9069252,14.0440771 15,13.6243515 C12.0324343,14.2677139 10.2980279,12.8630715 9.76666994,11.9869235 L9.76522945,11.9853479 Z" id="路径" fill="#EA4074"></path>
            <path d="M12.2347706,11.9853479 C12.2347706,11.9853479 11.6260904,11.9440259 11.1047694,11.7264883 C11.1047694,11.7264883 12.214743,11.1980447 13.5567297,9 C13.9605804,10.395392 14.1439418,11.4492804 13.8689461,13.4972343 C13.6884656,13.3011455 13.2359168,12.5888623 13.2359168,12.5888623 C12.7117149,15.8530446 8.86762918,16.6694714 8.37349182,15.4854671 C8.47948461,15.5038155 8.58259641,15.5222147 8.68143317,15.5145399 C9.03663215,15.4869919 9.3688761,15.3629243 9.62667881,15.2005335 C9.64387186,15.1898091 9.65246838,15.1637859 9.64531236,15.1392875 C9.63815633,15.1162631 9.61808229,15.1024891 9.59949522,15.1101639 C9.29443487,15.2204575 9.00080557,15.2756043 8.72725031,15.2756043 C8.57832138,15.2756043 8.43650201,15.2587299 8.30760065,15.2250319 C8.07846849,15.1637859 7.90375,15.0473423 7.7576556,14.6674647 C7.88079496,14.6981131 7.99970577,14.7134119 8.1200106,14.7134119 C8.37493232,14.7134119 8.59407392,14.6429663 8.77594844,14.5725207 C8.79458198,14.5648459 8.80601303,14.5403475 8.80173801,14.5173739 C8.79741651,14.4928755 8.78166397,14.4760011 8.7601959,14.4791015 C8.27465506,14.5433971 7.81495025,14.4836759 7.47118232,14.3105607 C7.25064669,14.2003179 7.09307477,14.0440771 7,13.6243515 C9.96756575,14.2677139 11.7019721,12.8630715 12.2333301,11.9869235 L12.2347706,11.9853479 Z" id="路径" fill="#292E35"></path>
            <polygon id="路径" fill="#FFFFFF" points="11.7129496 1 11 1 11 4 11.7129496 4 16 2.45325617"></polygon>
            <polygon id="路径" fill="#EA4074" points="11 4 15 2.45325617 11 1"></polygon>
            <path d="M10.5,16 C9.98040921,16.2867563 9.45319748,16.4316938 9,16.4428469 L9.15320577,19.0091709 L9.15320577,20 L11.8467942,20 L11.8467942,19.0091709 L12,16.4428469 C11.5468025,16.4316938 11.0208333,16.2867563 10.5,16 Z" id="路径" fill="#292E35"></path>
        </g>
    </g>
</svg>