
<svg width="34.71px" height="13px" viewBox="0 0 34.71 13" version="1.1" xmlns="http://www.w3.org/2000/svg" xmlns:xlink="http://www.w3.org/1999/xlink">
    <defs>
        <polygon id="path-9dzmw7-2un-1" points="0 0 34.71 0 34.71 13 0 13"></polygon>
    </defs>
    <g id="页面-1" stroke="none" stroke-width="1" fill="none" fill-rule="evenodd">
        <g id="help_octo" transform="translate(-0, 0)">
            <mask id="mask-9dzmw7-2un-2" fill="white">
                <use xlink:href="#path-9dzmw7-2un-1"></use>
            </mask>
            <g id="路径"></g>
            <g id="编组" mask="url(#mask-9dzmw7-2un-2)">
                <g transform="translate(0.0389, -0.0015)">
                    <path d="M25.1486206,7.46178652 C23.3965206,7.33268652 21.9026206,8.15341652 21.8196206,9.30613652 C21.7366206,10.4588265 23.0830206,11.4824265 24.8351206,11.6115265 C26.5872206,11.7406265 28.0904206,10.9291265 28.1734206,9.76721652 C28.2564206,8.60527652 26.9100206,7.60011652 25.1486206,7.46178652 Z M24.9365206,10.3389265 C24.0144206,10.2744265 23.2951206,9.85021652 23.3320206,9.41679652 C23.3688206,8.98336652 24.1342206,8.66060652 25.0564206,8.73438652 C25.9786206,8.80815652 26.7071206,9.22313652 26.7071206,9.65655652 C26.7071206,10.0900265 25.8495206,10.4127265 24.9365206,10.3389265 Z" id="形状" fill="#848484" fill-rule="nonzero"></path>
                    <polygon id="路径" fill="#848484" fill-rule="nonzero" points="31.9723206 3.96356652 28.6801206 3.17924652 27.9171206 6.38177652 31.2094206 7.16609652"></polygon>
                    <polygon id="路径" fill="#848484" fill-rule="nonzero" points="28.6859206 3.17895652 28.2105206 3.06568652 26.5820206 9.90133652 27.0574206 10.0146265"></polygon>
                    <g id="编组" stroke-width="1" fill="none" fill-rule="evenodd" transform="translate(11.6065, 0.6946)">
                        <path d="M9.72440456,1.80584486 C9.90140456,1.61910486 10.0001046,1.37156486 10.0001046,1.11422486 C10.0001046,0.856874857 9.90140456,0.609334857 9.72440456,0.422594857 C9.65250456,0.311164857 9.55750456,0.216533857 9.44590456,0.145143857 C9.33420456,0.0737548572 9.20840456,0.0272868572 9.07710456,0.00890685721 C8.94580456,-0.00947314279 8.81210456,0.000667857207 8.68510456,0.0386378572 C8.55810456,0.0766088572 8.44080456,0.141515857 8.34110456,0.228935857 C8.12680456,0.414534857 7.99340456,0.676434857 7.96930456,0.958894857 C7.94520456,1.24134486 8.03230456,1.52206486 8.21200456,1.74129486 C8.40760456,1.94418486 8.67370456,2.06405486 8.95530456,2.07607486 C9.23680456,2.08809486 9.51220456,1.99133486 9.72440456,1.80584486 L9.72440456,1.80584486 Z" id="路径" fill="#FF4B1F" fill-rule="nonzero"></path>
                        <path d="M4.56940456,0.745354857 C4.58150456,0.804694857 4.58190456,0.865844857 4.57030456,0.925304857 C4.55880456,0.984764857 4.53570456,1.04138486 4.50230456,1.09190486 C4.46890456,1.14243486 4.42590456,1.18588486 4.37570456,1.21977486 C4.32550456,1.25366486 4.26910456,1.27734486 4.20980456,1.28943486 C4.14730456,1.31048486 4.08080456,1.31729486 4.01530456,1.30936486 C3.94990456,1.30143486 3.88700456,1.27897486 3.83130456,1.24361486 C3.77560456,1.20826486 3.72850456,1.16090486 3.69350456,1.10501486 C3.65840456,1.04911486 3.63630456,0.986104857 3.62880456,0.920574857 C3.62880456,0.634694857 3.77630456,0.256606857 4.08990456,0.256606857 C4.21570456,0.265451857 4.33400456,0.320044857 4.42230456,0.410084857 C4.51060456,0.500124857 4.56300456,0.619384857 4.56940456,0.745354857 L4.56940456,0.745354857 Z" id="路径" fill="#FF4B1F" fill-rule="nonzero"></path>
                        <path d="M9.48460456,8.90656486 C9.34650456,9.03424486 9.16540456,9.10516486 8.97740456,9.10516486 C8.78930456,9.10516486 8.60820456,9.03424486 8.47020456,8.90656486 C8.39610456,8.83835486 8.33850456,8.75417486 8.30170456,8.66040486 C8.26490456,8.56663486 8.25000456,8.46573486 8.25800456,8.36533486 C8.26600456,8.26493486 8.29670456,8.16766486 8.34780456,8.08089486 C8.39900456,7.99413486 8.46920456,7.92013486 8.55320456,7.86451486 C8.90360456,7.57863486 9.55830456,7.52330486 9.78890456,7.93828486 C9.85410456,8.11042486 9.85950456,8.29949486 9.80430456,8.47510486 C9.74920456,8.65072486 9.63650456,8.80267486 9.48460456,8.90656486 L9.48460456,8.90656486 Z" id="路径" fill="#FF4B1F" fill-rule="nonzero"></path>
                        <path d="M0.226004555,6.88702486 C1.61850456,6.23227486 1.98730456,5.23633486 1.60000456,4.35104486 C0.963704555,2.90323486 1.16660456,1.27099486 2.66050456,1.31710486 C3.29680456,1.31710486 3.64720456,1.96262486 3.38900456,2.74646486 C3.02940456,3.85307486 4.47720456,3.54875486 4.51410456,2.50670486 C4.50390456,2.13035486 4.64070456,1.76482486 4.89550456,1.48764486 C5.15030456,1.21047486 5.50300456,1.04345486 5.87890456,1.02200486 C6.45990456,0.966674857 7.07770456,1.48309486 6.80110456,2.42370486 C6.68120456,2.86635486 6.05410456,3.13378486 6.52440456,3.51187486 C6.99470456,3.88996486 7.36360456,2.82946486 8.36880456,2.81102486 C8.52080456,2.79611486 8.67420456,2.81922486 8.81520456,2.87828486 C8.95610456,2.93733486 9.08010456,3.03048486 9.17610456,3.14935486 C9.27220456,3.26822486 9.33710456,3.40909486 9.36520456,3.55929486 C9.39330456,3.70948486 9.38360456,3.86431486 9.33700456,4.00984486 C9.08810456,4.68303486 8.50710456,4.74758486 7.95380456,4.79369486 C7.40050456,4.83979486 7.25290456,5.80808486 8.01830456,5.59598486 C8.78370456,5.38388486 9.69670456,5.15333486 9.59530456,6.36138486 C9.59530456,6.83169486 8.95900456,7.15445486 7.91690456,6.89624486 C7.55730456,6.80402486 7.31750456,6.75791486 7.06850456,7.10834486 C6.81950456,7.45876486 7.01320456,7.67086486 7.49270456,8.26105486 C7.58230456,8.37970486 7.64180456,8.51824486 7.66620456,8.66487486 C7.69070456,8.81149486 7.67940456,8.96185486 7.63320456,9.10314486 C7.58700456,9.24444486 7.50730456,9.37248486 7.40100456,9.47628486 C7.29460456,9.58018486 7.16470456,9.65678486 7.02240456,9.69968486 C6.85570456,9.76358486 6.67700456,9.78978486 6.49900456,9.77638486 C6.32100456,9.76298486 6.14820456,9.71028486 5.99300456,9.62208486 C5.83780456,9.53388486 5.70410456,9.41238486 5.60140456,9.26637486 C5.49880456,9.12033486 5.42980456,8.95336486 5.39940456,8.77747486 C5.21490456,8.15961486 4.78150456,7.68931486 4.47720456,8.09506486 C4.17290456,8.50082486 5.04890456,9.09101486 4.94750456,9.64428486 C4.88610456,9.79508486 4.78870456,9.92848486 4.66380456,10.0328849 C4.53890456,10.1371849 4.39040456,10.2093849 4.23110456,10.2430849 C4.07190456,10.2767849 3.90680456,10.2708849 3.75040456,10.2259849 C3.59390456,10.1810849 3.45090456,10.0984849 3.33370456,9.98548486 C2.41150456,9.30311486 3.03860456,8.57459486 2.45760456,7.64320486 C1.87670456,6.71180486 0.853104555,7.31122486 0.410404555,7.34810486 C-0.0321954446,7.38499486 -0.152095445,7.06223486 0.226004555,6.88702486 L0.226004555,6.88702486 Z" id="路径" fill="#FF4B1F" fill-rule="nonzero"></path>
                    </g>
                    <path d="M7.43374064,10.6064265 C7.33096064,10.5948265 7.23415064,10.5521265 7.15631064,10.4840265 C7.07846064,10.4159265 7.02330064,10.3257265 6.99822064,10.2253265 C6.97313064,10.1250265 6.97932064,10.0194265 7.01596064,9.92267652 C7.05260064,9.82595652 7.11793064,9.74274652 7.20320064,9.68420652 C6.87295064,9.62337652 6.55893064,9.49462652 6.28103064,9.30611652 C5.94746064,9.07126652 5.68496064,8.74913652 5.52230064,8.37502652 C5.35965064,8.00090652 5.30310064,7.58923652 5.35886064,7.18511652 C4.99761064,7.38231652 4.58936064,7.47709652 4.17819064,7.45921652 C3.76701064,7.44133652 3.36853064,7.31148652 3.02576064,7.08367652 C2.74073064,6.89615652 2.50126064,6.64723652 2.32491064,6.35516652 C2.30251064,6.45368652 2.25067064,6.54306652 2.17627064,6.61143652 C2.10187064,6.67979652 2.00844064,6.72391652 1.90837064,6.73792652 C1.80831064,6.75193652 1.70635064,6.73516652 1.61604064,6.68986652 C1.52573064,6.64455652 1.45133064,6.57285652 1.40274064,6.48426652 C1.16297064,6.16150652 1.34741064,5.84796652 1.03387064,5.05490652 C0.776925639,5.13419652 0.546735639,5.28262652 0.368476639,5.48395652 C0.190217639,5.68527652 0.0707556389,5.93174652 0.0231555389,6.19640652 C-0.0244443611,6.46105652 0.00165153895,6.73370652 0.0985886389,6.98452652 C0.195526639,7.23534652 0.359571639,7.45468652 0.572783639,7.61853652 C0.827536639,7.82554652 1.12548064,7.97277652 1.44467064,8.04937652 C1.76386064,8.12598652 2.09617064,8.13001652 2.41713064,8.06118652 C2.20763064,8.15714652 2.02155064,8.29760652 1.87185064,8.47278652 C1.72215064,8.64797652 1.61241064,8.85367652 1.55029064,9.07557652 C2.28802064,9.62887652 3.01654064,10.0438265 3.97560064,9.21389652 C3.56062064,10.4219265 4.22458064,10.9383265 5.00843064,11.4086265 C5.19210064,11.2689265 5.34328064,11.0911265 5.45154064,10.8873265 C5.55981064,10.6835265 5.62257064,10.4587265 5.63551064,10.2283265 C5.68019064,10.5534265 5.79907064,10.8639265 5.98297064,11.1358265 C6.16686064,11.4076265 6.41083064,11.6335265 6.69600064,11.7960265 C6.92674064,11.9329265 7.19081064,12.0034265 7.45910064,11.9998265 C7.72738064,11.9962265 7.98946064,11.9186265 8.21645064,11.7756265 C8.44344064,11.6325265 8.62652064,11.4296265 8.74550064,11.1891265 C8.86449064,10.9486265 8.91476064,10.6799265 8.89077064,10.4127265 C8.04238064,10.4127265 7.82105064,10.7078265 7.43374064,10.6064265 L7.43374064,10.6064265 Z" id="路径" fill="#FF4B1F" fill-rule="nonzero" style="mix-blend-mode: screen;"></path>
                    <path d="M9.41644064,1.11722652 C6.81591064,-0.588787478 3.76352064,-0.349023478 2.73069064,1.89185652 C2.36673064,2.60916652 2.21326064,3.41484652 2.28805064,4.21572652 C2.32560064,4.14183652 2.36876064,4.07092652 2.41715064,4.00362652 C2.58489064,3.75374652 2.80164064,3.54053652 3.05425064,3.37692652 C3.30686064,3.21331652 3.59007064,3.10272652 3.88670064,3.05184652 C4.18334064,3.00097652 4.48721064,3.01087652 4.77990064,3.08095652 C5.07259064,3.15103652 5.34800064,3.27983652 5.58942064,3.45954652 C5.91781064,3.65220652 6.18109064,3.93866652 6.34542064,4.28211652 C6.50974064,4.62555652 6.56762064,5.01029652 6.51159064,5.38688652 C6.84680064,5.18876652 7.23415064,5.09681652 7.62264064,5.12314652 C8.01113064,5.14948652 8.38252064,5.29287652 8.68792064,5.53443652 C8.95080064,5.69014652 9.17875064,5.89839652 9.35753064,6.14616652 C9.53631064,6.39393652 9.66208064,6.67591652 9.72698064,6.97447652 C9.79189064,7.27303652 9.79453064,7.58177652 9.73475064,7.88140652 C9.67498064,8.18104652 9.55406064,8.46512652 9.37955064,8.71592652 L9.18589064,8.92802652 C9.95748064,8.69231652 10.6475206,8.24505652 11.1778206,7.63698652 C12.8746206,5.81108652 11.9524206,2.88779652 9.41644064,1.11722652 L9.41644064,1.11722652 Z" id="路径" fill="#FF4B1F" fill-rule="nonzero" style="mix-blend-mode: screen;"></path>
                    <path d="M8.40200064,5.94941652 C8.14562064,5.77488652 7.84322064,5.68033652 7.53308064,5.67771652 C7.22294064,5.67509652 6.91899064,5.76452652 6.65969064,5.93469652 C6.40040064,6.10486652 6.19740064,6.34813652 6.07639064,6.63370652 C5.95538064,6.91927652 5.92180064,7.23432652 5.97989064,7.53898652 C6.03799064,7.84364652 6.18514064,8.12423652 6.40274064,8.34523652 C6.62035064,8.56624652 6.89861064,8.71773652 7.20234064,8.78055652 C7.50606064,8.84336652 7.82159064,8.81468652 8.10901064,8.69812652 C8.39642064,8.58155652 8.64281064,8.38236652 8.81698064,8.12574652 C8.93370064,7.95595652 9.01559064,7.76470652 9.05791064,7.56306652 C9.10024064,7.36141652 9.10216064,7.15338652 9.06357064,6.95099652 C9.02498064,6.74860652 8.94664064,6.55587652 8.83308064,6.38395652 C8.71953064,6.21203652 8.57301064,6.06434652 8.40200064,5.94941652 L8.40200064,5.94941652 Z M8.30979064,7.37878652 C8.16793064,7.58177652 7.95125064,7.72011652 7.70740064,7.76334652 C7.46356064,7.80658652 7.21252064,7.75117652 7.00952064,7.60932652 C6.80653064,7.46747652 6.66819064,7.25078652 6.62496064,7.00693652 C6.58172064,6.76309652 6.63713064,6.51205652 6.77898064,6.30906652 C6.92083064,6.10606652 7.13752064,5.96773652 7.38137064,5.92449652 C7.62521064,5.88126652 7.87625064,5.93666652 8.07924064,6.07851652 C8.28224064,6.22037652 8.42057064,6.43705652 8.46381064,6.68090652 C8.50704064,6.92474652 8.45164064,7.17578652 8.30979064,7.37878652 L8.30979064,7.37878652 Z" id="形状" fill="#FF4B1F" fill-rule="nonzero" style="mix-blend-mode: screen;"></path>
                    <path d="M5.31276064,3.87452652 C5.05650064,3.69884652 4.75382064,3.60327652 4.44314064,3.59994652 C4.13246064,3.59661652 3.82780064,3.68567652 3.56783064,3.85581652 C3.30787064,4.02595652 3.10432064,4.26951652 2.98303064,4.55555652 C2.86174064,4.84160652 2.82818064,5.15723652 2.88662064,5.46238652 C2.94505064,5.76753652 3.09284064,6.04844652 3.31122064,6.26944652 C3.52960064,6.49044652 3.80873064,6.64157652 4.11316064,6.70363652 C4.41759064,6.76570652 4.73360064,6.73591652 5.02107064,6.61804652 C5.30854064,6.50017652 5.55451064,6.29954652 5.72774064,6.04162652 C5.84422064,5.87256652 5.92594064,5.68203652 5.96814064,5.48112652 C6.01035064,5.28020652 6.01220064,5.07290652 5.97359064,4.87126652 C5.93497064,4.66962652 5.85667064,4.47767652 5.74322064,4.30655652 C5.62978064,4.13544652 5.48346064,3.98858652 5.31276064,3.87452652 Z M5.59863064,5.53443652 C5.45177064,5.71568652 5.24166064,5.83454652 5.01065064,5.86706652 C4.77964064,5.89957652 4.54489064,5.84332652 4.35370064,5.70964652 C4.16267064,5.58139652 4.02649064,5.38636652 3.97189064,5.16284652 C3.91729064,4.93932652 3.94822064,4.70347652 4.05860064,4.50159652 C4.20417064,4.31889652 4.41364064,4.19823652 4.64472064,4.16400652 C4.87580064,4.12976652 5.11126064,4.18450652 5.30354064,4.31716652 C5.49693064,4.44564652 5.63475064,4.64235652 5.68945064,4.86801652 C5.74415064,5.09366652 5.71172064,5.33164652 5.59863064,5.53443652 L5.59863064,5.53443652 Z" id="形状" fill="#FF4B1F" fill-rule="nonzero" style="mix-blend-mode: screen;"></path>
                </g>
            </g>
        </g>
    </g>
</svg>