
<svg width="21px" height="21px" viewBox="0 0 21 21" version="1.1" xmlns="http://www.w3.org/2000/svg" xmlns:xlink="http://www.w3.org/1999/xlink">
    <g id="页面-1" stroke="none" stroke-width="1" fill="none" fill-rule="evenodd">
        <g id="regular" fill-rule="nonzero">
            <polygon id="路径" fill="#060627" points="4.39782432 16.9679539 4.39782432 16.9665242 3.14698685 15.6501575 6.9680225 11.6289907 4.83445995 9.38368758 3.47346786 10.8159846 1 1.10526316 10.2274604 3.7068567 8.86644363 5.14053782 11.0013647 7.38441128 13.1349272 5.14053782 11.7752072 3.7068567 21 1.10526316 18.5292244 10.8159846 17.1668491 9.38368758 15.0333483 11.6289907 18.8556931 15.6501575 17.6048988 16.9665242 16.0732069 18.5783701 14.8224127 19.8947368 11.0013647 15.8735701 7.17895818 19.8947368"></polygon>
            <path d="M19.4334,1.74045841 L17.52744,9.63267807 L16.49214,8.4834909 L13.63446,11.6615056 L17.34858,15.7829674 L16.6449,16.5654989 L13.79766,13.4005387 L13.28592,13.968605 L16.13574,17.1278374 L15.43212,17.9089037 L12.58224,14.7482727 L12.0705,15.3178043 L14.91774,18.4726408 L14.2128,19.2537737 L10.5,15.1395717 L6.7872,19.2624322 L6.08352,18.4726408 L8.93082,15.3134085 L8.41776,14.7439434 L5.57178,17.9045744 L4.86816,17.1234415 L7.7154,13.9628105 L7.20234,13.4005387 L4.356396,16.5611697 L3.65274,15.7786381 L7.36554,11.6615056 L4.50912,8.49075075 L3.472584,9.63267807 L1.566582,1.7390131 L8.67882,3.85336029 L7.65012,5.00542475 L10.5,8.18350603 L13.35642,5.01268459 L12.32244,3.86205212 L19.4334,1.74770493 L19.4334,1.74045841 Z M21,0.0086984956 L19.14624,0.560833173 L12.03522,2.67518036 L10.5,3.13167155 L8.96604,2.67518036 L1.853778,0.552134677 L0,0 L0.49608,2.05927892 L2.402082,9.95291058 L2.899476,12.0107775 L4.255872,10.5021946 L4.5078,10.2239227 L5.79636,11.6542457 L2.868144,14.9076563 L2.08485,15.7771728 L2.868144,16.6466893 L3.300258,17.1263721 L4.083546,17.9958886 L4.78722,18.7769549 L5.57052,19.6464715 L6.00132,20.1246889 L6.78462,20.9942054 L7.56786,20.1246889 L10.5,16.8785382 L13.4295,20.1304835 L14.2128,21 L14.9961,20.1304835 L15.4269,19.652266 L16.2102,18.7827495 L16.91514,18.0016832 L17.69844,17.1321666 L18.12924,16.6539492 L18.91254,15.7844327 L18.12924,14.9149161 L15.20232,11.6615056 L16.49214,10.2311825 L16.74414,10.5108531 L18.10182,12.0165721 L18.5979,9.95870514 L20.50392,2.06507348 L21,0.00580121721 L21,0.0086984956 Z M9.21672,5.00542475 L9.46866,4.72428883 L10.51308,3.57221772 L11.54958,4.72428883 L11.80158,5.00402606 L10.51176,6.43581442 L9.21672,5.00542475 Z" id="形状" fill="#060627"></path>
            <polygon id="路径" fill="#CFF622" points="20 1.10526316 18.0688268 9.07466419 17.0178597 7.91445209 7.17803165 18.7894737 6.46457127 18.0009141 9.35144562 14.8113731 8.832593 14.2378568 5.94571864 17.42881 5.23231909 16.6402504 8.11913261 13.44923 7.60027999 12.8757138 4.71343605 16.0652548 4 15.2766279 13.8398341 4.40160635 12.7902054 3.23989473"></polygon>
            <polygon id="路径" fill="#FFFFFF" points="1 1.10526316 8.20981068 3.23989473 7.16018317 4.40160635 17 15.2766279 16.2865404 16.0652548 13.4010685 12.8757138 12.8822165 13.44923 15.7690267 16.638771 15.0542897 17.42881 12.1687569 14.2378568 11.6485666 14.8113731 14.5353768 18.0009141 13.8219781 18.7894737 3.9821004 7.91445209 2.93249114 9.07466419"></polygon>
            <path d="M15.4472404,10.1311614 C14.0749601,9.15653508 11.8980263,12.375561 10.5001294,12.375561 C9.10223258,12.375561 6.92529883,9.15653508 5.55178183,10.1311614 C4.17820006,11.1058551 5.50561319,14.9603749 8.02592619,15.4154074 C10.5462392,15.8704398 9.60066543,13.4368087 10.5001294,13.4368087 C11.3995935,13.4368087 10.4527241,15.8777932 12.9743327,15.4154074 C15.4959412,14.953089 16.8220529,11.108756 15.4472404,10.1311614 Z M9.59171437,13.8536576 C8.98050991,14.6536243 8.14641221,14.7695918 7.2443571,14.2426446 C7.03789377,14.1290383 6.85316033,13.9696251 6.70087449,13.7736475 C6.54864754,13.5776698 6.4318715,13.348973 6.35737746,13.100847 C6.28288342,12.8527211 6.25214359,12.5900908 6.26692462,12.32827 C6.28170565,12.0664493 6.3417131,11.8105652 6.44353144,11.5755269 C6.6998145,11.0060111 7.10343675,10.976665 7.58390859,11.1601622 C7.50876678,11.1735197 7.43780605,11.2085326 7.37773971,11.2619626 C7.31767337,11.3153927 7.27044473,11.3854184 7.24052934,11.465496 C6.98424629,12.0526195 7.21614947,12.826141 7.83118169,13.1842978 C8.44621391,13.5424545 9.00483089,13.4911158 9.39820653,12.9978997 C9.46504506,12.9283462 9.51268591,12.8380143 9.53547579,12.7379004 C9.55820677,12.6377866 9.55502679,12.5322757 9.52634806,12.4342531 C9.87102285,12.8569712 9.98120337,13.3443181 9.59171437,13.8536576 Z M13.7175064,14.2426446 C12.8205746,14.7695918 11.9812947,14.6536243 11.3688536,13.8536576 C10.993439,13.3634099 11.0818307,12.8936706 11.3983568,12.4841751 C11.3801013,12.5761936 11.3832813,12.6720573 11.4076023,12.7621868 C11.4318644,12.8523838 11.4763841,12.9336757 11.536686,12.9978997 C11.9313572,13.4911158 12.4887375,13.5424545 13.1037698,13.1842978 C13.7187431,12.826141 13.9570651,12.0570045 13.6944221,11.465496 C13.6659789,11.3883868 13.6214003,11.3204523 13.5646317,11.2677644 C13.5078631,11.2150089 13.4406713,11.1790516 13.368945,11.163063 C13.8520079,10.976665 14.2658768,11.001626 14.5221599,11.5755269 C14.6236249,11.8109025 14.6833379,12.0669889 14.6977656,12.3289446 C14.7121933,12.5909678 14.6811001,12.8535981 14.6062527,13.1016566 C14.5314054,13.3497825 14.414276,13.5784119 14.2616957,13.7742546 C14.1091743,13.9700974 13.9241464,14.1293081 13.7175064,14.2426446 L13.7175064,14.2426446 Z M12.3490539,11.6724026 C12.5130585,11.5755269 12.6770632,11.4801353 12.834649,11.390613 C12.871631,11.4068039 12.9053153,11.4313602 12.9337585,11.4629325 C12.9621428,11.4944373 12.9846971,11.5322836 12.9999492,11.5741102 C13.0748555,11.7294756 13.0955843,11.9115561 13.0579545,12.0837196 C13.0203247,12.2558831 12.9271629,12.4053793 12.7971959,12.5019852 C12.6672288,12.598591 12.5101141,12.6351555 12.3575338,12.6043253 C12.2049535,12.5734951 12.0682143,12.4775638 11.9749348,12.3358932 C11.9341839,12.2888721 11.9057996,12.2297078 11.8928441,12.165079 C11.8799475,12.1005177 11.8830686,12.0330555 11.9018541,11.9703831 C12.0454833,11.8606896 12.1948247,11.7611828 12.3490539,11.6724026 L12.3490539,11.6724026 Z M8.5858976,11.6724026 C8.74053899,11.7603733 8.89070484,11.8583959 9.03562961,11.965998 C9.05364951,12.0290077 9.05612283,12.0964699 9.04275512,12.1609638 C9.02944631,12.2254576 9.00076757,12.2844871 8.96001668,12.3315082 C8.8666783,12.4731788 8.72999793,12.56911 8.57741765,12.5999403 C8.42483736,12.630703 8.26772266,12.5941385 8.13775559,12.4975327 C8.00778851,12.4009268 7.91456791,12.251498 7.87693811,12.0793345 C7.83930832,11.907171 7.86003709,11.7250231 7.93494335,11.5696577 C7.95060771,11.528101 7.97327981,11.4905245 8.00160521,11.4590197 C8.0299895,11.4275823 8.0634971,11.4028237 8.10024357,11.386228 C8.25782938,11.4845204 8.42059739,11.5799794 8.5858976,11.6724026 Z" id="形状" fill="#060627"></path>
            <path d="M9.72412529,13.6964421 C9.04030988,14.4534242 8.10696576,14.5631604 7.09771535,14.0645277 C6.86670197,13.9570896 6.66000233,13.8062422 6.48960854,13.6207312 C6.31928065,13.4352839 6.18861907,13.2188757 6.10526712,12.9840823 C6.02191517,12.7492889 5.98745425,12.5008343 6.00405875,12.253082 C6.02059736,12.0053296 6.08774015,11.7631949 6.20166546,11.5407859 C6.48842251,11.0018719 6.93997262,10.9741027 7.47764209,11.1476762 C7.39356534,11.1603159 7.31416685,11.1935113 7.24695816,11.2440066 C7.17974948,11.2945657 7.12690501,11.3608287 7.09336655,11.4366036 C6.80667539,11.9921791 7.06615363,12.7242008 7.75431784,13.0631128 C8.44248205,13.4020247 9.06752281,13.3533808 9.5076738,12.8866666 C9.58239404,12.8208504 9.63576564,12.7353724 9.66126541,12.6406379 C9.68669928,12.5459672 9.68314118,12.4461258 9.65105232,12.3533064 C10.0367116,12.7533745 10.1599934,13.2144709 9.72412529,13.6964421 Z" id="路径" fill="#FFFFFF"></path>
            <path d="M13.9005731,14.0645472 C12.8981178,14.563148 11.9600973,14.4534188 11.2756029,13.6964852 C10.8560209,13.2326097 10.9548119,12.7881395 11.3085771,12.4006722 C11.2881739,12.4877407 11.291728,12.5784476 11.3188445,12.6637925 C11.3460268,12.7490736 11.3957843,12.8259925 11.4631806,12.8867617 C11.9042846,13.3534459 12.5272404,13.4020229 13.2145649,13.0631327 C13.9019552,12.7243063 14.1683157,11.9964807 13.8747729,11.4367916 C13.8429176,11.3638303 13.7931601,11.2996142 13.7297127,11.2496967 C13.6662654,11.199843 13.5911684,11.1658199 13.5110036,11.1506914 C14.0508986,10.9742566 14.5134588,10.9978749 14.7998934,11.5409673 C14.9132957,11.7636174 14.9800339,12.005928 14.996159,12.253856 C15.0122841,12.5017201 14.9775329,12.7502226 14.8938797,12.9850009 C14.8102266,13.2197154 14.6793171,13.436046 14.5087858,13.6213536 C14.3383204,13.8066613 14.1315241,13.9573075 13.9005731,14.0645472 L13.9005731,14.0645472 Z" id="路径" fill="#FFFFFF"></path>
            <path d="M12.3895204,12.4123307 C12.5271934,12.3248798 12.6648665,12.2387686 12.7971513,12.1578947 C12.8281957,12.1725105 12.8564718,12.1947386 12.8803483,12.2231784 C12.9041754,12.2516792 12.9231086,12.2857826 12.9359119,12.32354 C12.9987917,12.4637903 13.0161924,12.6282176 12.9846042,12.7836318 C12.953016,12.939046 12.8748118,13.0739373 12.765662,13.1611446 C12.6565616,13.248352 12.5246723,13.2813592 12.3965894,13.2535284 C12.2685065,13.2257584 12.1537707,13.1391601 12.0754181,13.0112722 C12.0412594,12.9687647 12.0173829,12.9153563 12.0065569,12.857076 C11.9957309,12.7987348 11.9983509,12.7378967 12.0141202,12.6813215 C12.1346892,12.5822998 12.2600533,12.4924738 12.3895204,12.4123307 L12.3895204,12.4123307 Z" id="路径" fill="#CFF622"></path>
            <path d="M8.60982347,12.4162891 C8.73948654,12.4957014 8.86539699,12.5841267 8.98691292,12.6812606 C9.00202217,12.7381403 9.00409599,12.7990392 8.99288749,12.8572587 C8.98172837,12.9154781 8.95768194,12.9687647 8.9235133,13.0112113 C8.84525132,13.1391601 8.73064812,13.2256975 8.60271324,13.2535284 C8.47477835,13.2813592 8.34304145,13.248352 8.2340672,13.1611446 C8.12504356,13.0739373 8.04692971,12.939046 8.01537803,12.7835709 C7.98382636,12.6281567 8.00120694,12.4637903 8.06401403,12.32354 C8.07714822,12.2860262 8.09615823,12.2521055 8.11990839,12.2236656 C8.14370794,12.1952258 8.17180325,12.1728759 8.20261427,12.1578947 C8.33474618,12.2466855 8.47122323,12.3327966 8.60982347,12.4162891 Z" id="路径" fill="#CFF622"></path>
        </g>
    </g>
</svg>