
<svg width="21px" height="21px" viewBox="0 0 21 21" version="1.1" xmlns="http://www.w3.org/2000/svg" xmlns:xlink="http://www.w3.org/1999/xlink">
    <g id="regular" stroke="none" stroke-width="1" fill="none" fill-rule="evenodd">
        <g id="regular" fill-rule="nonzero">
            <polygon id="路径" fill="#CFF622" points="21 0 18.7698751 9.45001911 17.5619502 8.08502102 6.13264613 21 5.29635559 20.0550248 8.64153457 16.2750287 8.08398234 15.6450134 4.73882856 19.4250096 3.90253801 18.4800344 7.24769179 14.7000382 6.59725199 13.9650363 3.25208981 17.7450325 2.41580766 16.8000573 13.8451034 3.88501146 12.6370945 2.52000382"></polygon>
            <polygon id="路径" fill="#FFFFFF" points="0 0 8.36288865 2.52000382 7.15491342 3.88501146 18.5842343 16.8000573 17.747927 17.7450325 14.4027816 13.9650363 13.8451874 14.7000382 17.1904168 18.4800344 16.3541094 19.4250096 13.008964 15.6450134 12.3584654 16.2750287 15.7036108 20.0550248 14.8673875 21 3.43807495 8.08502102 2.23009972 9.45001911"></polygon>
        </g>
    </g>
</svg>