<svg width="22" height="16" viewBox="0 0 22 16" fill="none" xmlns="http://www.w3.org/2000/svg">
<g clip-path="url(#clip0_5112_35971)">
<path fill-rule="evenodd" clip-rule="evenodd" d="M18.5494 5.90934C18.5508 6.68626 18.399 7.45584 18.1026 8.17402C17.8063 8.89221 17.3712 9.5449 16.8224 10.0948C16.2735 10.6446 15.6216 11.0808 14.9039 11.3785C14.1863 11.6761 13.417 11.8293 12.6401 11.8293C11.8631 11.8293 11.0938 11.6761 10.3762 11.3785C9.65855 11.0808 9.00661 10.6446 8.45774 10.0948C7.90887 9.5449 7.47381 8.89221 7.17747 8.17402C6.88112 7.45584 6.72932 6.68626 6.73072 5.90934C6.73072 5.13332 6.88359 4.36487 7.18056 3.64792C7.47753 2.93096 7.91278 2.27953 8.46152 1.73079C9.01025 1.18206 9.66169 0.746809 10.3786 0.449837C11.0956 0.152865 11.864 0 12.6401 0C14.2073 0 15.7104 0.622579 16.8186 1.73079C17.9268 2.83901 18.5494 4.34209 18.5494 5.90934V5.90934Z" fill="url(#paint0_radial_5112_35971)"/>
<path fill-rule="evenodd" clip-rule="evenodd" d="M15.3387 5.90936C15.3387 6.62607 15.0548 7.31358 14.549 7.82137C14.0432 8.32916 13.3568 8.61585 12.6401 8.61867C11.9234 8.61585 11.237 8.32916 10.7312 7.82137C10.2254 7.31358 9.9414 6.62607 9.94141 5.90936C9.94141 5.19363 10.2257 4.50719 10.7318 4.00109C11.2379 3.49499 11.9243 3.21069 12.6401 3.21069C13.3558 3.21069 14.0422 3.49499 14.5483 4.00109C15.0544 4.50719 15.3387 5.19363 15.3387 5.90936Z" fill="url(#paint1_radial_5112_35971)"/>
<path fill-rule="evenodd" clip-rule="evenodd" d="M15.6373 3.66934C15.6373 3.88718 15.5508 4.09608 15.3967 4.25011C15.2427 4.40414 15.0338 4.49067 14.816 4.49067C14.5982 4.49067 14.3892 4.40414 14.2352 4.25011C14.0812 4.09608 13.9946 3.88718 13.9946 3.66934C13.9974 3.45237 14.0848 3.24508 14.2382 3.09164C14.3917 2.93821 14.599 2.85079 14.816 2.84802C15.033 2.85079 15.2402 2.93821 15.3937 3.09164C15.5471 3.24508 15.6345 3.45237 15.6373 3.66934V3.66934Z" fill="white"/>
<path fill-rule="evenodd" clip-rule="evenodd" d="M17.1839 11.0933L18.6346 10.9973C19.7448 10.8399 20.8241 10.5125 21.8346 10.0267L21.5253 9.72799C21.3212 9.51304 21.0834 9.33289 20.8213 9.19465C20.5546 9.09865 20.1813 8.96 19.8399 8.87467C19.2746 8.72533 18.7093 8.56531 18.1653 8.38398C17.9946 8.38398 17.6853 7.85066 17.6639 7.70133C17.5999 7.32799 17.5573 6.73067 17.5146 6.54934C17.3779 6.20416 17.2101 5.8721 17.0133 5.55732C16.8639 5.71732 16.2666 6.28267 16.1919 6.37867C16.0268 6.71763 15.905 7.076 15.8293 7.44534C15.6419 7.86428 15.5508 8.31989 15.5626 8.77867C15.5626 9.32267 15.6799 9.74933 15.3279 10.208C15.1083 10.5711 14.7628 10.8406 14.3573 10.9653C14.0889 11.0997 13.8062 11.2035 13.5146 11.2747C12.9231 11.3481 12.3248 11.3481 11.7333 11.2747C11.3053 11.2209 10.9036 11.0387 10.5813 10.752L11.4559 10.432C11.3173 10.2827 11.2213 10.1973 11.1466 10.1013C10.8648 9.61931 10.6461 9.10308 10.4959 8.56532C9.88037 8.48925 9.25928 8.46783 8.63994 8.50133C8.25378 8.12986 7.91681 7.71043 7.63727 7.25331C7.28245 6.48247 6.85 5.74981 6.34662 5.06666C6.02512 4.6786 5.66801 4.32148 5.27995 3.99999C5.00262 3.74399 4.67194 3.54133 4.37328 3.30666C3.99632 3.07461 3.56659 2.9421 3.12441 2.92157C2.68224 2.90105 2.24211 2.99317 1.84528 3.18931C1.61061 3.27465 1.59994 3.616 1.67461 3.63733C1.74928 3.65866 1.95192 3.63732 2.15459 3.76532C2.35726 3.89332 2.31462 4.23466 2.31462 4.50133C2.31476 4.62501 2.33642 4.74772 2.37861 4.86399C2.53708 5.37464 2.53708 5.92133 2.37861 6.43199C2.34954 6.78808 2.24402 7.13372 2.06927 7.44534C1.94923 7.35318 1.83521 7.25342 1.72793 7.14667C1.59993 7.01867 0.970591 6.07998 0.821257 5.91998C0.671924 5.75998 0.629265 5.66399 0.629265 5.59999C0.629265 5.53599 0.725265 5.184 0.629265 5.14133C0.533265 5.09867 0.213264 5.35464 0.127931 5.45064C0.000170824 5.59793 -0.0648921 5.78934 -0.0533845 5.98398C0.0258741 6.41891 0.169678 6.83957 0.373276 7.23199C0.586609 7.69066 1.02393 8.544 1.29059 9.04534C1.34845 9.38249 1.4341 9.71428 1.54662 10.0373C1.9481 10.9184 2.46848 11.7403 3.09326 12.48C2.86471 12.7538 2.65447 13.0425 2.46393 13.344C2.6986 13.5573 3.46659 13.8347 3.81859 14.112C3.88538 13.8638 3.93176 13.6104 3.95726 13.3546C4.34126 13.728 4.73594 14.0906 5.10928 14.4213C5.4948 14.6544 5.89371 14.8645 6.30394 15.0506C7.35982 15.4996 8.4725 15.8012 9.61061 15.9467L10.5173 16C11.3282 16.0331 12.1337 15.8529 12.8533 15.4773C13.4732 15.1767 14.0537 14.8005 14.5813 14.3573C14.7345 14.2229 14.8805 14.0805 15.0186 13.9307C15.1466 14.1547 15.3173 14.4213 15.4133 14.6027C15.8601 14.3363 16.291 14.0443 16.7039 13.728C16.7999 13.664 17.3226 13.1093 17.3973 13.0347C17.3153 12.9646 17.2259 12.9038 17.1306 12.8533C16.7618 12.7705 16.4039 12.6452 16.0639 12.48C16.2905 12.1405 16.4902 11.7839 16.6613 11.4133C16.6738 11.3576 16.6973 11.3048 16.7306 11.2583C16.7638 11.2118 16.8061 11.1725 16.8549 11.1427C16.9036 11.1128 16.9579 11.0931 17.0144 11.0846C17.0709 11.0761 17.1286 11.0791 17.1839 11.0933V11.0933Z" fill="url(#paint2_linear_5112_35971)"/>
<path fill-rule="evenodd" clip-rule="evenodd" d="M4.58676 5.33335C4.58023 5.39477 4.56137 5.45424 4.53129 5.50819C4.50122 5.56214 4.46057 5.60946 4.41176 5.64732C4.36295 5.68517 4.30698 5.71277 4.24724 5.72847C4.1875 5.74417 4.12522 5.74765 4.06411 5.73869C3.79744 5.73869 3.65879 5.39736 3.68012 5.17336C3.68787 5.12123 3.70597 5.07117 3.73338 5.02616C3.76078 4.98114 3.79694 4.94207 3.83969 4.91125C3.88244 4.88043 3.93093 4.85847 3.9823 4.8467C4.03367 4.83492 4.08687 4.83357 4.13878 4.84269C4.20043 4.84543 4.26094 4.86029 4.31684 4.88644C4.37274 4.9126 4.42292 4.94953 4.46453 4.9951C4.50614 5.04068 4.53838 5.09399 4.55935 5.15204C4.58033 5.21008 4.58963 5.2717 4.58676 5.33335Z" fill="white"/>
</g>
<defs>
<radialGradient id="paint0_radial_5112_35971" cx="0" cy="0" r="1" gradientUnits="userSpaceOnUse" gradientTransform="translate(13.7155 4.87339) scale(5.92577)">
<stop offset="0.56" stop-color="#FF6200"/>
<stop offset="0.76" stop-color="#FE7808"/>
<stop offset="1" stop-color="#FD9814"/>
</radialGradient>
<radialGradient id="paint1_radial_5112_35971" cx="0" cy="0" r="1" gradientUnits="userSpaceOnUse" gradientTransform="translate(13.7155 4.87341) scale(2.7072)">
<stop stop-color="#E30E00"/>
<stop offset="0.29" stop-color="#EC1B00"/>
<stop offset="1" stop-color="#FF3700"/>
</radialGradient>
<linearGradient id="paint2_linear_5112_35971" x1="-5.14526e-05" y1="9.48266" x2="21.8453" y2="9.48266" gradientUnits="userSpaceOnUse">
<stop stop-color="#3B4D52"/>
<stop offset="0.4" stop-color="#353746"/>
<stop offset="1" stop-color="#2A1030"/>
</linearGradient>
<clipPath id="clip0_5112_35971">
<rect width="21.8453" height="16" fill="white"/>
</clipPath>
</defs>
</svg>