
<svg width="81.2694031px" height="80.2871007px" viewBox="0 0 81.2694031 80.2871007" version="1.1" xmlns="http://www.w3.org/2000/svg" xmlns:xlink="http://www.w3.org/1999/xlink">
    <g id="页面-1" stroke="none" stroke-width="1" fill="none" fill-rule="evenodd">
        <g id="文本-48FE-88AC-5B-0" fill-rule="nonzero">
            <g id="编组-2" transform="translate(0, 27.3664)" fill="#ff9900">
                <path d="M34.0734618,14.2554588 L38.4137973,16.4154942 L38.4875487,16.2354544 C37.1928232,14.2477175 36.6761843,11.6101564 36.6761843,11.6101564 L34.6168332,10.209429 L30.5112129,7.4154942 C29.1160035,10.0528342 29.5520657,13.4415196 29.5520657,13.4415196 C31.0545843,13.7467468 33.4026844,15.2963278 33.9392305,15.6561862 L33.9862494,15.6092963 C33.254992,14.075419 33.1006639,12.0719784 33.1006639,12.0719784 L33.6641321,12.3457982 C33.6173028,13.0425125 34.0666365,14.2554588 34.0666365,14.2554588 L34.0734618,14.2554588 Z" id="路径"></path>
                <path d="M39.1704561,25.3236612 L38.6969131,25.3094177 L38.7268681,19.6287074 C37.4640868,18.1313098 35.6298248,16.7848932 32.818522,15.3737704 C29.8944101,13.9050633 27.0754592,13.4154942 24.8129053,13.4154942 C23.0464138,13.4154942 21.6181368,13.7105379 20.7160895,14.0706947 C18.5663447,14.9273388 15.0482327,17.7280156 17.1155484,24.3302796 C19.1675679,30.8818774 24.6100191,32.3939255 24.6926607,32.4154942 C29.2929744,30.3707397 30.0072192,24.4454484 30.0072192,24.4454484 L29.7516462,24.2798169 C29.5035088,24.8414174 28.6615838,25.7629711 27.8273069,25.777418 C27.6694593,25.777418 27.5190472,25.7556458 27.3686352,25.683818 C25.9029677,25.042861 25.414341,22.6670471 26.2711372,21.7023559 C26.6546029,21.263046 27.1657489,20.7303396 28.6615838,20.7374613 C29.5561955,20.7374613 30.8115411,20.9462302 32.6079876,21.4791401 C34.9457475,22.177478 36.2312605,23.09191 36.9452928,23.8405071 C37.6820568,24.6108763 37.9752328,25.6189084 37.3814452,25.6044614 C37.1483915,25.6044614 36.7800095,25.4390334 36.2537798,25.0501862 C35.4195029,24.4310014 34.9457475,23.5741538 34.8106316,22.8758159 C34.209196,22.2350624 31.1047171,21.5798619 31.0295111,21.565415 C33.3747066,28.0020475 37.0806211,30.4643397 38.982441,30.457218 C39.1103338,30.457218 39.2305784,30.442771 39.3357394,30.4212023 C40.8993447,30.1043864 41.9515916,28.2972947 41.2825979,25.1006488 C40.6212524,25.258955 39.9146557,25.3596769 39.1704561,25.3381081 L39.1704561,25.3236612 Z" id="路径"></path>
                <path d="M28.2756274,0.460370222 L31.285087,5.68005393 C24.1248969,9.82861431 19.3077345,17.5811918 19.3077345,26.4603702 C19.3077345,35.3399601 24.1253434,43.0928447 31.2860825,47.2412633 L28.2756274,52.4603702 C18.9994974,47.0970615 13.2852835,37.1860439 13.2852835,26.4603702 C13.2852835,15.7346965 18.9994974,5.82367897 28.2756274,0.460370222 Z" id="形状结合" transform="translate(22.2857, 26.4604) rotate(-35) translate(-22.2857, -26.4604)"></path>
            </g>
            <g id="编组-3" transform="translate(27.2003, 24.5746)" fill="#00cc66">
                <path d="M16.2805788,27.231471 C16.1991986,26.9830749 16.1316051,26.6967914 16.0705221,26.3956085 C15.7453842,24.7536824 15.725087,22.5245027 15.7317889,21.9144742 L15.6708974,21.8919121 C14.8915622,23.3454658 13.4688447,24.4599492 13.4688447,24.4599492 L13.4688447,24.4373871 L13.3874645,23.7596722 C13.9362543,23.465939 14.6139121,22.4491538 14.6139121,22.4491538 L14.0448251,17.2072931 L13.8753628,17.2224055 C13.0420294,19.4366856 11.3211731,21.2139844 11.3211731,21.2139844 L11.3075778,24.3771505 L11.2872807,29.2048048 C13.9498496,29.2876035 16.2533882,27.2768081 16.2872807,27.2391336 L16.2805788,27.231471 Z" id="路径"></path>
                <path d="M21.0291382,32.8689415 C22.8201277,34.2387668 26.945756,35.7760105 31.7095011,30.6974432 C36.1468107,25.9687455 35.2621766,20.9774912 35.1244713,20.3144068 C35.1172991,20.2781637 35.109922,20.2561295 35.109922,20.2561295 C31.1076548,17.4291661 25.5898089,19.8263602 25.5898089,19.8263602 L25.5680875,20.1031259 C26.2713685,20.0230204 27.7504717,20.3436484 27.9246526,21.2981193 C27.9318248,21.3345683 27.9389969,21.3710173 27.9389969,21.4074664 C28.0840794,22.9595369 26.2496471,24.5696787 24.9953398,24.343777 C24.0818122,24.1763585 22.8055785,23.8775586 21.7469685,19.1414476 L21.7469685,19.1268268 C21.2250405,16.8025308 21.4061887,15.2650811 21.7180749,14.2813687 C22.0660269,13.1738942 22.9143903,12.3796344 23.1100877,13.2031358 C23.1680797,13.4216242 23.1754567,13.7712879 23.1100877,14.2667479 C22.9723823,15.2797019 22.4576265,16.1102048 21.9066001,16.5838365 C21.7906162,16.948121 21.9066001,17.7205525 22.0660269,18.4783633 C22.2836506,19.4546623 22.5807827,20.4019257 22.5807827,20.4019257 C26.3873525,15.9572012 27.2213716,12.1393178 26.8152228,10.1208231 C26.713788,9.61815574 26.5324349,9.22462959 26.2930899,8.96248474 C25.2201356,7.76007802 23.0086529,7.84759692 20.4201199,10.2958609 L20.4055706,10.2812401 C20.2098733,10.4632794 20.0141759,10.6601455 19.8111015,10.8786338 C18.6799502,12.0810406 17.8172425,13.3050696 17.2225684,14.7914494 L17.2371176,14.7914494 C16.497566,16.6276989 16.1856798,18.8863043 16.316213,22.0487225 C16.3598607,23.1125405 16.490189,24.1106678 16.6860912,25.0433104 C17.5416268,29.0726805 19.6225763,31.7905028 21.0074169,32.8543207 L21.0291382,32.8689415 Z" id="路径"></path>
                <path d="M49.5345675,10.1927505 C49.5345675,20.9108543 43.81622,30.814667 34.5342375,36.173601 C25.2522551,41.532535 13.8164819,41.5324624 4.53456754,36.1734105 L7.54570068,30.9576094 C11.0723405,32.9982633 15.1670598,34.1662395 19.5345675,34.1662395 C32.7744236,34.1662395 43.5074475,23.4329429 43.5074475,10.1927505 L49.5345675,10.1927505 Z" id="形状结合" transform="translate(27.0346, 25.1928) rotate(-35) translate(-27.0346, -25.1928)"></path>
            </g>
            <g id="编组" transform="translate(9.993, 0)" fill="#3399ff">
                <path d="M31.2901746,36.8541318 L27.4945738,39.3015862 L27.5888874,39.4230841 C29.7192329,39.1916985 31.9507512,39.7818544 31.9507512,39.7818544 L33.2922916,39.1223646 C33.8789416,37.635283 34.8024533,36.5301919 35.9553664,35.4771013 C36.137325,35.3150497 36.3126151,35.1588848 36.4945738,35.0141666 C35.3283234,34.181015 34.1620731,33.7818544 34.1620731,33.7818544 C33.1777815,34.7943912 30.8384217,35.974703 30.2990238,36.2409191 L30.3125516,36.2988063 C31.8227133,36.3161398 33.4001331,36.9409627 33.4001331,36.9409627 L32.9081778,37.2591792 C32.4091728,36.964183 31.2833154,36.8541318 31.2833154,36.8541318 L31.2901746,36.8541318 Z" id="路径"></path>
                <path d="M17.872518,37.0704898 C18.0505835,36.4289015 18.3144589,35.7662227 18.7064448,35.145528 L18.9415154,34.7759495 L24.2014983,37.7818544 C26.0617189,37.4820524 28.0645531,36.6660231 30.5804335,35.1106398 C35.2844652,32.1954048 37.1660376,28.0667698 37.4440132,26.0162498 C37.7290388,23.8681612 36.9950222,19.6975421 30.352413,18.1561535 C23.7098038,16.6147648 19.8253972,20.3322315 19.8253972,20.3322315 C19.3977579,25.0257795 24.1444931,28.4641405 24.1444931,28.4641405 L24.4081671,28.3385824 C23.9805278,27.7807653 23.5101851,26.3091531 24.3298102,25.7442401 C25.5770745,24.8793279 27.8363311,25.6326767 28.2639704,26.790295 C28.5705492,27.6272178 28.9482334,28.8339161 25.4560141,31.9862727 C23.7454572,33.5274642 22.3555793,34.1134678 21.3719889,34.3296958 C19.9680107,34.6363967 18.585183,34.0227979 20.6593239,33.1927739 C21.5857078,32.8231954 22.5408963,32.8580836 23.2108577,33.0881093 C24.0518346,32.9138653 26.1330257,30.6820056 26.1330257,30.6820056 C19.0627772,29.3639409 15.1284156,31.4911361 14.6010677,33.0743117 C14.1520768,34.4341633 15.1000138,36.0662219 17.8795681,37.0844845 L17.872518,37.0704898 Z" id="路径"></path>
                <path d="M34.5342375,14.2118999 C43.81622,19.570834 49.5345675,29.4746466 49.5345675,40.1927505 L43.5074475,40.1927505 C43.5074475,26.9525581 32.7744236,16.2192615 19.5345675,16.2192615 C15.1670598,16.2192615 11.0723405,17.3872376 7.54570068,19.4278915 L4.53456754,14.2120905 C13.8164819,8.85303856 25.2522551,8.85296592 34.5342375,14.2118999 Z" id="形状结合" transform="translate(27.0346, 25.1928) rotate(-35) translate(-27.0346, -25.1928)"></path>
            </g>
        </g>
    </g>
</svg>