
<svg width="28.8226094px" height="11.9999397px" viewBox="0 0 28.8226094 11.9999397" version="1.1" xmlns="http://www.w3.org/2000/svg" xmlns:xlink="http://www.w3.org/1999/xlink">
    <g id="页面-1" stroke="none" stroke-width="1" fill="none" fill-rule="evenodd">
        <g id="helped_squid" fill-rule="nonzero">
            <path d="M5.30773406,9.43015784 C5.43497406,11.0332878 7.53006406,12.1868878 9.99837406,11.9747878 C12.4667041,11.7627878 14.3667041,10.3377878 14.2395041,8.73466784 C14.1122041,7.13153784 12.0171041,5.97795784 9.54882406,6.19001784 C7.08051406,6.40206784 5.21443406,7.82702784 5.30773406,9.43015784 Z M7.43676406,9.26893784 C7.38587406,8.64125784 8.39525406,8.05605784 9.69302406,7.95426784 C10.9908041,7.85248784 12.0680041,8.29356784 12.1189041,8.92124784 C12.1698041,9.54892784 11.1604041,10.1340878 9.86265406,10.2273878 C8.56488406,10.3206878 7.51310406,9.89661784 7.46221406,9.26893784 L7.43676406,9.26893784 Z" id="形状" fill="#848484"></path>
            <polygon id="路径" fill="#848484" points="1.07327406 5.76080784 5.70221406 4.65803784 4.62893406 0.152890839 0 1.25565784"></polygon>
            <polygon id="路径" fill="#848484" points="6.91857406 9.77194784 7.58691406 9.61271784 5.29684406 0 4.62849406 0.159222839"></polygon>
            <path d="M25.8345041,8.62440784 C26.2247041,8.36146784 26.5300041,8.62439784 27.3613041,8.08153784 C27.5304041,7.95777784 27.6767041,7.80565784 27.7939041,7.63195784 C27.8519041,7.75102784 27.9326041,7.85762784 28.0314041,7.94579784 C28.2095041,8.08999784 29.1765041,8.36140784 28.6845041,9.52346784 C28.4582041,9.52348784 28.2350041,9.47147784 28.0320041,9.37146784 C27.8291041,9.27145784 27.6518041,9.12617784 27.5140041,8.94673784 C27.5649041,9.00611784 28.1841041,9.79494784 27.7684041,10.4225878 C27.7684041,10.4225878 27.2171041,10.6516878 26.5555041,9.68467784 C27.2171041,10.6516878 26.8100041,11.0841878 26.8100041,11.0841878 C26.1059041,11.2622878 25.5631041,10.3801878 25.5207041,10.3123878 C25.6475041,10.5090878 25.7266041,10.7325878 25.7516041,10.9652878 C25.7767041,11.1979878 25.7469041,11.4332878 25.6649041,11.6524878 C24.4010041,11.6524878 24.4943041,10.6939878 24.4180041,10.4819878 C24.3730041,10.3540878 24.3039041,10.2359878 24.2144041,10.1341878 C24.4202041,10.0928878 24.6160041,10.0122878 24.7912041,9.89673784 C25.6055041,9.28601784 25.4443041,8.88735784 25.8345041,8.62440784 Z" id="路径" fill="#848484"></path>
            <path d="M21.9751041,3.00078784 C22.5604041,2.59364784 28.0483041,3.84898784 28.4385041,4.89229784 C28.5233041,5.13827784 28.2774041,5.49447784 27.9974041,5.79135784 C27.9250041,5.56909784 27.8222041,5.35788784 27.6921041,5.16367784 C27.5450041,4.90241784 27.3417041,4.67704784 27.0969041,4.50380784 C26.8522041,4.33056784 26.5721041,4.21383784 26.2768041,4.16190784 C25.9814041,4.10998784 25.6783041,4.12416784 25.3891041,4.20353784 C25.1000041,4.28290784 24.8320041,4.42539784 24.6046041,4.62080784 C24.0193041,5.10429784 24.0363041,5.46909784 23.7564041,5.64721784 C23.4765041,5.82534784 23.1711041,5.64719784 22.5095041,6.04585784 C22.2466041,6.18714784 22.0183041,6.38495784 21.8410041,6.62507784 C21.6638041,6.86518784 21.5420041,7.14161784 21.4844041,7.43445784 C21.4268041,7.72730784 21.4348041,8.02934784 21.5080041,8.31870784 C21.5811041,8.60807784 21.7175041,8.87757784 21.9073041,9.10790784 C22.0414041,9.30381784 22.2044041,9.47825784 22.3908041,9.62530784 C22.0091041,9.77798784 21.5849041,9.88823784 21.3898041,9.71859784 C20.5755041,8.96368784 21.4238041,3.40793784 21.9751041,3.00078784 Z" id="路径" fill="#848484"></path>
            <path d="M24.5113041,9.01455784 C24.4493041,8.73887784 24.4711041,8.45095784 24.5740041,8.18776784 C24.6768041,7.92458784 24.8561041,7.69814784 25.0886041,7.53762784 C25.3212041,7.37711784 25.5964041,7.28979784 25.8790041,7.28695784 C26.1616041,7.28410784 26.4385041,7.36587784 26.6743041,7.52168784 C26.9566041,7.26759784 27.1365041,6.91931784 27.1804041,6.54206784 C27.2243041,6.16482784 27.1291041,5.78448784 26.9127041,5.47237784 C26.6963041,5.16026784 26.3736041,4.93775784 26.0049041,4.84656784 C25.6362041,4.75537784 25.2469041,4.80178784 24.9100041,4.97703784 C24.6795041,5.13952784 24.5014041,5.36566784 24.3975041,5.62779784 C24.2935041,5.88991784 24.2683041,6.17664784 24.3247041,6.45292784 C24.0881041,6.30093784 23.8128041,6.22015784 23.5316041,6.22015784 C23.2504041,6.22015784 22.9751041,6.30093784 22.7385041,6.45292784 C22.4677041,6.71156784 22.2984041,7.05857784 22.2610041,7.43118784 C22.2236041,7.80379784 22.3208041,8.17746784 22.5348041,8.48472784 C22.7489041,8.79198784 23.0658041,9.01254784 23.4282041,9.10659784 C23.7907041,9.20065784 24.1749041,9.16198784 24.5113041,8.99756784 L24.5113041,9.01455784 Z M25.0287041,5.37566784 C25.1118041,5.27341784 25.2176041,5.19191784 25.3376041,5.13762784 C25.4576041,5.08333784 25.5887041,5.05781784 25.7203041,5.06297784 C25.8520041,5.06812784 25.9806041,5.10383784 26.0960041,5.16734784 C26.2114041,5.23085784 26.3105041,5.32044784 26.3853041,5.42888784 C26.4601041,5.53733784 26.5086041,5.66165784 26.5270041,5.79211784 C26.5454041,5.92256784 26.5331041,6.05550784 26.4912041,6.18039784 C26.4493041,6.30529784 26.3789041,6.41868784 26.2855041,6.51162784 C26.1921041,6.60457784 26.0784041,6.67457784 25.9533041,6.71591784 C25.7791041,6.83734784 25.5657041,6.88904784 25.3553041,6.86077784 C25.1448041,6.83250784 24.9526041,6.72628784 24.8167041,6.56319784 C24.7520041,6.47151784 24.7062041,6.36788784 24.6818041,6.25836784 C24.6575041,6.14884784 24.6551041,6.03561784 24.6748041,5.92516784 C24.6945041,5.81472784 24.7360041,5.70927784 24.7967041,5.61495784 C24.8575041,5.52063784 24.9363041,5.43930784 25.0287041,5.37566784 L25.0287041,5.37566784 Z M22.8064041,7.92031784 C22.6771041,7.73247784 22.6276041,7.50099784 22.6690041,7.27670784 C22.7103041,7.05240784 22.8391041,6.85365784 23.0270041,6.72430784 C23.2148041,6.59495784 23.4463041,6.54554784 23.6706041,6.58690784 C23.8949041,6.62826784 24.0936041,6.75700784 24.2229041,6.94484784 C24.3422041,7.13218784 24.3833041,7.35886784 24.3373041,7.57614784 C24.2913041,7.79342784 24.1619041,7.98397784 23.9770041,8.10690784 C23.7930041,8.23216784 23.5672041,8.28013784 23.3483041,8.24046784 C23.1293041,8.20080784 22.9347041,8.07667784 22.8064041,7.89484784 L22.8064041,7.92031784 Z" id="形状" fill="#848484"></path>
            <path d="M13.8831041,4.73951784 C13.7535041,4.60513784 13.6812041,4.42576784 13.6812041,4.23909784 C13.6812041,4.05242784 13.7535041,3.87305784 13.8831041,3.73867784 C13.9368041,3.66154784 14.0058041,3.59621784 14.0858041,3.54681784 C14.1658041,3.49741784 14.2550041,3.46496784 14.3481041,3.45145784 C14.4411041,3.43793784 14.5359041,3.44363784 14.6266041,3.46822784 C14.7174041,3.49282784 14.8021041,3.53579784 14.8755041,3.59444784 C15.0315041,3.72778784 15.1293041,3.91667784 15.1483041,4.12095784 C15.1673041,4.32523784 15.1060041,4.52886784 14.9773041,4.68867784 C14.8304041,4.82512784 14.6399041,4.90508784 14.4395041,4.91439784 C14.2392041,4.92371784 14.0421041,4.86174784 13.8831041,4.73951784 L13.8831041,4.73951784 Z" id="路径" fill="#FF4B1F"></path>
            <path d="M17.5983041,4.01855784 C17.5832041,4.10496784 17.6022041,4.19388784 17.6512041,4.26663784 C17.7002041,4.33938784 17.7755041,4.39027784 17.8613041,4.40869784 C17.9059041,4.42430784 17.9535041,4.42960784 18.0005041,4.42422784 C18.0475041,4.41885784 18.0927041,4.40302784 18.1326041,4.37773784 C18.1726041,4.35245784 18.2064041,4.31839784 18.2313041,4.27823784 C18.2563041,4.23807784 18.2719041,4.19283784 18.2769041,4.14580784 C18.2769041,3.94223784 18.1751041,3.66226784 17.9461041,3.66226784 C17.8545041,3.66843784 17.7683041,3.70825784 17.7042041,3.77398784 C17.6400041,3.83971784 17.6023041,3.92677784 17.5983041,4.01855784 Z" id="路径" fill="#FF4B1F"></path>
            <path d="M14.0528041,9.87128784 C14.1518041,9.96370784 14.2821041,10.0150878 14.4175041,10.0150878 C14.5530041,10.0150878 14.6833041,9.96370784 14.7823041,9.87128784 C14.8356041,9.82168784 14.8770041,9.76061784 14.9034041,9.69277784 C14.9298041,9.62493784 14.9405041,9.55206784 14.9348041,9.47948784 C14.9291041,9.40690784 14.9071041,9.33651784 14.8704041,9.27364784 C14.8337041,9.21076784 14.7833041,9.15702784 14.7229041,9.11636784 C14.4685041,8.91278784 14.0019041,8.87881784 13.8323041,9.17569784 C13.7879041,9.29978784 13.7854041,9.43502784 13.8252041,9.56065784 C13.8651041,9.68629784 13.9450041,9.79545784 14.0528041,9.87128784 L14.0528041,9.87128784 Z" id="路径" fill="#FF4B1F"></path>
            <path d="M20.7368041,8.40383784 C19.7274041,7.93731784 19.4644041,7.21630784 19.7443041,6.57165784 C20.2024041,5.52835784 20.0582041,4.34927784 18.9725041,4.39168784 C18.5144041,4.39168784 18.2685041,4.85827784 18.4551041,5.41809784 C18.7180041,6.22390784 17.6662041,6.00330784 17.6068041,5.24838784 C17.6162041,4.97811784 17.5193041,4.71495784 17.3370041,4.51520784 C17.1547041,4.31545784 16.9014041,4.19498784 16.6314041,4.17962784 C16.2073041,4.12873784 15.7832041,4.51048784 15.9444041,5.18905784 C16.0292041,5.50289784 16.4787041,5.69802784 16.1394041,5.96945784 C15.8001041,6.24088784 15.5372041,5.47741784 14.8247041,5.46893784 C14.7185041,5.46463784 14.6127041,5.48504784 14.5157041,5.52857784 C14.4186041,5.57210784 14.3330041,5.63759784 14.2656041,5.71981784 C14.1982041,5.80203784 14.1508041,5.89882784 14.1271041,6.00248784 C14.1034041,6.10614784 14.1041041,6.21380784 14.1292041,6.31715784 C14.3073041,6.80063784 14.7229041,6.84308784 15.1216041,6.88549784 C15.5202041,6.92790784 15.6305041,7.61500784 15.0792041,7.46232784 C14.5278041,7.30964784 13.8662041,7.13991784 13.9341041,8.01358784 C13.9341041,8.35286784 14.4006041,8.58194784 15.1470041,8.39534784 C15.4100041,8.33596784 15.5796041,8.29350784 15.7662041,8.55645784 C15.9528041,8.81940784 15.7662041,8.95511784 15.4609041,9.40467784 C15.3894041,9.48712784 15.3404041,9.58657784 15.3185041,9.69344784 C15.2965041,9.80032784 15.3025041,9.91102784 15.3357041,10.0149878 C15.3689041,10.1188878 15.4283041,10.2124878 15.5082041,10.2868878 C15.5880041,10.3611878 15.6856041,10.4137878 15.7917041,10.4394878 C15.9123041,10.4918878 16.0435041,10.5154878 16.1749041,10.5083878 C16.3062041,10.5013878 16.4341041,10.4638878 16.5485041,10.3988878 C16.6629041,10.3338878 16.7605041,10.2431878 16.8338041,10.1338878 C16.9071041,10.0246878 16.9539041,9.89991784 16.9707041,9.76944784 C17.0979041,9.31989784 17.4118041,8.98054784 17.6323041,9.27741784 C17.8528041,9.57429784 17.2167041,9.98996784 17.2930041,10.3885878 C17.3354041,10.4986878 17.4044041,10.5964878 17.4938041,10.6732878 C17.5833041,10.7500878 17.6904041,10.8034878 17.8055041,10.8286878 C17.9207041,10.8538878 18.0403041,10.8500878 18.1537041,10.8176878 C18.2670041,10.7852878 18.3706041,10.7253878 18.4551041,10.6431878 C19.1336041,10.1511878 18.6756041,9.61679784 19.0912041,8.94670784 C19.5069041,8.27661784 20.2533041,8.70920784 20.5671041,8.73464784 C20.8810041,8.76009784 21.0082041,8.53106784 20.7368041,8.40383784 Z" id="路径" fill="#FF4B1F"></path>
        </g>
    </g>
</svg>