
<svg width="29.2420798px" height="12.0000296px" viewBox="0 0 29.2420798 12.0000296" version="1.1" xmlns="http://www.w3.org/2000/svg" xmlns:xlink="http://www.w3.org/1999/xlink">
    <g id="页面-1" stroke="none" stroke-width="1" fill="none" fill-rule="evenodd">
        <g id="helped_octo" fill-rule="nonzero">
            <path d="M5.35397787,9.43079427 C5.47269787,11.0335943 7.57579787,12.1868943 10.0435079,11.9748943 C12.5113079,11.7628943 14.4109079,10.3381943 14.2837079,8.73541427 C14.1565079,7.13265427 12.0703079,5.97933427 9.60257787,6.19134427 C7.13482787,6.40335427 5.23525787,7.82803427 5.35397787,9.43079427 L5.35397787,9.43079427 Z M7.48251787,9.27815427 C7.43163787,8.65061427 8.44077787,8.05699427 9.73825787,7.96371427 C11.0357079,7.87043427 12.1127079,8.29444427 12.1636079,8.92198427 C12.2145079,9.54951427 11.1969079,10.1346943 9.90785787,10.2363943 C8.61886787,10.3381943 7.52491787,9.89720427 7.48251787,9.27815427 Z" id="形状" fill="#848484"></path>
            <polygon id="路径" fill="#848484" points="1.07303787 5.77629427 5.70093787 4.67377427 4.62789787 0.16962327 0 1.27214427"></polygon>
            <polygon id="路径" fill="#848484" points="6.92357787 9.76970427 7.59177787 9.61051427 5.30222787 0 4.63402787 0.15918727"></polygon>
            <g id="编组" transform="translate(13.6941, 3.4463)" fill="#FF4B1F">
                <path d="M0.1995,1.3034071 C0.0713,1.1666671 0,0.986267102 0,0.798837102 C0,0.611407102 0.0713,0.431007102 0.1995,0.294257102 C0.2532,0.217147102 0.3222,0.151877102 0.4022,0.102497102 C0.4821,0.0531071019 0.5714,0.0206571019 0.6644,0.00713710192 C0.7574,-0.00637289808 0.8521,-0.000662898082 0.9429,0.0239271019 C1.0336,0.0485171019 1.1183,0.0914571019 1.1917,0.150097102 C1.3463,0.284587102 1.4425,0.473977102 1.46,0.678177102 C1.4774,0.882367102 1.4146,1.0853171 1.285,1.2440471 C1.1397,1.3795271 0.9514,1.4596871 0.753,1.4705371 C0.5546,1.4813871 0.3587,1.4222371 0.1995,1.3034071 L0.1995,1.3034071 Z" id="路径"></path>
                <path d="M3.9223,0.531697102 C3.907,0.619137102 3.9256,0.709137102 3.9745,0.783247102 C4.0234,0.857357102 4.0988,0.909957102 4.1852,0.930277102 C4.2305,0.945967102 4.2787,0.951087102 4.3263,0.945227102 C4.3738,0.939377102 4.4194,0.922717102 4.4595,0.896517102 C4.4996,0.870327102 4.5332,0.835287102 4.5577,0.794097102 C4.5822,0.752907102 4.5969,0.706667102 4.6007,0.658907102 C4.6007,0.455377102 4.499,0.175527102 4.27,0.184017102 C4.1798,0.189977102 4.0947,0.228527102 4.0308,0.292487102 C3.9668,0.356437102 3.9283,0.441447102 3.9223,0.531697102 L3.9223,0.531697102 Z" id="路径"></path>
                <path d="M0.3776,6.4254571 C0.4774,6.5160371 0.6074,6.5661971 0.7422,6.5661971 C0.877,6.5661971 1.007,6.5160371 1.1069,6.4254571 C1.1602,6.3758671 1.2015,6.3148871 1.228,6.2470571 C1.2544,6.1792371 1.2651,6.1063171 1.2594,6.0337571 C1.2537,5.9611971 1.2317,5.8908671 1.195,5.8279971 C1.1583,5.7651371 1.1079,5.7113771 1.0475,5.6707171 C0.987,5.6130071 0.9153,5.5683371 0.8368,5.5394771 C0.7583,5.5106271 0.6748,5.4981971 0.5913,5.5029671 C0.5078,5.5077371 0.4262,5.5296071 0.3515,5.5672071 C0.2768,5.6048171 0.2106,5.6573671 0.1571,5.7216071 C0.1075,5.8464071 0.1023,5.9844871 0.1425,6.1126471 C0.1826,6.2408071 0.2656,6.3512671 0.3776,6.4254571 L0.3776,6.4254571 Z" id="路径"></path>
                <path d="M7.0515,4.9668571 C6.0509,4.4919571 5.8219,3.7711371 6.0678,3.1351171 C6.5258,2.0835771 6.3816,0.913297102 5.2961,0.947217102 C4.8382,0.947217102 4.5838,1.4136371 4.7703,1.9733271 C5.0417,2.8213571 3.9902,2.5584671 3.9223,1.8037271 C3.9272,1.5332871 3.8278,1.2713571 3.6446,1.0723571 C3.4614,0.873367102 3.2085,0.752617102 2.9386,0.735217102 C2.5231,0.735217102 2.0906,1.0659471 2.2602,1.7443671 C2.345,2.0581371 2.7945,2.2531771 2.4552,2.5330271 C2.116,2.8128771 1.8531,2.0411671 1.1323,2.0242071 C1.0263,2.0194871 0.9206,2.0397071 0.8238,2.0832571 C0.727,2.1268071 0.6418,2.1924571 0.575,2.2749471 C0.5081,2.3574271 0.4616,2.4544371 0.4391,2.5581771 C0.4166,2.6619171 0.4188,2.7694871 0.4454,2.8722371 C0.6235,3.3556071 1.039,3.4064871 1.4376,3.4404071 C1.8362,3.4743271 1.938,4.1697071 1.3867,4.0170671 C0.8355,3.8644171 0.1825,3.7032971 0.2504,4.5682771 C0.2504,4.9074871 0.7168,5.1449371 1.4631,4.9583671 C1.7259,4.8905271 1.8955,4.8566071 2.0821,5.1110171 C2.2687,5.3654271 2.0821,5.5095871 1.7683,5.9590371 C1.6969,6.0420471 1.6481,6.1420871 1.6267,6.2494771 C1.6053,6.3568671 1.612,6.4679671 1.6461,6.5719971 C1.6802,6.6760971 1.7406,6.7695971 1.8215,6.8433971 C1.9023,6.9172971 2.0009,6.9689971 2.1076,6.9935971 C2.2282,7.0459971 2.3594,7.0695971 2.4907,7.0624971 C2.622,7.0554971 2.7499,7.0179971 2.8642,6.9529971 C2.9785,6.8879971 3.0762,6.7972971 3.1495,6.6880971 C3.2227,6.5788971 3.2696,6.4541271 3.2863,6.3236871 C3.4135,5.8742371 3.7273,5.5435071 3.9478,5.8318371 C4.1683,6.1201671 3.5322,6.5526571 3.6086,6.9511971 C3.6518,7.0605971 3.7215,7.1574971 3.8113,7.2333971 C3.9012,7.3092971 4.0084,7.3616971 4.1234,7.3860971 C4.2385,7.4103971 4.3578,7.4058971 4.4706,7.3729971 C4.5835,7.3399971 4.6865,7.2795971 4.7703,7.1971971 C5.4488,6.7052971 4.9908,6.1795271 5.4064,5.5011071 C5.8219,4.8226871 6.5682,5.2721371 6.8819,5.2890971 C7.1957,5.3060571 7.3314,5.0940571 7.0515,4.9668571 Z" id="路径"></path>
            </g>
            <path d="M23.9427079,10.5246943 C24.0105079,10.5139943 24.0738079,10.4837943 24.1249079,10.4378943 C24.1761079,10.3919943 24.2128079,10.3321943 24.2307079,10.2658943 C24.2486079,10.1995943 24.2470079,10.1294943 24.2260079,10.0640943 C24.2050079,9.99863427 24.1655079,9.94068427 24.1123079,9.89720427 C24.3466079,9.85363427 24.5691079,9.76116427 24.7653079,9.62583427 C25.0072079,9.46350427 25.1995079,9.23731427 25.3207079,8.97236427 C25.4420079,8.70741427 25.4875079,8.41406427 25.4522079,8.12483427 C25.7060079,8.26614427 25.9940079,8.33459427 26.2843079,8.32262427 C26.5746079,8.31065427 26.8560079,8.21872427 27.0973079,8.05699427 C27.2943079,7.92272427 27.4617079,7.74956427 27.5892079,7.54818427 C27.6106079,7.61369427 27.6500079,7.67181427 27.7031079,7.71580427 C27.7561079,7.75979427 27.8206079,7.78785427 27.8889079,7.79673427 C27.9572079,7.80560427 28.0267079,7.79493427 28.0892079,7.76595427 C28.1517079,7.73697427 28.2048079,7.69086427 28.2422079,7.63298427 C28.4118079,7.40401427 28.2422079,7.18353427 28.5051079,6.62383427 C28.6868079,6.67840427 28.8500079,6.78188427 28.9768079,6.92296427 C29.1037079,7.06404427 29.1893079,7.23729427 29.2243079,7.42375427 C29.2593079,7.61022427 29.2424079,7.80272427 29.1754079,7.98022427 C29.1083079,8.15771427 28.9938079,8.31335427 28.8443079,8.43012427 C28.6649079,8.57854427 28.4540079,8.68398427 28.2276079,8.73836427 C28.0013079,8.79274427 27.7655079,8.79464427 27.5383079,8.74389427 C27.6871079,8.81129427 27.8191079,8.91092427 27.9247079,9.03559427 C28.0303079,9.16025427 28.1069079,9.30682427 28.1489079,9.46471427 C27.6316079,9.85480427 27.1143079,10.1515943 26.4528079,9.56647427 C26.7412079,10.4144943 26.2747079,10.7791943 25.7235079,11.1183943 C25.5915079,11.0186943 25.4835079,10.8908943 25.4072079,10.7441943 C25.3309079,10.5974943 25.2883079,10.4355943 25.2826079,10.2702943 C25.2446079,10.5000943 25.1545079,10.7181943 25.0193079,10.9077943 C24.8841079,11.0973943 24.7073079,11.2534943 24.5024079,11.3642943 C24.3392079,11.4748943 24.1476079,11.5362943 23.9505079,11.5408943 C23.7534079,11.5454943 23.5592079,11.4932943 23.3910079,11.3903943 C23.2228079,11.2874943 23.0878079,11.1383943 23.0022079,10.9607943 C22.9166079,10.7831943 22.8839079,10.5846943 22.9081079,10.3890943 C23.5187079,10.3890943 23.6713079,10.6010943 23.9427079,10.5246943 L23.9427079,10.5246943 Z" id="路径" fill="#848484"></path>
            <path d="M22.5435079,3.81686427 C24.3837079,2.61267427 26.5461079,2.78228427 27.3009079,4.36808427 C27.5534079,4.87763427 27.6619079,5.44651427 27.6146079,6.01324427 L27.5214079,5.85212427 C27.4028079,5.67227427 27.2484079,5.51877427 27.0680079,5.40118427 C26.8875079,5.28358427 26.6847079,5.20442427 26.4723079,5.16862427 C26.2599079,5.13282427 26.0423079,5.14115427 25.8333079,5.19309427 C25.6242079,5.24502427 25.4281079,5.33946427 25.2571079,5.47051427 C25.0258079,5.60832427 24.8403079,5.81148427 24.7242079,6.05441427 C24.6080079,6.29735427 24.5662079,6.56922427 24.6042079,6.83583427 C24.3691079,6.70034427 24.0988079,6.63842427 23.8283079,6.65808427 C23.5577079,6.67773427 23.2992079,6.77804427 23.0862079,6.94607427 C22.9001079,7.05568427 22.7387079,7.20252427 22.6120079,7.37740427 C22.4853079,7.55227427 22.3961079,7.75143427 22.3499079,7.96238427 C22.3037079,8.17333427 22.3016079,8.39155427 22.3437079,8.60336427 C22.3857079,8.81517427 22.4711079,9.01602427 22.5943079,9.19333427 L22.7046079,9.33750427 C22.1588079,9.17470427 21.6705079,8.85999427 21.2969079,8.43011427 C20.0842079,7.13264427 20.7372079,5.09738427 22.5435079,3.81686427 Z" id="路径" fill="#848484"></path>
            <path d="M22.9675079,8.77781427 C23.0908079,8.95670427 23.2642079,9.09516427 23.4660079,9.17580427 C23.6677079,9.25645427 23.8888079,9.27567427 24.1015079,9.23106427 C24.3141079,9.18646427 24.5088079,9.08001427 24.6612079,8.92508427 C24.8135079,8.77016427 24.9167079,8.57368427 24.9577079,8.36031427 C24.9988079,8.14694427 24.9758079,7.92621427 24.8918079,7.72583427 C24.8078079,7.52545427 24.6664079,7.35437427 24.4855079,7.23407427 C24.3046079,7.11378427 24.0921079,7.04963427 23.8748079,7.04969423 C23.6576079,7.04975427 23.4451079,7.11401427 23.2643079,7.23440427 C23.0220079,7.40109427 22.8550079,7.65644427 22.7994079,7.94526427 C22.7439079,8.23407427 22.8043079,8.53314427 22.9675079,8.77781427 L22.9675079,8.77781427 Z M23.5356079,7.36161427 C23.5991079,7.30239427 23.6747079,7.25760427 23.7571079,7.23031427 C23.8395079,7.20302427 23.9268079,7.19387427 24.0131079,7.20350427 C24.0994079,7.21313427 24.1826079,7.24130427 24.2569079,7.28609427 C24.3313079,7.33087427 24.3951079,7.39121427 24.4440079,7.46297427 C24.4929079,7.53472427 24.5256079,7.61620427 24.5401079,7.70181427 C24.5545079,7.78741427 24.5502079,7.87513427 24.5276079,7.95894427 C24.5049079,8.04275427 24.4644079,8.12067427 24.4089079,8.18736427 C24.3533079,8.25405427 24.2839079,8.30794427 24.2056079,8.34531427 C24.1410079,8.38930427 24.0684079,8.42014427 23.9918079,8.43606427 C23.9153079,8.45198427 23.8364079,8.45268427 23.7597079,8.43811427 C23.6829079,8.42354427 23.6097079,8.39400427 23.5444079,8.35116427 C23.4790079,8.30832427 23.4227079,8.25302427 23.3787079,8.18843427 C23.3348079,8.12384427 23.3039079,8.05122427 23.2880079,7.97471427 C23.2721079,7.89820427 23.2714079,7.81930427 23.2859079,7.74253427 C23.3005079,7.66575427 23.3301079,7.59259427 23.3729079,7.52723427 C23.4157079,7.46188427 23.4710079,7.40560427 23.5356079,7.36161427 L23.5356079,7.36161427 Z" id="形状" fill="#848484"></path>
            <path d="M25.1554079,7.30225427 C25.2330079,7.42624427 25.3346079,7.53354427 25.4542079,7.61788427 C25.5737079,7.70222427 25.7089079,7.76191427 25.8517079,7.79348427 C25.9946079,7.82506427 26.1423079,7.82787427 26.2863079,7.80177427 C26.4303079,7.77567427 26.5676079,7.72118427 26.6903079,7.64146427 C26.9326079,7.47477427 27.0996079,7.21942427 27.1551079,6.93061427 C27.2106079,6.64179427 27.1503079,6.34272427 26.9871079,6.09806427 C26.9165079,5.96035427 26.8176079,5.83906427 26.6970079,5.74208427 C26.5764079,5.64509427 26.4367079,5.57459427 26.2871079,5.53516427 C26.1374079,5.49572427 25.9811079,5.48824427 25.8284079,5.51320427 C25.6757079,5.53815427 25.5299079,5.59499427 25.4006079,5.68000427 C25.2713079,5.76502427 25.1613079,5.87631427 25.0778079,6.00664427 C24.9944079,6.13697427 24.9393079,6.28341427 24.9161079,6.43643427 C24.8930079,6.58946427 24.9023079,6.74564427 24.9436079,6.89481427 C24.9848079,7.04399427 25.0569079,7.18281427 25.1554079,7.30225427 Z M25.4522079,6.06413427 C25.5833079,5.97380427 25.7438079,5.93668427 25.9013079,5.96030427 C26.0588079,5.98392427 26.2014079,6.06651427 26.3002079,6.19134427 C26.3779079,6.33347427 26.3992079,6.49964427 26.3599079,6.65678427 C26.3206079,6.81393427 26.2236079,6.95051427 26.0882079,7.03936427 C26.0264079,7.10775427 25.9497079,7.16104427 25.8641079,7.19512427 C25.7785079,7.22921427 25.6862079,7.24318427 25.5943079,7.23596427 C25.5024079,7.22873427 25.4134079,7.20051427 25.3341079,7.15347427 C25.2549079,7.10643427 25.1875079,7.04182427 25.1371079,6.96462427 C25.0868079,6.88741427 25.0548079,6.79969427 25.0437079,6.70819427 C25.0326079,6.61669427 25.0427079,6.52387427 25.0731079,6.43687427 C25.1036079,6.34987427 25.1536079,6.27103427 25.2193079,6.20640427 C25.2850079,6.14178427 25.3647079,6.09311427 25.4522079,6.06413427 L25.4522079,6.06413427 Z" id="形状" fill="#848484"></path>
        </g>
    </g>
</svg>