
<svg width="22px" height="21px" viewBox="0 0 22 21" version="1.1" xmlns="http://www.w3.org/2000/svg" xmlns:xlink="http://www.w3.org/1999/xlink">
    <g id="页面-1" stroke="none" stroke-width="1" fill="none" fill-rule="evenodd">
        <g id="x" fill-rule="nonzero">
            <path d="M9.92463599,19.4569865 C9.58442099,19.1496608 9.20289731,18.8888477 8.79050215,18.6817169 C8.36037633,18.8601068 7.89837303,18.9541122 7.43096251,18.9584019 C6.33417624,18.9584019 5.39627433,18.38916 4.86133638,17.394197 C4.4070038,16.5563593 3.88836926,16.1169112 3.61155081,16.1169112 C3.58483535,16.1167886 3.55832738,16.121446 3.53330325,16.1305769 C3.25298269,16.2364709 3.08711923,16.3833009 2.95630213,16.8875846 L2.73437958,17.7493834 L2.1130015,17.0993728 C1.83964116,16.8033229 1.68569246,16.4206825 1.67967535,16.0224154 C1.63996369,15.1845776 1.95298538,14.5163052 2.63743937,13.9824226 C2.95312695,13.7312919 3.30801691,13.5310246 3.68864777,13.389281 C3.44092774,13.2897602 3.18695168,13.2057435 2.92827258,13.1377213 C0.371504334,12.4443848 -0.0700018112,10.974737 0.00825204079,9.86818072 C0.0375516511,9.31946807 0.24969089,8.79508408 0.612459048,8.37457188 C0.975227206,7.95399839 1.4688439,7.6602159 2.01840022,7.53789845 C2.22820052,7.49297926 2.44250894,7.47116312 2.65730149,7.47300156 C3.02076756,7.470918 3.38202043,7.528216 3.72602678,7.64262817 C3.71902254,7.40124117 3.70616466,7.15538064 3.68630883,6.90149226 L3.61388975,5.97712531 L4.55765158,6.03515869 C4.70949398,6.0442896 4.85901002,6.04882442 5.00148409,6.04882442 L5.16615293,6.04882442 C5.12886823,5.77054608 5.12452988,5.48908113 5.15332649,5.20982229 C5.25380026,4.13059752 6.19170216,3.22900269 7.06421438,2.89658847 C7.56991559,2.70419587 7.72527898,2.42755987 7.80355798,2.07237965 L8.03713749,1 L8.691223,1.89251294 C8.73561254,1.95284437 9.12920816,2.50838989 9.10701339,3.1447593 C9.08532162,3.47976572 8.99302156,3.80682396 8.83589768,4.10552122 C8.67871093,4.40421847 8.4600956,4.66815698 8.19363262,4.88080306 C8.20979142,4.93381137 8.23336943,4.98442971 8.26373791,5.03112606 C8.85758946,4.63126565 9.41208144,4.17851949 9.91998327,3.67867253 L10.4957898,3.12426684 L11.0715963,3.67867253 C11.5801269,4.17864205 12.1349961,4.6317559 12.7290363,5.03222912 C12.7601592,4.98541022 12.7841774,4.93442418 12.8002733,4.88080306 C12.3891356,4.55521557 11.91374,3.91659713 11.8868925,3.1447593 C11.8646977,2.51294309 12.2582934,1.95739757 12.3026829,1.89251294 L12.9567684,1 L13.1904108,2.07237965 C13.2686269,2.42755987 13.4239903,2.70419587 13.9297544,2.89658847 C14.8022666,3.22900269 15.7389739,4.13059752 15.8405794,5.20982229 C15.869376,5.48908113 15.8651006,5.77054608 15.827753,6.04882442 L15.9889637,6.04882442 C16.1326324,6.04882442 16.2820856,6.04882442 16.4351226,6.03515869 L17.3788718,5.97712531 L17.3052456,6.90149226 C17.2849999,7.15501295 17.2717962,7.40203783 17.2655716,7.64262817 C17.6103765,7.52815472 17.972409,7.47085672 18.3366421,7.47300156 C18.5514221,7.47116312 18.765762,7.49297926 18.975512,7.53789845 C19.52598,7.65948052 20.0206781,7.95289533 20.384534,8.37346881 C20.7483899,8.7940423 20.9614723,9.31885525 20.9915264,9.86818072 C21.0709371,10.9770044 20.629431,12.4443848 18.0714995,13.1377213 C17.8127701,13.2055597 17.5587564,13.2895763 17.3110929,13.389281 C17.6917363,13.5310246 18.046664,13.7312919 18.362295,13.9824226 C19.046749,14.5163052 19.3598021,15.1845776 19.3200653,16.0224154 C19.3137779,16.4206212 19.1598606,16.803139 18.8867329,17.0993728 L18.2654051,17.7482191 L18.0434574,16.8875846 C17.9126152,16.3821366 17.7467517,16.2364709 17.4664563,16.1305769 C17.4414322,16.121446 17.414899,16.1167886 17.3882402,16.1169112 C17.1114029,16.1169112 16.5928123,16.5563593 16.1384169,17.394197 C15.5999579,18.388057 14.662056,18.9584019 13.5687907,18.9584019 C13.1013802,18.9543574 12.6393141,18.8603519 12.2092511,18.6817169 C11.7963529,18.8885413 11.4143891,19.1493544 11.0739855,19.4569865 L10.5016371,20 L9.92463599,19.4569865 Z M17.2737453,8.75598662 C17.2877664,9.14984146 17.3134821,9.52439269 17.339135,9.88184645 C17.5527833,9.8777406 17.7559943,9.79139527 17.9044415,9.6416238 C17.9421663,9.59982996 17.9696425,9.5502534 17.9847953,9.49663227 C17.9999481,9.44301114 18.0024631,9.38669364 17.9920888,9.33203073 C17.9313518,9.02121203 17.5365616,8.80832084 17.2737453,8.75708968 L17.2737453,8.75598662 Z M3.71784678,8.75598662 C3.45154099,8.80832084 3.06259181,9.02121203 3.00185485,9.33086639 C2.99147423,9.38559058 2.99397036,9.4418468 3.00914202,9.49552921 C3.02431369,9.54915033 3.05177107,9.5987269 3.08945817,9.64052074 C3.16263803,9.71479366 3.25014075,9.77423651 3.34695521,9.81541753 C3.44376339,9.85665984 3.54798449,9.87884367 3.65361399,9.88074339 C3.67931088,9.5266601 3.70499519,9.15670496 3.71784678,8.75825403 L3.71784678,8.75598662 Z" id="形状" fill="#060627"></path>
            <path d="M13.2045895,2.36414477 C13.3120123,2.8592088 13.5700409,3.28665586 14.2473266,3.54679087 C14.9245494,3.80693205 15.7653266,4.54152089 15.8447152,5.46518555 C15.8959437,5.88423678 15.8483609,6.30921012 15.705738,6.70741057 C15.964898,6.73874842 16.225818,6.75447904 16.4869266,6.75435566 C16.6399209,6.75435566 16.8010237,6.75435566 16.9633209,6.73948869 L17.3382009,6.7165405 L17.3089723,7.08901677 C17.2085894,8.35986534 17.2891094,9.44971932 17.3591952,10.4123095 C17.3591952,10.4741833 17.3673666,10.5361187 17.372018,10.5968204 C17.4818923,10.6120575 17.5927094,10.6197069 17.7036523,10.6197686 C18.6377723,10.6197686 19.0815437,10.0215734 18.9752523,9.48296952 C18.8584637,8.86299825 18.1181952,8.49625902 17.6616009,8.49625902 L17.6464523,8.49625902 C17.8589723,8.29225455 18.3692466,8.18800067 18.8339494,8.18800067 C19.0102009,8.18645845 19.1860123,8.2041631 19.3582409,8.24068281 C19.806098,8.3382743 20.2087609,8.57774977 20.5041894,8.92215769 C20.799618,9.26656561 20.9714066,9.69678249 20.9930294,10.146493 C21.1004523,11.6591612 20.0121437,12.5048514 18.4358123,12.9357468 C18.0652694,13.0299454 17.7054123,13.1604787 17.3615209,13.3253726 C17.3272637,13.5526337 17.2808752,13.7779207 17.2225437,14.0003701 C17.711258,14.1019714 18.167098,14.3196091 18.5502123,14.634098 C19.1340923,15.0925066 19.3547837,15.6173539 19.3232294,16.2854424 C19.3215323,16.571061 19.2149894,16.8465009 19.0231494,17.0613009 C18.8807151,16.5054859 18.6565037,16.1582403 18.1439037,15.9634274 C18.0618123,15.9330149 17.9747552,15.9174694 17.8870066,15.9175927 C17.2821323,15.9175927 16.6364009,16.6498991 16.198538,17.4624007 C15.7314466,18.3367761 14.9479323,18.7779736 14.0651666,18.7779736 C13.6139152,18.771558 13.1693895,18.6695249 12.7620123,18.4788452 L12.6872752,18.4433125 C12.1538695,18.6963595 11.6609437,19.0244816 11.2242123,19.4173768 L10.9988695,19.6328554 L10.7734637,19.4173768 C10.3373609,19.0242348 9.84481232,18.696051 9.31153232,18.4433125 L9.23798947,18.4788452 C8.83061233,18.6695249 8.38608661,18.771558 7.93483519,18.7779736 C7.05206947,18.7779736 6.27088091,18.3367761 5.80146376,17.4624007 C5.36360091,16.6498991 4.71786948,15.9175927 4.11301406,15.9175927 C4.02526548,15.9175927 3.93824606,15.9330766 3.85612948,15.9634274 C3.34351691,16.1582403 3.11931806,16.5054859 2.97685863,17.0613009 C2.78499349,16.8465009 2.67845692,16.571061 2.67677235,16.2854424 C2.6452432,15.6173539 2.86943577,15.0902241 3.44860777,14.634098 C3.83175977,14.3202876 4.28704663,14.1027733 4.77506948,14.0003701 C4.71680091,13.7775506 4.67041234,13.5518317 4.63613005,13.3242622 C4.29264091,13.1606021 3.93361348,13.0305006 3.56420834,12.9357468 C1.98783921,12.5048514 0.89955578,11.6591612 1.00697864,10.146493 C1.02862035,9.69678249 1.20040892,9.26656561 1.49583121,8.92215769 C1.79125978,8.57774977 2.19392263,8.3382743 2.64173577,8.24068281 C2.81397063,8.2041631 2.98981349,8.18645845 3.16602092,8.18800067 C3.63309349,8.18800067 4.14104206,8.29225455 4.35356205,8.49625902 L4.33838205,8.49625902 C3.88065006,8.49625902 3.14500777,8.86299825 3.02473692,9.48296952 C2.91847692,10.0215734 3.35869691,10.6197686 4.2963432,10.6197686 C4.4065192,10.6197069 4.51654434,10.6120575 4.62562662,10.5968204 C4.62562662,10.5372291 4.6349672,10.4765275 4.63846834,10.4157641 C4.74338948,9.31098147 4.76061234,8.1998449 4.68985405,7.09240965 L4.6606632,6.71999506 L5.03429234,6.74294326 C5.19665234,6.75324527 5.35662377,6.75781023 5.50955519,6.75781023 C5.77192091,6.75811867 6.03397233,6.74201792 6.29426376,6.70969305 C6.15157805,6.31192442 6.10405805,5.88725952 6.15528662,5.46857843 C6.24052091,4.54491377 7.07545233,3.8092207 7.75267519,3.5502331 C8.4299609,3.29123933 8.68685804,2.86264486 8.79541233,2.367587 C8.79541233,2.367587 9.13634947,2.83629145 9.12000661,3.32447719 C9.09668661,3.97080186 8.6728409,4.49451411 8.3657209,4.72942462 C8.0586009,4.96433513 8.2104009,5.44340945 8.67397233,5.8754153 C9.43906947,5.40812352 10.1446409,4.85298705 10.7757895,4.22176994 L11.0023266,4.00174491 L11.230058,4.22176994 C11.8608923,4.85335719 12.5665266,5.40849365 13.3318752,5.8754153 C13.7989666,5.44106528 13.9577437,4.9666793 13.6413209,4.72942462 C13.3248352,4.49223163 12.9103552,3.97080186 12.8869723,3.32447719 C12.8706295,2.83629145 13.2115666,2.367587 13.2115666,2.367587 L13.2045895,2.36414477 Z M13.705498,0 L12.3976923,1.79688648 C12.3078066,1.91951125 11.8629037,2.57271421 11.8898066,3.351978 C11.8898066,3.40469098 11.8898066,3.45741013 11.9003037,3.5089757 L11.6901095,3.30613714 L10.9895037,2.63230548 L10.288898,3.30728455 L10.0822237,3.50668088 C10.0822237,3.45626272 10.0903952,3.40469098 10.0915266,3.351978 C10.1195609,2.57271421 9.67352661,1.91951125 9.58364089,1.79688648 L8.28513804,0 L7.81804661,2.15901756 C7.76669233,2.38820953 7.69195519,2.51885382 7.38370376,2.63688895 C6.3993609,3.01391785 5.28188662,4.03039313 5.16509805,5.37345448 C5.15227519,5.50984816 5.14642948,5.64050479 5.14523519,5.76770686 L5.09388091,5.76770686 L4.7201952,5.74475867 L3.58172663,5.67486539 L3.6692992,6.78988834 L3.69849006,7.16236462 L3.70549234,7.24940735 C3.52264091,7.22769293 3.33853234,7.21776105 3.15434834,7.2196734 C2.90104663,7.21776105 2.64836092,7.24428719 2.40120035,7.29869661 C1.74873692,7.44526892 1.16269464,7.79646259 0.731821495,8.29916368 C0.300948354,8.80180307 0.0487026401,9.42862179 0.0132826402,10.0845576 C-0.029629931,10.5508623 0.0317312116,11.020745 0.193085497,11.4613873 C0.354433496,11.9019679 0.611877495,12.3026976 0.94742778,12.635508 C1.43668892,13.1225402 2.11511235,13.5064905 2.96284777,13.7814987 L2.82855977,13.8823597 C2.4453512,14.1666828 2.1402992,14.5401461 1.94092892,14.9690675 C1.74155863,15.3979889 1.65414949,15.8689204 1.68657749,16.3392966 C1.69746435,16.8555075 1.89819235,17.3504358 2.25173235,17.7328439 L3.49414777,19.0392252 L3.93902548,17.3065134 C4.00441577,17.0509372 4.05580148,16.9627224 4.12353006,16.9214527 C4.27766205,17.0165766 4.60344434,17.3282895 4.92454377,17.9253743 C5.55041234,19.0907969 6.64802376,19.7588854 7.93483519,19.7588854 C8.38438947,19.756788 8.83023518,19.6792453 9.25313804,19.5297119 C9.55284089,19.6936804 9.83117232,19.8926264 10.0822237,20.12217 L10.3063723,20.3376486 L10.9988695,21 L11.6912409,20.3376486 L11.9166466,20.12217 C12.1676352,19.8922563 12.4459666,19.6929402 12.7456695,19.5285398 C13.1688866,19.6786284 13.6151723,19.7561711 14.0651666,19.757775 C15.3495894,19.757775 16.4495894,19.0896248 17.075458,17.9242022 C17.3965323,17.3271175 17.7223209,17.0154662 17.8764466,16.9203423 C17.9442066,16.9650049 17.9932352,17.0498268 18.0609952,17.3053414 L18.5058352,19.0381148 L19.7470751,17.7316719 C20.101778,17.3494488 20.3030466,16.8539036 20.313418,16.3370141 C20.3613151,15.3411737 19.9760009,14.5149154 19.1714294,13.8811876 L19.0371666,13.7803266 C19.8872466,13.5076009 20.563338,13.1237122 21.0525551,12.6343976 C21.3881494,12.3015872 21.6455494,11.9008575 21.8069037,11.4602152 C21.968258,11.0196346 22.0296066,10.5497519 21.986738,10.0834472 C21.9507209,9.42738801 21.6979723,8.80075436 21.2667094,8.29830004 C20.8353837,7.79584571 20.2491151,7.44496048 19.5964694,7.29869661 C19.3493151,7.24428719 19.0966294,7.21776105 18.8433151,7.2196734 C18.6617209,7.21998185 18.480378,7.23182607 18.3003552,7.2551444 C18.3003552,7.22652085 18.3003552,7.1978973 18.3003552,7.16810166 L18.3295209,6.79562539 L18.4170809,5.68060243 L17.2786123,5.75049571 L16.9049894,5.7734439 L16.855898,5.7734439 C16.855898,5.64624184 16.8477266,5.51558521 16.836098,5.37919153 C16.711138,4.03612401 15.5947952,3.01964256 14.6116466,2.64261983 C14.3033952,2.52802076 14.228658,2.39967129 14.1772409,2.16474844 L13.7102123,0.0045834692 L13.705498,0 Z" id="形状" fill="#060627"></path>
            <path d="M18.4363993,12.4091797 C20.0121895,11.9849648 21.100081,11.1522061 20.9926993,9.66277686 C20.9710219,9.2199752 20.799362,8.79636769 20.5040466,8.45725086 C20.2087313,8.11813404 19.8061599,7.8823376 19.3585372,7.78630613 C18.841484,7.67344941 17.9473696,7.75356675 17.6474046,8.03789522 C18.1026301,8.02999889 18.854302,8.39219729 18.9756954,9.00944701 C19.0924392,9.59954551 18.5368065,10.2607717 17.3730755,10.1061859 C17.3730755,10.0464168 17.3637762,9.98549363 17.3602576,9.9245097 C17.2901987,8.97670763 17.2097096,7.90365768 17.310054,6.65227225 L17.3392713,6.28551828 L16.964535,6.30811392 C16.8023001,6.31825766 16.6412589,6.32281324 16.4883233,6.32281324 C16.2273148,6.32287398 15.9664948,6.30738503 15.7074341,6.27652862 C15.8500023,5.88444567 15.8975669,5.46600114 15.846358,5.05338774 C15.7611563,4.14391322 14.9265449,3.41948606 14.2495816,3.16447725 C13.5725554,2.90946237 13.3157567,2.48745235 13.207244,2 C13.207244,2 12.8663747,2.4615038 12.8827113,2.9421896 C12.9060852,3.57859095 13.3297685,4.09422711 13.6367708,4.32558946 C13.9437731,4.55689106 13.7920313,5.02969876 13.3274436,5.45391368 C12.5623884,4.99422604 11.8570245,4.44755732 11.226432,3.82570343 L10.9988506,3.60905255 L10.7724003,3.82570343 C10.1414936,4.44725361 9.43612974,4.99386159 8.67138863,5.45391368 C8.20447621,5.02514319 8.0468909,4.55913848 8.3631925,4.32558946 C8.67955693,4.09197969 9.09387809,3.57859095 9.11725199,2.9421896 C9.13358858,2.4615038 8.79271926,2 8.79271926,2 C8.68533757,2.48745235 8.42740788,2.90833866 7.75044455,3.16447725 C7.07341839,3.42061584 6.23302628,4.14391322 6.1536053,5.05338774 C6.10239636,5.46563669 6.14996099,5.88371678 6.29252919,6.27537454 C6.03240034,6.30720281 5.7703865,6.3230562 5.50812133,6.32281324 C5.35524851,6.32281324 5.19533839,6.32281324 5.03310344,6.30811392 L4.65957978,6.28551828 L4.68875945,6.65227225 C4.75946549,7.74263337 4.74231206,8.83669969 4.63739343,9.9245097 C4.63739343,9.98433955 4.62922513,10.0441694 4.62455664,10.1028452 C3.45732583,10.2562769 2.90639304,9.59505068 3.0242867,9.00604551 C3.14100538,8.38885653 3.89737713,8.0265974 4.35259633,8.03449372 C4.05261876,7.75016525 3.15851067,7.664399 2.64142605,7.78290463 C2.19378452,7.87899685 1.79126341,8.11473254 1.49595433,8.45384937 C1.20063898,8.7929662 1.02893509,9.21657371 1.00730167,9.65937537 C0.899913694,11.1488047 1.98778007,11.9815633 3.56354511,12.405839 C3.93281497,12.4991371 4.29169853,12.6272398 4.63505604,12.7883249 C4.66932519,13.012459 4.71569598,13.2346495 4.77397992,13.4541066 C4.28610639,13.5548759 3.83099401,13.7690485 3.44798884,14.0780379 C2.86437658,14.529404 2.64493842,15.0461881 2.6764492,15.7040736 C2.67813312,15.9853043 2.78462887,16.2565127 2.97642677,16.467952 C3.11882532,15.9206759 3.34293826,15.5788257 3.85535438,15.3870057 C4.52768063,15.1364492 5.30039526,15.9511678 5.79998087,16.8628898 C6.4921498,18.1323153 7.86247589,18.4742262 9.2351268,17.8637187 L9.30864147,17.8287926 C9.84171711,18.0776484 10.3340769,18.4007903 10.7700755,18.7878925 L10.995332,19 L11.2205885,18.7878925 C11.6571526,18.4010333 12.1498894,18.0778914 12.6831535,17.8287926 L12.757862,17.8637187 C14.1305129,18.4742262 15.500839,18.1323153 16.1930079,16.8628898 C16.6925935,15.9489204 17.4653145,15.1364492 18.1376281,15.3870057 C18.6500317,15.5788257 18.8741572,15.9206759 19.0165369,16.467952 C19.2083662,16.2565127 19.3148682,15.9853043 19.3165019,15.7040736 C19.3480441,15.0461881 19.1239186,14.5271566 18.5438438,14.0780379 C18.1608135,13.7683804 17.7051482,13.554147 17.2166841,13.4541066 C17.2749303,13.235014 17.3213011,13.0131879 17.3555451,12.7894789 C17.7016924,12.6278472 18.0637993,12.5004127 18.4363993,12.4091797 Z" id="路径" fill="#0FDB9B"></path>
            <path d="M6.13099282,8.13520036 C6.17159417,9.02696261 6.1513824,9.92051244 6.07047607,10.8095337 C5.97024705,12.1865038 5.89100033,13.2746015 6.46795437,14.5486668 C7.07466297,15.8935796 8.18121268,16.4303888 9.25036174,16.955102 C9.85600344,17.2495159 10.4791897,17.5539401 11.0000131,18 C11.5208365,17.5572769 12.1440227,17.2495159 12.7496052,16.955102 C13.8187542,16.4326531 14.9253632,15.8935796 15.5320718,14.5486668 C16.1090258,13.2746015 16.0297198,12.1865038 15.9295501,10.8095337 C15.8486438,9.92051244 15.8283727,9.02696261 15.8689741,8.13520036 C15.8117173,8.13520036 15.7588466,8.13520036 15.6983299,8.13520036 C13.9982299,8.13520036 12.5822802,7.49542678 11.0000131,6 C9.41774598,7.49542678 8.00173694,8.13520036 6.3016963,8.13520036 C6.24882564,8.13740504 6.18824961,8.13740504 6.13099282,8.13520036 Z" id="路径" fill="#FFFFFF"></path>
            <path d="M10.5111092,13.5754533 C10.5111092,13.5754533 9.96373358,14.4670676 9.63333191,14.987343 C9.41641785,14.987343 8.53864054,15.0158213 7,14.987343 C7.47173718,14.1702559 8.31166531,12.7485197 9.15159345,11.364047 C8.38730376,10.090186 7.64193866,8.83607704 7.1602002,8.01898997 C8.73663002,7.98172637 9.61440732,8.00908446 9.84024468,8.01898997 C10.0627882,8.39905515 10.5077555,9.11425693 10.5077555,9.11425693 C10.5077555,9.11425693 10.9138555,8.41656669 11.1586174,8.01898997 C11.3811011,8.00908446 12.26337,7.98172637 13.8486632,8.01898997 C13.3580613,8.83607704 12.6249134,10.090186 11.85727,11.364047 C12.6883347,12.7485197 13.5182615,14.1702559 14,14.987343 C12.480284,15.0158213 11.5835822,14.987343 11.3666681,14.987343 C11.0395603,14.4769141 10.5111092,13.5754533 10.5111092,13.5754533 Z" id="路径" fill="#060627"></path>
        </g>
    </g>
</svg>