
<svg width="21px" height="21px" viewBox="0 0 21 21" version="1.1" xmlns="http://www.w3.org/2000/svg" xmlns:xlink="http://www.w3.org/1999/xlink">
    <g id="页面-1" stroke="none" stroke-width="1" fill="none" fill-rule="evenodd">
        <g id="anarchy_battle" fill-rule="nonzero">
            <path d="M9.95148499,19.7679569 C9.6264651,19.4588667 9.26232522,19.1963466 8.86896535,18.9874286 C8.45844549,19.1671709 8.01750563,19.2617916 7.57134578,19.265986 C6.52446612,19.265986 5.62926644,18.6928954 5.11866661,17.6912358 C4.68498675,16.8476681 4.19000491,16.4052824 3.925783,16.4052824 C3.90028301,16.4052207 3.87497502,16.4098469 3.85109503,16.4190375 C3.58353111,16.5256246 3.42522117,16.6734772 3.30036121,17.1811845 L3.08853728,18.0476364 L2.49544347,17.3943587 C2.23495956,17.0960629 2.08807961,16.71098 2.08183961,16.3101682 C2.04393762,15.4666622 2.34270752,14.7938929 2.99600531,14.2563313 C3.29731921,14.003557 3.6360611,13.8019791 3.99936098,13.6592462 L3.99936098,13.6592462 C3.76298505,13.558889 3.52056713,13.4742608 3.27360722,13.4059168 C0.834332022,12.7079811 0.411806161,11.2283451 0.486500137,10.114362 C0.514832127,9.56205831 0.717428061,9.03430419 1.06362795,8.61097828 C1.40982783,8.18765237 1.88076168,7.89182386 2.4051375,7.76827413 C2.60539344,7.72312265 2.80995137,7.70122542 3.0149593,7.70295253 C3.36189119,7.70073196 3.70671107,7.75846664 4.03503697,7.87368925 C4.02834697,7.63072251 4.01720497,7.38319127 3.99825098,7.12757964 L3.928015,6.19697815 L4.8288067,6.25539133 C4.97370665,6.264582 5.11644661,6.26914649 5.25246656,6.26914649 L5.40966651,6.26914649 C5.37402652,5.98904698 5.36988652,5.70561662 5.39736651,5.4244685 C5.49438648,4.33799574 6.38844617,3.43027839 7.22238589,3.09561468 C7.70508573,2.90192596 7.85334569,2.62342402 7.92696566,2.26583914 L8.14992559,1.18621312 L8.77422538,2.08475213 C8.81658537,2.1454969 9.19230524,2.70479536 9.17112525,3.34546517 C9.15042526,3.68273805 9.06228529,4.01200456 8.91228534,4.31271831 C8.76228539,4.61340739 8.55360545,4.87913492 8.29932554,5.09329601 C8.31468553,5.14683628 8.33760553,5.1977859 8.36730552,5.24454111 C8.93370533,4.84144701 9.46290515,4.38567619 9.94818499,3.88298977 L10.4966448,3.3248386 L11.0463046,3.88298977 C11.5318845,4.38604628 12.0614443,4.8421872 12.6282641,5.24571308 C12.6582041,5.19852609 12.6814841,5.14720638 12.6973841,5.09329601 C12.3038442,4.76551605 11.8500644,4.12252081 11.8244444,3.34546517 C11.8032644,2.70937836 12.1789843,2.15007989 12.2224242,2.08475213 L12.846724,1.18621312 L13.069744,2.26583914 C13.1444439,2.62342402 13.2927039,2.90192596 13.7754037,3.09561468 C14.6092835,3.43027839 15.5034032,4.33799574 15.5992831,5.4244685 C15.6267631,5.70561662 15.6226831,5.98904698 15.5870431,6.26914649 L15.7408831,6.26914649 C15.877983,6.26914649 16.020723,6.26914649 16.1667629,6.25539133 L17.0675426,6.19697815 L16.9972827,7.12757964 C16.9787427,7.38282117 16.9664427,7.63152438 16.9605027,7.87368925 C17.2892426,7.75846664 17.6344225,7.70073196 17.9817023,7.70295253 C18.1867223,7.70110206 18.3912622,7.72306097 18.5915421,7.76827413 C19.116122,7.89157713 19.5873018,8.18734396 19.9337417,8.61066987 C20.2801216,9.03399578 20.4829215,9.56187326 20.5113015,10.114362 C20.5870815,11.2306273 20.1645616,12.7079811 17.7241824,13.4059168 C17.4772225,13.4742608 17.2348226,13.558889 16.9984227,13.6592462 C17.3617225,13.8019791 17.7004824,14.003557 18.0018023,14.2563313 C18.6550821,14.7938929 18.953882,15.4666622 18.915962,16.3101682 C18.910442,16.7111651 18.7634421,17.096433 18.5023222,17.3943587 L17.9092224,18.0476364 L17.6974224,17.1811845 C17.5725625,16.6734772 17.4142825,16.5256246 17.1466826,16.4190375 C17.1231626,16.4099702 17.0982626,16.4052824 17.0731226,16.4052824 C16.8078027,16.4052824 16.3128029,16.8476681 15.879123,17.6912358 C15.3651632,18.6917851 14.4699635,19.265986 13.4264438,19.265986 C12.980284,19.2616682 12.5393441,19.1670475 12.1287643,18.9874286 C11.7346844,19.1956681 11.3700645,19.4582499 11.0451646,19.7679569 L10.4989248,20.3146475 L9.95148499,19.7679569 Z M16.9660827,8.99458077 C16.9806027,9.39113654 17.0040027,9.7682007 17.0285427,10.1281172 C17.2324226,10.1242312 17.4265225,10.0372591 17.5681225,9.8862607 C17.6040025,9.84413166 17.6302225,9.79423064 17.6449225,9.7402586 C17.6595624,9.68634823 17.6622624,9.62972384 17.6528424,9.57451814 C17.5959625,9.26166531 17.2169426,9.04731917 16.9660827,8.99575273 L16.9660827,8.99458077 Z M4.02723097,8.99458077 C3.77304705,9.04731917 3.40180917,9.26166531 3.34383719,9.57340786 C3.3342492,9.62849019 3.3367872,9.6850529 3.35125919,9.73902495 C3.36572519,9.79293532 3.39175918,9.84289801 3.42744717,9.88515042 C3.49729914,9.95990942 3.58082512,10.0197413 3.67323108,10.0612535 C3.76563705,10.102704 3.86509902,10.1250947 3.96591699,10.1269452 C3.99490298,9.77048294 4.01385697,9.39804496 4.02723097,8.99686301 L4.02723097,8.99458077 Z" id="形状" fill="#060627"></path>
            <path d="M12.6070241,2.36440753 C12.7096241,2.85952552 12.957124,3.28702115 13.6026038,3.54718494 C14.2480836,3.80734872 15.0519033,4.54197924 15.1276833,5.46573399 C15.1771833,5.8848655 15.1317633,6.31004189 14.9950233,6.70813972 C15.2424632,6.73953603 15.4915832,6.75520335 15.7408831,6.75514166 C15.888003,6.75514166 16.040763,6.75514166 16.1968229,6.74021454 L16.5535828,6.71733039 L16.5257428,7.08976837 C16.4582428,8.19727482 16.4742628,9.3084822 16.5736828,10.4134597 C16.5736828,10.4753887 16.5825628,10.5372561 16.5859228,10.5980132 C16.6908028,10.6131871 16.7965827,10.6208357 16.9025427,10.6208974 C17.7943824,10.6208974 18.2180423,10.0226404 18.1177223,9.48396847 C18.0062423,8.86393757 17.2994426,8.49717436 16.8624027,8.49717436 L16.8478827,8.49717436 C17.0508026,8.29319086 17.5390825,8.18888602 17.9817023,8.18888602 C18.1499423,8.18740564 18.3178222,8.20504679 18.4822822,8.24162442 C18.909842,8.33920588 19.2942619,8.57871842 19.5763218,8.92315261 C19.8583817,9.26758681 20.0223617,9.69782114 20.0430617,10.1476088 C20.1456016,11.6604299 19.106582,12.5062798 17.6026825,12.9371927 C17.2486226,13.0316284 16.9046427,13.1621482 16.5759028,13.32684 C16.5431428,13.5541395 16.4988628,13.7794651 16.4432428,14.0018916 C16.9084227,14.1044693 17.3424026,14.3220229 17.7074424,14.6357393 C18.2648422,15.0941625 18.4744822,15.6190792 18.4443622,16.2872224 C18.4432822,16.5729966 18.3414622,16.848655 18.1578623,17.0631862 C18.0218423,16.507305 17.8077624,16.1600334 17.3183426,15.9651788 C17.2403426,15.9348928 17.1576026,15.9193489 17.0742026,15.9193489 C16.4967028,15.9193489 15.879123,16.6517033 15.4621832,17.4643065 C15.0162033,18.338777 14.2670436,18.7799908 13.4242238,18.7799908 C12.993724,18.7736992 12.5696441,18.6716766 12.1812043,18.4808932 L12.1087243,18.4453641 C11.5995644,18.6981384 11.1293446,19.0263501 10.7129447,19.4195134 L10.4966448,19.6350315 L10.2814849,19.4195134 C9.86508502,19.0263501 9.39480518,18.6981384 8.88570534,18.4453641 L8.81544537,18.4808932 C8.4265255,18.6715533 8.00214564,18.7735759 7.57128578,18.7799908 C6.72960606,18.7799908 5.98266632,18.338777 5.53446647,17.4643065 C5.11752661,16.6517033 4.49988681,15.9193489 3.922429,15.9193489 C3.83865103,15.9193489 3.75556906,15.9348311 3.67716708,15.9651788 C3.18775324,16.1600334 2.97369732,16.507305 2.83880536,17.0631862 C2.65473742,16.8489018 2.55288745,16.5730583 2.55228745,16.2872224 C2.52107547,15.6190792 2.73511939,15.0918803 3.28919521,14.6357393 C3.65377909,14.3218996 4.08736895,14.104346 4.55232679,14.0018916 C4.49610681,13.7791567 4.45182683,13.553461 4.41966684,13.3257298 C4.09130495,13.1620865 3.74814706,13.0319984 3.39510718,12.9371927 C1.89007367,12.5062798 0.851036017,11.6604299 0.953599983,10.1476088 C0.974629976,9.69794451 1.13877192,9.26789522 1.42077183,8.92352271 C1.70276574,8.57915019 2.08700561,8.33957598 2.51437947,8.24162442 C2.67882741,8.20504679 2.84671336,8.18740564 3.0149533,8.18888602 C3.46088515,8.18888602 3.94584099,8.29319086 4.14985893,8.49717436 L4.13424693,8.49717436 C3.69834708,8.49717436 2.99488331,8.86393757 2.88004935,9.48396847 C2.77860138,10.0226404 3.19890124,10.6208974 4.09523495,10.6208974 C4.20004891,10.6208357 4.30473088,10.6131871 4.40850684,10.5980132 L4.42188684,10.4169139 C4.5210668,9.31193641 4.5370868,8.20072903 4.46982682,7.09322258 L4.44192683,6.72072292 L4.79868671,6.74366875 C4.95366666,6.7539697 5.10636661,6.75853419 5.25246656,6.75853419 C5.50290648,6.7588426 5.7531064,6.74274351 6.0016263,6.71042197 C5.86542636,6.31263254 5.82000638,5.88794962 5.86896636,5.4691882 C5.95146633,4.54543345 6.74742605,3.8096433 7.39404584,3.55062064 C8.04066562,3.29160415 8.28594554,2.86296122 8.38962551,2.36784323 C8.38962551,2.36784323 8.7151254,2.83659819 8.69952541,3.3248386 C8.67834541,3.9712387 8.27364555,4.49503898 7.97934564,4.72998702 C7.68504574,4.96493506 7.83108569,5.44396012 8.27364555,5.87604493 C9.00414531,5.40873951 9.67776508,4.85353675 10.2803449,4.22223648 L10.4966448,4.00218473 L10.7140247,4.22223648 C11.3163645,4.85384516 11.9900443,5.40904792 12.7207841,5.87604493 C13.1667039,5.44167788 13.3171839,4.9672173 13.016164,4.72998702 C12.7152041,4.49269505 12.3171642,3.9712387 12.2959842,3.3248386 C12.2793042,2.83659819 12.6048041,2.36784323 12.6048041,2.36784323 L12.6070241,2.36440753 Z M13.085284,0 L11.8366844,1.79708419 C11.7508244,1.91972102 11.3260845,2.5729987 11.3517645,3.35234892 C11.3517645,3.40506882 11.3517645,3.45778872 11.3617845,3.50936132 L11.1622246,3.30650044 L10.4932848,2.63259618 L9.82440503,3.30764773 L9.6270651,3.50706674 C9.6270651,3.45664143 9.6348651,3.40506882 9.6360051,3.35234892 C9.66276509,2.5729987 9.23688523,1.91972102 9.15102526,1.79708419 L7.91022567,0 L7.46430581,2.15925206 C7.41522583,2.38847598 7.34388585,2.51913151 7.04958595,2.63717918 C6.11088626,3.0142495 5.04282663,4.03083618 4.93134667,5.37407403 C4.92018667,5.51045369 4.91352667,5.64109689 4.91238668,5.76834756 L4.86336669,5.76834756 L4.50660681,5.74540173 L3.41964117,5.67551564 L3.50325114,6.79067069 L3.53112113,7.16310867 L3.53781113,7.25026582 C3.36630719,7.2269499 3.19351924,7.21510689 3.0205213,7.21473679 C2.77868538,7.21288632 2.53743746,7.23940973 2.30145154,7.29381355 C1.67607174,7.43907547 1.11400393,7.79047977 0.700832066,8.29448619 C0.287654202,8.79843092 0.0460102824,9.42746744 0.0126802934,10.0856797 C-0.028287693,10.5520599 0.0302962876,11.021956 0.184346236,11.4626146 C0.338396186,11.9032733 0.584192104,12.3040851 0.904555999,12.636923 C1.37167384,13.1240285 2.01939163,13.5079394 2.82876736,13.7830426 C2.78528538,13.8162277 2.74293139,13.8494745 2.70168141,13.8838933 C2.33545353,14.1679405 2.04387762,14.5413654 1.85331169,14.9704277 C1.66275175,15.3994284 1.57920778,15.8705581 1.61024577,16.3411327 C1.62094376,16.8575373 1.8129977,17.3525381 2.15094759,17.7347836 L3.3360252,19.0413389 L3.75631906,17.306153 C3.81874904,17.0505413 3.86780502,16.9622739 3.932461,16.9210701 C4.08073895,17.0161843 4.39068685,17.3279268 4.69722675,17.9250119 C5.29590655,19.0906231 6.34272618,19.7587662 7.57128578,19.7587662 C8.00052564,19.756669 8.4261655,19.6791343 8.82996536,19.5295547 C9.11610527,19.693568 9.38184518,19.8924936 9.6214851,20.1220752 L9.83664503,20.3375933 L10.4966448,21 L11.1577246,20.3375933 L11.3729445,20.1220752 C11.6125244,19.8921851 11.8783244,19.6928278 12.1644643,19.5284444 C12.5685041,19.6783941 12.994624,19.7559288 13.4242238,19.757656 C14.6505634,19.757656 15.7007431,19.0894511 16.2994229,17.9239016 C16.6059628,17.3267549 16.9159227,17.0150123 17.0630426,16.9198981 C17.1277226,16.9646178 17.1745826,17.0494311 17.2392026,17.304981 L17.6639424,19.0378847 L18.8501421,17.7313293 C19.1878819,17.3485904 19.3795219,16.8531578 19.3897219,16.3365065 C19.4211019,15.8661787 19.3378219,15.395234 19.147442,14.9663567 C18.957062,14.5374794 18.6655821,14.1642395 18.2994022,13.8804391 L18.1712423,13.7795884 C18.982802,13.5068291 19.6294218,13.1228565 20.0954416,12.6334688 C20.4157815,12.3006309 20.6616015,11.8998807 20.8156214,11.4592221 C20.9697014,11.0185634 21.0282613,10.5486057 20.9873413,10.0822255 C20.9531414,9.42611043 20.7118814,8.79929447 20.3001016,8.29670675 C19.8882617,7.79418071 19.3284019,7.44333155 18.7052421,7.29720608 C18.4692622,7.24274058 18.2280023,7.21621717 17.9861423,7.21812932 C17.8128024,7.21849942 17.6396425,7.23040411 17.4677425,7.25365835 L17.4744625,7.16656288 L17.5023025,6.79406322 L17.5859425,5.67779788 L16.4989828,5.74885594 L16.1410829,5.77174009 L16.095363,5.77174009 C16.095363,5.6445511 16.087563,5.5139079 16.075323,5.37752824 C15.956043,4.03427805 14.8913434,3.01768521 13.9515637,2.64061488 C13.6572038,2.52600909 13.5858638,2.39764197 13.5379238,2.16269393 L13.092004,0.00229458312 L13.085284,0 Z" id="形状" fill="#060627"></path>
            <path d="M17.5959625,12.9371927 C19.099922,12.5062798 20.1389416,11.6604299 20.0363417,10.1475471 C20.0157017,9.69782114 19.8517217,9.26758681 19.5696618,8.92315261 C19.2876019,8.57871842 18.903122,8.33920588 18.4755622,8.24162442 C17.9817023,8.12701863 17.1277226,8.20837764 16.8412227,8.49717436 C17.2759826,8.48915566 17.9939423,8.85709083 18.1110023,9.48396847 C18.2225423,10.0833975 17.6907624,10.7549948 16.5792628,10.5980132 C16.5792628,10.5372561 16.5714628,10.4753887 16.5669628,10.4134597 C16.4676028,9.3084822 16.4515828,8.19727482 16.5190228,7.08976837 L16.5469228,6.71726871 L16.1901629,6.74021454 C16.034103,6.75051549 15.881343,6.75514166 15.7341631,6.75514166 C15.4848632,6.75520335 15.2358032,6.73953603 14.9883633,6.70813972 C15.1251033,6.31004189 15.1704633,5.8848655 15.1210233,5.46573399 C15.0396633,4.54197924 14.2425036,3.80619526 13.5959438,3.54717877 C12.949324,3.28816228 12.7040441,2.85951935 12.6003641,2.36440136 C12.6003641,2.36440136 12.2748042,2.83315631 12.2915442,3.32139672 C12.3127242,3.96779682 12.7174241,4.49158477 13.011724,4.72653281 C13.3060839,4.96148085 13.1589039,5.44167788 12.7162841,5.87259072 C11.9856043,5.40559371 11.3119245,4.85039095 10.7095847,4.21879461 L10.4922048,3.99874286 L10.2759049,4.21879461 C9.67332508,4.85008254 8.99964531,5.4052853 8.26920555,5.87259072 C7.8232857,5.43711338 7.67388574,4.96376309 7.97490565,4.72653281 C8.27592555,4.48930252 8.67390541,3.96779682 8.69508541,3.32139672 C8.7106854,2.83315631 8.38512551,2.36440136 8.38512551,2.36440136 C8.28258554,2.85951935 8.03622563,3.28701499 7.38960584,3.54717877 C6.74298605,3.80734255 5.94696633,4.54197924 5.86446636,5.46573399 C5.81700638,5.88480382 5.86392636,6.30954843 6.0016263,6.70696775 C5.7531664,6.7392893 5.50290648,6.75538839 5.25246656,6.75514166 C5.10642661,6.75514166 4.95366666,6.75514166 4.79868671,6.74021454 L4.44192683,6.71726871 L4.46982682,7.08976837 C4.5371468,8.19727482 4.5211268,9.3084822 4.42188684,10.4134597 L4.40850684,10.594559 C3.29367121,10.7504303 2.76745938,10.078833 2.88006135,9.48057594 C2.99154731,8.85363661 3.71396507,8.48570145 4.14986493,8.49378183 C3.86335302,8.20492343 3.0093793,8.11782796 2.51439147,8.23817021 C2.08701161,8.33612177 1.70277774,8.57569598 1.42077783,8.9200685 C1.13877792,9.26444101 0.974641976,9.6944903 0.953611983,10.1441546 C0.851048017,11.6569757 1.89007967,12.5028256 3.39511918,12.9337385 C3.74815906,13.0285442 4.09131095,13.158694 4.41966684,13.3222755 C4.45182683,13.5500068 4.49610681,13.7757641 4.55232679,13.9984991 C4.08619895,14.1003983 3.65140309,14.3179519 3.28586521,14.6322851 C2.7284474,15.0907083 2.51773947,15.615625 2.54895746,16.2838298 C2.54955146,16.5696658 2.65140142,16.8454475 2.83546336,17.059732 C2.97036132,16.5038507 3.18441125,16.1565792 3.67383108,15.9617246 C4.31597487,15.707285 5.05398663,16.5348153 5.53116647,17.4608523 C6.19224623,18.7501983 7.5010858,19.0974698 8.81214537,18.4774389 L8.88234535,18.4419099 C9.39150518,18.6946842 9.86178502,19.0228959 10.2781249,19.4161208 L10.4932848,19.6315772 L10.7095847,19.4161208 C11.1259846,19.0228959 11.5962644,18.6946842 12.1053643,18.4419099 L12.1778443,18.4774389 C13.4877638,19.0974698 14.7966034,18.7501983 15.4588232,17.4608523 C15.934863,16.532533 16.6740028,15.707285 17.3150426,15.9617246 C17.8044624,16.1565792 18.0184823,16.5038507 18.1545023,17.059732 C18.3381022,16.8452008 18.4399222,16.5695424 18.4410022,16.2838298 C18.4711222,15.615625 18.2570422,15.088426 17.7040824,14.6322851 C17.3377826,14.3178902 16.9022427,14.1003366 16.4354429,13.9984991 C16.4910628,13.7760109 16.5353428,13.5506853 16.5681028,13.3234475 C16.8973827,13.1598043 17.2416626,13.0304564 17.5959625,12.9371927 L17.5959625,12.9371927 Z" id="路径" fill="#F54910"></path>
            <path d="M5.56794646,7.84161443 C5.60904645,8.76499909 5.58852645,9.69017253 5.50662648,10.6105964 C5.40516651,12.0363838 5.32602654,13.1630117 5.90904635,14.4821503 C6.52446612,15.8746909 7.64376575,16.4305104 8.7262854,16.9737468 C9.33942519,17.2786426 9.97158499,17.5938394 10.4977848,18.0557168 C11.0250646,17.5972319 11.6572244,17.2786426 12.2692242,16.9737468 C13.3528839,16.4327927 14.4721835,15.8746909 15.0875433,14.4821503 C15.6706231,13.1630117 15.5903431,12.0363838 15.4900232,10.6105964 C15.4071032,9.69023422 15.3862232,8.76499909 15.4276232,7.84161443 C15.3696032,7.84161443 15.3160832,7.84161443 15.2548232,7.84161443 C13.5334838,7.84161443 12.0997843,7.17920776 10.4977848,5.63079594 C8.89572534,7.17920776 7.46316581,7.84161443 5.7407464,7.84161443 C5.68386642,7.84395836 5.62590644,7.84395836 5.56794646,7.84161443 Z" id="路径" fill="#FFFFFF"></path>
            <path d="M9.55014513,16.5164956 C9.89928501,16.8022699 10.2157249,17.1279527 10.4932848,17.4872523 C10.7709047,17.1282611 11.0872846,16.8030101 11.4364845,16.5176059 C11.1178246,16.4458077 10.8030047,16.3570468 10.4932848,16.251755 C10.1836849,16.3571084 9.86886502,16.4454376 9.55014513,16.5164956 L9.55014513,16.5164956 Z" id="路径" fill="#060627"></path>
            <path d="M9.16776525,15.5870044 C8.94306533,15.4460603 8.7257454,15.2930264 8.51670547,15.1285812 C8.51502547,15.1338242 8.51214547,15.1385121 8.50824547,15.1423364 C8.50434547,15.1461607 8.49960547,15.1488747 8.49438547,15.1503551 C8.29794554,15.2176505 8.09274561,15.2539814 7.88568567,15.2580525 C7.77330571,15.2574973 7.66122575,15.2452226 7.55124579,15.2214132 C7.59228577,15.3322563 7.66098575,15.4301462 7.75038572,15.5051519 C7.83978569,15.5801577 7.94682565,15.6297503 8.06070562,15.6488718 C8.18910557,15.6758887 8.31990553,15.6889653 8.45094549,15.687855 C8.69304541,15.685141 8.93388533,15.6512774 9.16776525,15.5870044 L9.16776525,15.5870044 Z" id="路径" fill="#060627"></path>
            <path d="M8.45424549,15.0849718 C8.23548556,14.9093622 8.02596563,14.7219096 7.82658569,14.5234158 C7.4977258,14.5173092 7.16976591,14.4854812 6.84552602,14.4282399 C6.86694601,14.5477186 6.91878599,14.6592403 6.99576597,14.7514554 C7.07268594,14.8436705 7.17204591,14.9132482 7.28364587,14.9531567 C7.65858575,15.0902765 8.05938562,15.1353663 8.45424549,15.0849718 L8.45424549,15.0849718 Z" id="路径" fill="#060627"></path>
            <path d="M9.25920522,15.6476998 C8.99790531,15.7949356 8.7053454,15.8737039 8.4074455,15.8769114 C8.31192553,15.8768497 8.21652557,15.8695712 8.1220256,15.8551376 C8.32380553,16.2539756 9.13206526,16.3823365 10.1532649,16.1004482 C9.84468503,15.9726424 9.54582513,15.8213356 9.25920522,15.6476998 L9.25920522,15.6476998 Z" id="路径" fill="#060627"></path>
            <path d="M7.72512573,12.1223073 C8.08110561,12.0977577 8.43306549,12.0312641 8.77422538,11.9240602 C8.77422538,11.9240602 7.74408572,11.5194857 6.49992613,9.83697651 C6.12534626,10.9051296 5.95476633,11.7108861 6.20898623,13.2752736 C6.41688616,13.0548209 6.6126661,12.8225869 6.79536604,12.5796202 C8.56794545,16.132523 12.4063842,16.7571184 12.864544,15.8505731 C12.7704041,15.8678441 12.6747641,15.8751226 12.5791841,15.8723469 C12.2743242,15.8533488 11.9763643,15.7714963 11.7028844,15.6316624 C11.6950844,15.627468 11.6889644,15.6205596 11.6857244,15.6121708 C11.6824244,15.6037203 11.6821844,15.5944063 11.6850644,15.5858324 C11.6878844,15.5771352 11.6938844,15.5698567 11.7017444,15.5656006 C11.7096644,15.5613446 11.7188444,15.5603576 11.7274244,15.5628866 C11.9902243,15.6433821 12.2626242,15.6858195 12.5368241,15.6889653 C12.6678641,15.6900139 12.7986041,15.6769989 12.927004,15.6499821 C13.040884,15.6308606 13.1479239,15.5813296 13.2373239,15.5062622 C13.3267239,15.4312565 13.3954239,15.3334283 13.4364638,15.2225235 C13.3264839,15.2463328 13.2144639,15.2586076 13.102024,15.2591628 C12.894664,15.2549684 12.6890441,15.2186375 12.4921842,15.1514654 C12.4840842,15.1483813 12.4772442,15.1423981 12.4729842,15.1346261 C12.4686642,15.1269158 12.4672242,15.1178485 12.4687842,15.1090279 C12.4693242,15.1045251 12.4707642,15.1001457 12.4729842,15.096198 C12.4752042,15.0922503 12.4781442,15.0887345 12.4816842,15.0859587 C12.4852242,15.083183 12.4892442,15.0812092 12.4935042,15.0800372 C12.4978242,15.0788653 12.5023241,15.0786186 12.5067041,15.0792354 C12.909424,15.1344411 13.3191639,15.0900298 13.7018438,14.9497641 C13.8134437,14.9098557 13.9128037,14.8402163 13.9897837,14.7480629 C14.0667036,14.6558478 14.1185436,14.5443261 14.1399636,14.4248474 C11.3851845,14.9210818 8.4163255,13.3130849 7.72512573,12.1223073 Z" id="路径" fill="#060627"></path>
            <path d="M9.81546504,10.5727852 C10.007225,10.5727852 10.1086849,10.6518619 10.1098249,10.8489987 C10.0886449,12.1177428 9.72408507,12.7159998 9.20790524,13.1572136 C9.48660515,13.4048065 10.023965,13.6030536 10.4922048,13.7463416 C10.9604447,13.6030536 11.4955845,13.4025243 11.7765044,13.1572136 C11.2603246,12.7159998 10.8957647,12.1177428 10.8745847,10.8489987 C10.8745847,10.6518619 10.9771247,10.5727852 11.1700246,10.5727852 C11.6950844,10.5727852 12.0050443,10.4008765 12.0050443,9.96761971 L12.0050443,9.69603236 L10.8723647,9.83925875 L10.8723647,9.47823201 C11.1917446,9.38416644 11.4673245,9.17456984 11.6482844,8.88811704 C11.8293044,8.60172593 11.9035243,8.25766183 11.8573244,7.91945755 C11.8110644,7.58119159 11.6475644,7.27148455 11.3968245,7.0473926 C11.1460846,6.82330065 10.8250247,6.69987429 10.4927448,6.69987429 C10.1605249,6.69987429 9.83946503,6.82330065 9.58872511,7.0473926 C9.3379852,7.27148455 9.17442525,7.58119159 9.12822526,7.91945755 C9.08196528,8.25766183 9.15618526,8.60172593 9.3372052,8.88811704 C9.51816514,9.17456984 9.79374504,9.38416644 10.1131249,9.47823201 L10.1131249,9.83925875 L8.97936531,9.69603236 L8.97936531,9.97107392 C8.98050531,10.4008765 9.29040521,10.5716132 9.81546504,10.5727852 Z M10.4932848,7.5779841 C10.5971448,7.5779841 10.6986647,7.60968883 10.7850647,7.66896556 C10.8714047,7.72830397 10.9386647,7.81262373 10.9784447,7.9112538 C11.0181646,8.00988386 11.0286046,8.11844478 11.0083246,8.22311972 C10.9880447,8.32785633 10.9380647,8.4240191 10.8646247,8.49951829 C10.7911847,8.57501748 10.6975847,8.62646055 10.5957648,8.6472475 C10.4938848,8.66809613 10.3883448,8.65742509 10.2923449,8.61652969 C10.1964049,8.57569598 10.1144449,8.50648839 10.056725,8.41772751 C9.99900498,8.32896662 9.96822499,8.22460009 9.96822499,8.11782796 C9.96822499,7.97466324 10.023545,7.83735835 10.1220049,7.73613763 C10.2204649,7.63485522 10.3540249,7.5779841 10.4932848,7.5779841 L10.4932848,7.5779841 Z" id="形状" fill="#060627"></path>
            <path d="M14.4855635,9.83697651 C13.2960039,11.4610109 12.2101842,11.919434 12.2101842,11.919434 C12.5513441,12.0265763 12.903304,12.0931315 13.2592239,12.1177428 C12.915844,12.7079811 12.0128443,13.4013523 10.8534047,13.8896297 C11.5401645,14.1299441 12.2560242,14.271135 12.980524,14.3090697 C13.4658638,13.7980931 13.8732637,13.2146399 14.1890436,12.5784482 C14.3720435,12.8211682 14.5678235,13.0534022 14.7754234,13.2741633 C15.0563433,12.1188531 14.8601434,10.9051296 14.4855635,9.83697651 Z" id="路径" fill="#060627"></path>
        </g>
    </g>
</svg>