<svg fill="none" height="16" viewBox="0 0 16 16" width="16" xmlns="http://www.w3.org/2000/svg" xmlns:xlink="http://www.w3.org/1999/xlink"><linearGradient id="a"><stop offset=".56" stop-color="#ffed09"/><stop offset=".8" stop-color="#e9f50f"/><stop offset="1" stop-color="#d5fd14"/></linearGradient><radialGradient id="b" cx="0" cy="0" gradientTransform="matrix(7.99989753 -.04049147 .04049147 7.99989753 7.99121 7.99796)" gradientUnits="userSpaceOnUse" r="1" xlink:href="#a"/><radialGradient id="c" cx="0" cy="0" gradientTransform="matrix(3.6532832 -.01849109 .01849109 3.6532832 7.99121 7.998)" gradientUnits="userSpaceOnUse" r="1"><stop offset="0" stop-color="#e39e00"/><stop offset=".38" stop-color="#efb200"/><stop offset="1" stop-color="#ffce00"/></radialGradient><linearGradient id="d" gradientUnits="userSpaceOnUse" x1="2.4013" x2="11.3945" y1="7.40626" y2="7.36074"><stop offset="0" stop-color="#3b4d52"/><stop offset=".4" stop-color="#353746"/><stop offset="1" stop-color="#2a1030"/></linearGradient><radialGradient id="e" cx="0" cy="0" gradientTransform="matrix(3.73913606 1.24964627 -1.12893321 3.37794381 2655.54 5117.2)" gradientUnits="userSpaceOnUse" r="1" xlink:href="#a"/><clipPath id="f"><path d="m0 0h16v16h-16z"/></clipPath><g clip-path="url(#f)"><path clip-rule="evenodd" d="m16.0001 7.95328c.0092 1.58221-.451 3.13162-1.3223 4.45232-.8714 1.3207-2.1148 2.3533-3.5731 2.9673-1.45823.614-3.0658.7818-4.61941.4822-1.55361-.2997-2.98348-1.0533-4.1088-2.1655-1.12532-1.1123-1.895548-2.5333-2.213281-4.0833-.317733-1.55001-.16870133-3.15943.428245-4.62474.596946-1.46531 1.614996-2.7207 2.925416-3.60742 1.31043-.886721 2.85436-1.3649297 4.43658-1.37418619 1.05058-.00614626 2.09205.19469519 3.06505.59106419.9729.39637 1.8583.980492 2.6055 1.719032s1.3416 1.61702 1.7493 2.58529.6207 2.00736.6268 3.05794z" fill="url(#b)" fill-rule="evenodd"/><path clip-rule="evenodd" d="m11.6534 7.98c.004.72415-.207 1.43318-.6061 2.0374-.3992.6042-.9686 1.0764-1.63627 1.3569-.66764.2805-1.40347.3566-2.11439.2187-.71091-.1379-1.36494-.4835-1.87933-.9932-.51439-.5098-.86601-1.16062-1.01036-1.87024-.14435-.70963-.07495-1.44615.19942-2.11632.27438-.67016.74139-1.24388 1.34194-1.64853.60055-.40466 1.30765-.62207 2.0318-.62472.96955-.00355 1.90088.37776 2.58959 1.0602.6887.68245 1.0785 1.61028 1.0837 2.57981z" fill="url(#c)" fill-rule="evenodd"/><path d="m10.2799 5.39331c.98-.12 1.3334-1.12001.98-1.44001-1.0497-.85004-2.16419-1.61682-3.3333-2.29333-.92-.46667-1.51333-.48667-2.12 0-1.14666.90667-3.03333 3.38666-3.33333 4.45333-.3 1.06666.84667 1.15332 1.42.82666.45421-.25196.92406-.47464 1.40667-.66667.04.26667.09333.53335.14666.78668-.12035.06549-.23616.13898-.34666.21999-.66667.46667-1.55334 2.08668-.83334 2.19334.61464-.05752 1.22206-.17587 1.81334-.35333.08666.21333.16666.41334.25333.60667-.48667.45336-1.04667 1.45336-.58667 1.57996.43711.0077.87355-.0371 1.3-.1333.39334.7467.10667.7067-.21333 1.4333-.32.7267.52667.8734 1.06.8067.79149-.0904 1.56995-.2716 2.32003-.54 1.24-.4067 1.18-1.14.6133-1.2933-.5667-.1534-2-.2867-2.43333-.6667.43333-.0867.8-.16.97333-.2067.58667-.1466.6667-.4866-.23333-1.0733-.37211-.24172-.79794-.38823-1.24-.42666 0-.18-.06667-.36667-.1-.56667.57333-.16 1.05333-.30001 1.28667-.38001.77333-.25333.85333-.66666-.44-1.26666-.35477-.15561-.72948-.26107-1.11334-.31333-.04-.36667-.06666-.71333-.08666-1.01333.87333-.08 2.04666-.17333 2.83996-.27333z" fill="url(#d)"/><path clip-rule="evenodd" d="m12.0334 4.93998c.0013.21887-.0623.43323-.1828.61595-.1205.18271-.2925.32559-.4942.41056-.2017.08498-.4241.10824-.639.06683-.215-.0414-.4128-.14562-.5685-.29945-.15567-.15384-.26225-.35037-.30625-.56478-.04399-.21441-.02342-.43706.05912-.63977.08254-.20272.22333-.37641.40463-.49911.1812-.1227.3948-.1889.6137-.19022.1453-.00088.2894.02688.424.08168.1346.05481.2571.13559.3604.23773.1034.10215.1857.22365.2421.35759.0564.13393.0859.27766.0868.42299z" fill="#fff" fill-rule="evenodd"/><path d="m7.22856 3.91982c.2054-.6146-.07821-1.26327-.63344-1.44883-.55524-.18556-1.17185.16224-1.37726.77684-.2054.6146.07819 1.26325.63343 1.44882.55523.18556 1.17187-.16223 1.37727-.77683z" fill="url(#e)"/></g></svg>